%TF.GenerationSoftware,KiCad,Pcbnew,9.0.2*%
%TF.CreationDate,2026-02-14T11:32:14+01:00*%
%TF.ProjectId,turbokit_replica,74757262-6f6b-4697-945f-7265706c6963,0.1*%
%TF.SameCoordinates,Original*%
%TF.FileFunction,Legend,Top*%
%TF.FilePolarity,Positive*%
%FSLAX46Y46*%
G04 Gerber Fmt 4.6, Leading zero omitted, Abs format (unit mm)*
G04 Created by KiCad (PCBNEW 9.0.2) date 2026-02-14 11:32:14*
%MOMM*%
%LPD*%
G01*
G04 APERTURE LIST*
%ADD10C,0.162500*%
%ADD11C,0.125000*%
%ADD12C,0.150000*%
%ADD13C,0.120000*%
%ADD14C,0.000000*%
G04 APERTURE END LIST*
D10*
X140268830Y-148285988D02*
X140268830Y-146285988D01*
X140825973Y-148285988D02*
X140825973Y-147238369D01*
X140825973Y-147238369D02*
X140764068Y-147047892D01*
X140764068Y-147047892D02*
X140640259Y-146952654D01*
X140640259Y-146952654D02*
X140454545Y-146952654D01*
X140454545Y-146952654D02*
X140330735Y-147047892D01*
X140330735Y-147047892D02*
X140268830Y-147143130D01*
X141259306Y-146952654D02*
X141754544Y-146952654D01*
X141445020Y-146285988D02*
X141445020Y-148000273D01*
X141445020Y-148000273D02*
X141506925Y-148190750D01*
X141506925Y-148190750D02*
X141630735Y-148285988D01*
X141630735Y-148285988D02*
X141754544Y-148285988D01*
X142002163Y-146952654D02*
X142497401Y-146952654D01*
X142187877Y-146285988D02*
X142187877Y-148000273D01*
X142187877Y-148000273D02*
X142249782Y-148190750D01*
X142249782Y-148190750D02*
X142373592Y-148285988D01*
X142373592Y-148285988D02*
X142497401Y-148285988D01*
X142930734Y-146952654D02*
X142930734Y-148952654D01*
X142930734Y-147047892D02*
X143054544Y-146952654D01*
X143054544Y-146952654D02*
X143302163Y-146952654D01*
X143302163Y-146952654D02*
X143425972Y-147047892D01*
X143425972Y-147047892D02*
X143487877Y-147143130D01*
X143487877Y-147143130D02*
X143549782Y-147333607D01*
X143549782Y-147333607D02*
X143549782Y-147905035D01*
X143549782Y-147905035D02*
X143487877Y-148095511D01*
X143487877Y-148095511D02*
X143425972Y-148190750D01*
X143425972Y-148190750D02*
X143302163Y-148285988D01*
X143302163Y-148285988D02*
X143054544Y-148285988D01*
X143054544Y-148285988D02*
X142930734Y-148190750D01*
X144045020Y-148190750D02*
X144168829Y-148285988D01*
X144168829Y-148285988D02*
X144416448Y-148285988D01*
X144416448Y-148285988D02*
X144540258Y-148190750D01*
X144540258Y-148190750D02*
X144602162Y-148000273D01*
X144602162Y-148000273D02*
X144602162Y-147905035D01*
X144602162Y-147905035D02*
X144540258Y-147714559D01*
X144540258Y-147714559D02*
X144416448Y-147619321D01*
X144416448Y-147619321D02*
X144230734Y-147619321D01*
X144230734Y-147619321D02*
X144106924Y-147524083D01*
X144106924Y-147524083D02*
X144045020Y-147333607D01*
X144045020Y-147333607D02*
X144045020Y-147238369D01*
X144045020Y-147238369D02*
X144106924Y-147047892D01*
X144106924Y-147047892D02*
X144230734Y-146952654D01*
X144230734Y-146952654D02*
X144416448Y-146952654D01*
X144416448Y-146952654D02*
X144540258Y-147047892D01*
X145159305Y-148095511D02*
X145221210Y-148190750D01*
X145221210Y-148190750D02*
X145159305Y-148285988D01*
X145159305Y-148285988D02*
X145097401Y-148190750D01*
X145097401Y-148190750D02*
X145159305Y-148095511D01*
X145159305Y-148095511D02*
X145159305Y-148285988D01*
X145159305Y-147047892D02*
X145221210Y-147143130D01*
X145221210Y-147143130D02*
X145159305Y-147238369D01*
X145159305Y-147238369D02*
X145097401Y-147143130D01*
X145097401Y-147143130D02*
X145159305Y-147047892D01*
X145159305Y-147047892D02*
X145159305Y-147238369D01*
X146706925Y-146190750D02*
X145592639Y-148762178D01*
X148068830Y-146190750D02*
X146954544Y-148762178D01*
X149059306Y-146952654D02*
X149059306Y-148571702D01*
X149059306Y-148571702D02*
X148997401Y-148762178D01*
X148997401Y-148762178D02*
X148935497Y-148857416D01*
X148935497Y-148857416D02*
X148811687Y-148952654D01*
X148811687Y-148952654D02*
X148625973Y-148952654D01*
X148625973Y-148952654D02*
X148502163Y-148857416D01*
X149059306Y-148190750D02*
X148935497Y-148285988D01*
X148935497Y-148285988D02*
X148687878Y-148285988D01*
X148687878Y-148285988D02*
X148564068Y-148190750D01*
X148564068Y-148190750D02*
X148502163Y-148095511D01*
X148502163Y-148095511D02*
X148440259Y-147905035D01*
X148440259Y-147905035D02*
X148440259Y-147333607D01*
X148440259Y-147333607D02*
X148502163Y-147143130D01*
X148502163Y-147143130D02*
X148564068Y-147047892D01*
X148564068Y-147047892D02*
X148687878Y-146952654D01*
X148687878Y-146952654D02*
X148935497Y-146952654D01*
X148935497Y-146952654D02*
X149059306Y-147047892D01*
X149678353Y-148285988D02*
X149678353Y-146952654D01*
X149678353Y-146285988D02*
X149616449Y-146381226D01*
X149616449Y-146381226D02*
X149678353Y-146476464D01*
X149678353Y-146476464D02*
X149740258Y-146381226D01*
X149740258Y-146381226D02*
X149678353Y-146285988D01*
X149678353Y-146285988D02*
X149678353Y-146476464D01*
X150111687Y-146952654D02*
X150606925Y-146952654D01*
X150297401Y-146285988D02*
X150297401Y-148000273D01*
X150297401Y-148000273D02*
X150359306Y-148190750D01*
X150359306Y-148190750D02*
X150483116Y-148285988D01*
X150483116Y-148285988D02*
X150606925Y-148285988D01*
X151040258Y-148285988D02*
X151040258Y-146285988D01*
X151597401Y-148285988D02*
X151597401Y-147238369D01*
X151597401Y-147238369D02*
X151535496Y-147047892D01*
X151535496Y-147047892D02*
X151411687Y-146952654D01*
X151411687Y-146952654D02*
X151225973Y-146952654D01*
X151225973Y-146952654D02*
X151102163Y-147047892D01*
X151102163Y-147047892D02*
X151040258Y-147143130D01*
X152773591Y-146952654D02*
X152773591Y-148285988D01*
X152216448Y-146952654D02*
X152216448Y-148000273D01*
X152216448Y-148000273D02*
X152278353Y-148190750D01*
X152278353Y-148190750D02*
X152402163Y-148285988D01*
X152402163Y-148285988D02*
X152587877Y-148285988D01*
X152587877Y-148285988D02*
X152711686Y-148190750D01*
X152711686Y-148190750D02*
X152773591Y-148095511D01*
X153392638Y-148285988D02*
X153392638Y-146285988D01*
X153392638Y-147047892D02*
X153516448Y-146952654D01*
X153516448Y-146952654D02*
X153764067Y-146952654D01*
X153764067Y-146952654D02*
X153887876Y-147047892D01*
X153887876Y-147047892D02*
X153949781Y-147143130D01*
X153949781Y-147143130D02*
X154011686Y-147333607D01*
X154011686Y-147333607D02*
X154011686Y-147905035D01*
X154011686Y-147905035D02*
X153949781Y-148095511D01*
X153949781Y-148095511D02*
X153887876Y-148190750D01*
X153887876Y-148190750D02*
X153764067Y-148285988D01*
X153764067Y-148285988D02*
X153516448Y-148285988D01*
X153516448Y-148285988D02*
X153392638Y-148190750D01*
X154568828Y-148095511D02*
X154630733Y-148190750D01*
X154630733Y-148190750D02*
X154568828Y-148285988D01*
X154568828Y-148285988D02*
X154506924Y-148190750D01*
X154506924Y-148190750D02*
X154568828Y-148095511D01*
X154568828Y-148095511D02*
X154568828Y-148285988D01*
X155745019Y-148190750D02*
X155621210Y-148285988D01*
X155621210Y-148285988D02*
X155373591Y-148285988D01*
X155373591Y-148285988D02*
X155249781Y-148190750D01*
X155249781Y-148190750D02*
X155187876Y-148095511D01*
X155187876Y-148095511D02*
X155125972Y-147905035D01*
X155125972Y-147905035D02*
X155125972Y-147333607D01*
X155125972Y-147333607D02*
X155187876Y-147143130D01*
X155187876Y-147143130D02*
X155249781Y-147047892D01*
X155249781Y-147047892D02*
X155373591Y-146952654D01*
X155373591Y-146952654D02*
X155621210Y-146952654D01*
X155621210Y-146952654D02*
X155745019Y-147047892D01*
X156487877Y-148285988D02*
X156364067Y-148190750D01*
X156364067Y-148190750D02*
X156302162Y-148095511D01*
X156302162Y-148095511D02*
X156240258Y-147905035D01*
X156240258Y-147905035D02*
X156240258Y-147333607D01*
X156240258Y-147333607D02*
X156302162Y-147143130D01*
X156302162Y-147143130D02*
X156364067Y-147047892D01*
X156364067Y-147047892D02*
X156487877Y-146952654D01*
X156487877Y-146952654D02*
X156673591Y-146952654D01*
X156673591Y-146952654D02*
X156797400Y-147047892D01*
X156797400Y-147047892D02*
X156859305Y-147143130D01*
X156859305Y-147143130D02*
X156921210Y-147333607D01*
X156921210Y-147333607D02*
X156921210Y-147905035D01*
X156921210Y-147905035D02*
X156859305Y-148095511D01*
X156859305Y-148095511D02*
X156797400Y-148190750D01*
X156797400Y-148190750D02*
X156673591Y-148285988D01*
X156673591Y-148285988D02*
X156487877Y-148285988D01*
X157478352Y-148285988D02*
X157478352Y-146952654D01*
X157478352Y-147143130D02*
X157540257Y-147047892D01*
X157540257Y-147047892D02*
X157664067Y-146952654D01*
X157664067Y-146952654D02*
X157849781Y-146952654D01*
X157849781Y-146952654D02*
X157973590Y-147047892D01*
X157973590Y-147047892D02*
X158035495Y-147238369D01*
X158035495Y-147238369D02*
X158035495Y-148285988D01*
X158035495Y-147238369D02*
X158097400Y-147047892D01*
X158097400Y-147047892D02*
X158221209Y-146952654D01*
X158221209Y-146952654D02*
X158406924Y-146952654D01*
X158406924Y-146952654D02*
X158530733Y-147047892D01*
X158530733Y-147047892D02*
X158592638Y-147238369D01*
X158592638Y-147238369D02*
X158592638Y-148285988D01*
X160140257Y-146190750D02*
X159025971Y-148762178D01*
X160573590Y-148285988D02*
X160573590Y-146285988D01*
X160573590Y-146285988D02*
X160883114Y-146285988D01*
X160883114Y-146285988D02*
X161068828Y-146381226D01*
X161068828Y-146381226D02*
X161192638Y-146571702D01*
X161192638Y-146571702D02*
X161254543Y-146762178D01*
X161254543Y-146762178D02*
X161316447Y-147143130D01*
X161316447Y-147143130D02*
X161316447Y-147428845D01*
X161316447Y-147428845D02*
X161254543Y-147809797D01*
X161254543Y-147809797D02*
X161192638Y-148000273D01*
X161192638Y-148000273D02*
X161068828Y-148190750D01*
X161068828Y-148190750D02*
X160883114Y-148285988D01*
X160883114Y-148285988D02*
X160573590Y-148285988D01*
X162430733Y-148285988D02*
X162430733Y-147238369D01*
X162430733Y-147238369D02*
X162368828Y-147047892D01*
X162368828Y-147047892D02*
X162245019Y-146952654D01*
X162245019Y-146952654D02*
X161997400Y-146952654D01*
X161997400Y-146952654D02*
X161873590Y-147047892D01*
X162430733Y-148190750D02*
X162306924Y-148285988D01*
X162306924Y-148285988D02*
X161997400Y-148285988D01*
X161997400Y-148285988D02*
X161873590Y-148190750D01*
X161873590Y-148190750D02*
X161811686Y-148000273D01*
X161811686Y-148000273D02*
X161811686Y-147809797D01*
X161811686Y-147809797D02*
X161873590Y-147619321D01*
X161873590Y-147619321D02*
X161997400Y-147524083D01*
X161997400Y-147524083D02*
X162306924Y-147524083D01*
X162306924Y-147524083D02*
X162430733Y-147428845D01*
X163049780Y-148285988D02*
X163049780Y-146952654D01*
X163049780Y-147333607D02*
X163111685Y-147143130D01*
X163111685Y-147143130D02*
X163173590Y-147047892D01*
X163173590Y-147047892D02*
X163297399Y-146952654D01*
X163297399Y-146952654D02*
X163421209Y-146952654D01*
X163730733Y-146952654D02*
X163978352Y-148285988D01*
X163978352Y-148285988D02*
X164225971Y-147333607D01*
X164225971Y-147333607D02*
X164473590Y-148285988D01*
X164473590Y-148285988D02*
X164721209Y-146952654D01*
X165216447Y-148285988D02*
X165216447Y-146952654D01*
X165216447Y-146285988D02*
X165154543Y-146381226D01*
X165154543Y-146381226D02*
X165216447Y-146476464D01*
X165216447Y-146476464D02*
X165278352Y-146381226D01*
X165278352Y-146381226D02*
X165216447Y-146285988D01*
X165216447Y-146285988D02*
X165216447Y-146476464D01*
X165835495Y-146952654D02*
X165835495Y-148285988D01*
X165835495Y-147143130D02*
X165897400Y-147047892D01*
X165897400Y-147047892D02*
X166021210Y-146952654D01*
X166021210Y-146952654D02*
X166206924Y-146952654D01*
X166206924Y-146952654D02*
X166330733Y-147047892D01*
X166330733Y-147047892D02*
X166392638Y-147238369D01*
X166392638Y-147238369D02*
X166392638Y-148285988D01*
X167011685Y-148285988D02*
X167011685Y-146285988D01*
X167011685Y-146285988D02*
X167754542Y-148285988D01*
X167754542Y-148285988D02*
X167754542Y-146285988D01*
X168373590Y-147238369D02*
X168806924Y-147238369D01*
X168992638Y-148285988D02*
X168373590Y-148285988D01*
X168373590Y-148285988D02*
X168373590Y-146285988D01*
X168373590Y-146285988D02*
X168992638Y-146285988D01*
X170478352Y-146190750D02*
X169364066Y-148762178D01*
X171592638Y-146381226D02*
X171468828Y-146285988D01*
X171468828Y-146285988D02*
X171283114Y-146285988D01*
X171283114Y-146285988D02*
X171097400Y-146381226D01*
X171097400Y-146381226D02*
X170973590Y-146571702D01*
X170973590Y-146571702D02*
X170911685Y-146762178D01*
X170911685Y-146762178D02*
X170849781Y-147143130D01*
X170849781Y-147143130D02*
X170849781Y-147428845D01*
X170849781Y-147428845D02*
X170911685Y-147809797D01*
X170911685Y-147809797D02*
X170973590Y-148000273D01*
X170973590Y-148000273D02*
X171097400Y-148190750D01*
X171097400Y-148190750D02*
X171283114Y-148285988D01*
X171283114Y-148285988D02*
X171406923Y-148285988D01*
X171406923Y-148285988D02*
X171592638Y-148190750D01*
X171592638Y-148190750D02*
X171654542Y-148095511D01*
X171654542Y-148095511D02*
X171654542Y-147428845D01*
X171654542Y-147428845D02*
X171406923Y-147428845D01*
X172211685Y-147238369D02*
X172645019Y-147238369D01*
X172830733Y-148285988D02*
X172211685Y-148285988D01*
X172211685Y-148285988D02*
X172211685Y-146285988D01*
X172211685Y-146285988D02*
X172830733Y-146285988D01*
X173387875Y-148285988D02*
X173387875Y-146285988D01*
X173387875Y-146285988D02*
X173821209Y-147714559D01*
X173821209Y-147714559D02*
X174254542Y-146285988D01*
X174254542Y-146285988D02*
X174254542Y-148285988D01*
X174564066Y-148476464D02*
X175554542Y-148476464D01*
X175678351Y-146952654D02*
X176173589Y-146952654D01*
X175864065Y-146285988D02*
X175864065Y-148000273D01*
X175864065Y-148000273D02*
X175925970Y-148190750D01*
X175925970Y-148190750D02*
X176049780Y-148285988D01*
X176049780Y-148285988D02*
X176173589Y-148285988D01*
X177164065Y-146952654D02*
X177164065Y-148285988D01*
X176606922Y-146952654D02*
X176606922Y-148000273D01*
X176606922Y-148000273D02*
X176668827Y-148190750D01*
X176668827Y-148190750D02*
X176792637Y-148285988D01*
X176792637Y-148285988D02*
X176978351Y-148285988D01*
X176978351Y-148285988D02*
X177102160Y-148190750D01*
X177102160Y-148190750D02*
X177164065Y-148095511D01*
X177783112Y-148285988D02*
X177783112Y-146952654D01*
X177783112Y-147333607D02*
X177845017Y-147143130D01*
X177845017Y-147143130D02*
X177906922Y-147047892D01*
X177906922Y-147047892D02*
X178030731Y-146952654D01*
X178030731Y-146952654D02*
X178154541Y-146952654D01*
X178587874Y-148285988D02*
X178587874Y-146285988D01*
X178587874Y-147047892D02*
X178711684Y-146952654D01*
X178711684Y-146952654D02*
X178959303Y-146952654D01*
X178959303Y-146952654D02*
X179083112Y-147047892D01*
X179083112Y-147047892D02*
X179145017Y-147143130D01*
X179145017Y-147143130D02*
X179206922Y-147333607D01*
X179206922Y-147333607D02*
X179206922Y-147905035D01*
X179206922Y-147905035D02*
X179145017Y-148095511D01*
X179145017Y-148095511D02*
X179083112Y-148190750D01*
X179083112Y-148190750D02*
X178959303Y-148285988D01*
X178959303Y-148285988D02*
X178711684Y-148285988D01*
X178711684Y-148285988D02*
X178587874Y-148190750D01*
X179949779Y-148285988D02*
X179825969Y-148190750D01*
X179825969Y-148190750D02*
X179764064Y-148095511D01*
X179764064Y-148095511D02*
X179702160Y-147905035D01*
X179702160Y-147905035D02*
X179702160Y-147333607D01*
X179702160Y-147333607D02*
X179764064Y-147143130D01*
X179764064Y-147143130D02*
X179825969Y-147047892D01*
X179825969Y-147047892D02*
X179949779Y-146952654D01*
X179949779Y-146952654D02*
X180135493Y-146952654D01*
X180135493Y-146952654D02*
X180259302Y-147047892D01*
X180259302Y-147047892D02*
X180321207Y-147143130D01*
X180321207Y-147143130D02*
X180383112Y-147333607D01*
X180383112Y-147333607D02*
X180383112Y-147905035D01*
X180383112Y-147905035D02*
X180321207Y-148095511D01*
X180321207Y-148095511D02*
X180259302Y-148190750D01*
X180259302Y-148190750D02*
X180135493Y-148285988D01*
X180135493Y-148285988D02*
X179949779Y-148285988D01*
X180940254Y-148285988D02*
X180940254Y-146285988D01*
X181064064Y-147524083D02*
X181435492Y-148285988D01*
X181435492Y-146952654D02*
X180940254Y-147714559D01*
X181992635Y-148285988D02*
X181992635Y-146952654D01*
X181992635Y-146285988D02*
X181930731Y-146381226D01*
X181930731Y-146381226D02*
X181992635Y-146476464D01*
X181992635Y-146476464D02*
X182054540Y-146381226D01*
X182054540Y-146381226D02*
X181992635Y-146285988D01*
X181992635Y-146285988D02*
X181992635Y-146476464D01*
X182425969Y-146952654D02*
X182921207Y-146952654D01*
X182611683Y-146285988D02*
X182611683Y-148000273D01*
X182611683Y-148000273D02*
X182673588Y-148190750D01*
X182673588Y-148190750D02*
X182797398Y-148285988D01*
X182797398Y-148285988D02*
X182921207Y-148285988D01*
D11*
X80678850Y-73282142D02*
X78678850Y-73282142D01*
X78678850Y-73282142D02*
X78678850Y-72972618D01*
X78678850Y-72972618D02*
X78774088Y-72786904D01*
X78774088Y-72786904D02*
X78964564Y-72663094D01*
X78964564Y-72663094D02*
X79155040Y-72601189D01*
X79155040Y-72601189D02*
X79535992Y-72539285D01*
X79535992Y-72539285D02*
X79821707Y-72539285D01*
X79821707Y-72539285D02*
X80202659Y-72601189D01*
X80202659Y-72601189D02*
X80393135Y-72663094D01*
X80393135Y-72663094D02*
X80583612Y-72786904D01*
X80583612Y-72786904D02*
X80678850Y-72972618D01*
X80678850Y-72972618D02*
X80678850Y-73282142D01*
X80678850Y-71424999D02*
X79631231Y-71424999D01*
X79631231Y-71424999D02*
X79440754Y-71486904D01*
X79440754Y-71486904D02*
X79345516Y-71610713D01*
X79345516Y-71610713D02*
X79345516Y-71858332D01*
X79345516Y-71858332D02*
X79440754Y-71982142D01*
X80583612Y-71424999D02*
X80678850Y-71548808D01*
X80678850Y-71548808D02*
X80678850Y-71858332D01*
X80678850Y-71858332D02*
X80583612Y-71982142D01*
X80583612Y-71982142D02*
X80393135Y-72044046D01*
X80393135Y-72044046D02*
X80202659Y-72044046D01*
X80202659Y-72044046D02*
X80012183Y-71982142D01*
X80012183Y-71982142D02*
X79916945Y-71858332D01*
X79916945Y-71858332D02*
X79916945Y-71548808D01*
X79916945Y-71548808D02*
X79821707Y-71424999D01*
X79345516Y-70929761D02*
X80678850Y-70620237D01*
X80678850Y-70620237D02*
X79345516Y-70310714D01*
X80678850Y-69815476D02*
X79345516Y-69815476D01*
X78678850Y-69815476D02*
X78774088Y-69877380D01*
X78774088Y-69877380D02*
X78869326Y-69815476D01*
X78869326Y-69815476D02*
X78774088Y-69753571D01*
X78774088Y-69753571D02*
X78678850Y-69815476D01*
X78678850Y-69815476D02*
X78869326Y-69815476D01*
X80678850Y-68639285D02*
X78678850Y-68639285D01*
X80583612Y-68639285D02*
X80678850Y-68763094D01*
X80678850Y-68763094D02*
X80678850Y-69010713D01*
X80678850Y-69010713D02*
X80583612Y-69134523D01*
X80583612Y-69134523D02*
X80488373Y-69196428D01*
X80488373Y-69196428D02*
X80297897Y-69258332D01*
X80297897Y-69258332D02*
X79726469Y-69258332D01*
X79726469Y-69258332D02*
X79535992Y-69196428D01*
X79535992Y-69196428D02*
X79440754Y-69134523D01*
X79440754Y-69134523D02*
X79345516Y-69010713D01*
X79345516Y-69010713D02*
X79345516Y-68763094D01*
X79345516Y-68763094D02*
X79440754Y-68639285D01*
X80583612Y-67525000D02*
X80678850Y-67648809D01*
X80678850Y-67648809D02*
X80678850Y-67896428D01*
X80678850Y-67896428D02*
X80583612Y-68020238D01*
X80583612Y-68020238D02*
X80393135Y-68082142D01*
X80393135Y-68082142D02*
X79631231Y-68082142D01*
X79631231Y-68082142D02*
X79440754Y-68020238D01*
X79440754Y-68020238D02*
X79345516Y-67896428D01*
X79345516Y-67896428D02*
X79345516Y-67648809D01*
X79345516Y-67648809D02*
X79440754Y-67525000D01*
X79440754Y-67525000D02*
X79631231Y-67463095D01*
X79631231Y-67463095D02*
X79821707Y-67463095D01*
X79821707Y-67463095D02*
X80012183Y-68082142D01*
X79631231Y-65482142D02*
X79726469Y-65296428D01*
X79726469Y-65296428D02*
X79821707Y-65234523D01*
X79821707Y-65234523D02*
X80012183Y-65172619D01*
X80012183Y-65172619D02*
X80297897Y-65172619D01*
X80297897Y-65172619D02*
X80488373Y-65234523D01*
X80488373Y-65234523D02*
X80583612Y-65296428D01*
X80583612Y-65296428D02*
X80678850Y-65420238D01*
X80678850Y-65420238D02*
X80678850Y-65915476D01*
X80678850Y-65915476D02*
X78678850Y-65915476D01*
X78678850Y-65915476D02*
X78678850Y-65482142D01*
X78678850Y-65482142D02*
X78774088Y-65358333D01*
X78774088Y-65358333D02*
X78869326Y-65296428D01*
X78869326Y-65296428D02*
X79059802Y-65234523D01*
X79059802Y-65234523D02*
X79250278Y-65234523D01*
X79250278Y-65234523D02*
X79440754Y-65296428D01*
X79440754Y-65296428D02*
X79535992Y-65358333D01*
X79535992Y-65358333D02*
X79631231Y-65482142D01*
X79631231Y-65482142D02*
X79631231Y-65915476D01*
X79345516Y-64058333D02*
X80678850Y-64058333D01*
X79345516Y-64615476D02*
X80393135Y-64615476D01*
X80393135Y-64615476D02*
X80583612Y-64553571D01*
X80583612Y-64553571D02*
X80678850Y-64429761D01*
X80678850Y-64429761D02*
X80678850Y-64244047D01*
X80678850Y-64244047D02*
X80583612Y-64120238D01*
X80583612Y-64120238D02*
X80488373Y-64058333D01*
X80583612Y-62882143D02*
X80678850Y-63005952D01*
X80678850Y-63005952D02*
X80678850Y-63253571D01*
X80678850Y-63253571D02*
X80583612Y-63377381D01*
X80583612Y-63377381D02*
X80488373Y-63439286D01*
X80488373Y-63439286D02*
X80297897Y-63501190D01*
X80297897Y-63501190D02*
X79726469Y-63501190D01*
X79726469Y-63501190D02*
X79535992Y-63439286D01*
X79535992Y-63439286D02*
X79440754Y-63377381D01*
X79440754Y-63377381D02*
X79345516Y-63253571D01*
X79345516Y-63253571D02*
X79345516Y-63005952D01*
X79345516Y-63005952D02*
X79440754Y-62882143D01*
X80583612Y-61767857D02*
X80678850Y-61891666D01*
X80678850Y-61891666D02*
X80678850Y-62139285D01*
X80678850Y-62139285D02*
X80583612Y-62263095D01*
X80583612Y-62263095D02*
X80488373Y-62325000D01*
X80488373Y-62325000D02*
X80297897Y-62386904D01*
X80297897Y-62386904D02*
X79726469Y-62386904D01*
X79726469Y-62386904D02*
X79535992Y-62325000D01*
X79535992Y-62325000D02*
X79440754Y-62263095D01*
X79440754Y-62263095D02*
X79345516Y-62139285D01*
X79345516Y-62139285D02*
X79345516Y-61891666D01*
X79345516Y-61891666D02*
X79440754Y-61767857D01*
X80678850Y-61210714D02*
X79345516Y-61210714D01*
X78678850Y-61210714D02*
X78774088Y-61272618D01*
X78774088Y-61272618D02*
X78869326Y-61210714D01*
X78869326Y-61210714D02*
X78774088Y-61148809D01*
X78774088Y-61148809D02*
X78678850Y-61210714D01*
X78678850Y-61210714D02*
X78869326Y-61210714D01*
X78869326Y-59663094D02*
X78774088Y-59601190D01*
X78774088Y-59601190D02*
X78678850Y-59477380D01*
X78678850Y-59477380D02*
X78678850Y-59167856D01*
X78678850Y-59167856D02*
X78774088Y-59044047D01*
X78774088Y-59044047D02*
X78869326Y-58982142D01*
X78869326Y-58982142D02*
X79059802Y-58920237D01*
X79059802Y-58920237D02*
X79250278Y-58920237D01*
X79250278Y-58920237D02*
X79535992Y-58982142D01*
X79535992Y-58982142D02*
X80678850Y-59724999D01*
X80678850Y-59724999D02*
X80678850Y-58920237D01*
X78678850Y-58115476D02*
X78678850Y-57991666D01*
X78678850Y-57991666D02*
X78774088Y-57867857D01*
X78774088Y-57867857D02*
X78869326Y-57805952D01*
X78869326Y-57805952D02*
X79059802Y-57744047D01*
X79059802Y-57744047D02*
X79440754Y-57682142D01*
X79440754Y-57682142D02*
X79916945Y-57682142D01*
X79916945Y-57682142D02*
X80297897Y-57744047D01*
X80297897Y-57744047D02*
X80488373Y-57805952D01*
X80488373Y-57805952D02*
X80583612Y-57867857D01*
X80583612Y-57867857D02*
X80678850Y-57991666D01*
X80678850Y-57991666D02*
X80678850Y-58115476D01*
X80678850Y-58115476D02*
X80583612Y-58239285D01*
X80583612Y-58239285D02*
X80488373Y-58301190D01*
X80488373Y-58301190D02*
X80297897Y-58363095D01*
X80297897Y-58363095D02*
X79916945Y-58424999D01*
X79916945Y-58424999D02*
X79440754Y-58424999D01*
X79440754Y-58424999D02*
X79059802Y-58363095D01*
X79059802Y-58363095D02*
X78869326Y-58301190D01*
X78869326Y-58301190D02*
X78774088Y-58239285D01*
X78774088Y-58239285D02*
X78678850Y-58115476D01*
X78869326Y-57186904D02*
X78774088Y-57125000D01*
X78774088Y-57125000D02*
X78678850Y-57001190D01*
X78678850Y-57001190D02*
X78678850Y-56691666D01*
X78678850Y-56691666D02*
X78774088Y-56567857D01*
X78774088Y-56567857D02*
X78869326Y-56505952D01*
X78869326Y-56505952D02*
X79059802Y-56444047D01*
X79059802Y-56444047D02*
X79250278Y-56444047D01*
X79250278Y-56444047D02*
X79535992Y-56505952D01*
X79535992Y-56505952D02*
X80678850Y-57248809D01*
X80678850Y-57248809D02*
X80678850Y-56444047D01*
X78678850Y-55329762D02*
X78678850Y-55577381D01*
X78678850Y-55577381D02*
X78774088Y-55701190D01*
X78774088Y-55701190D02*
X78869326Y-55763095D01*
X78869326Y-55763095D02*
X79155040Y-55886905D01*
X79155040Y-55886905D02*
X79535992Y-55948809D01*
X79535992Y-55948809D02*
X80297897Y-55948809D01*
X80297897Y-55948809D02*
X80488373Y-55886905D01*
X80488373Y-55886905D02*
X80583612Y-55825000D01*
X80583612Y-55825000D02*
X80678850Y-55701190D01*
X80678850Y-55701190D02*
X80678850Y-55453571D01*
X80678850Y-55453571D02*
X80583612Y-55329762D01*
X80583612Y-55329762D02*
X80488373Y-55267857D01*
X80488373Y-55267857D02*
X80297897Y-55205952D01*
X80297897Y-55205952D02*
X79821707Y-55205952D01*
X79821707Y-55205952D02*
X79631231Y-55267857D01*
X79631231Y-55267857D02*
X79535992Y-55329762D01*
X79535992Y-55329762D02*
X79440754Y-55453571D01*
X79440754Y-55453571D02*
X79440754Y-55701190D01*
X79440754Y-55701190D02*
X79535992Y-55825000D01*
X79535992Y-55825000D02*
X79631231Y-55886905D01*
X79631231Y-55886905D02*
X79821707Y-55948809D01*
X81993976Y-80555950D02*
X81898738Y-80679760D01*
X81898738Y-80679760D02*
X81898738Y-80865474D01*
X81898738Y-80865474D02*
X81993976Y-81051188D01*
X81993976Y-81051188D02*
X82184452Y-81174998D01*
X82184452Y-81174998D02*
X82374928Y-81236903D01*
X82374928Y-81236903D02*
X82755880Y-81298807D01*
X82755880Y-81298807D02*
X83041595Y-81298807D01*
X83041595Y-81298807D02*
X83422547Y-81236903D01*
X83422547Y-81236903D02*
X83613023Y-81174998D01*
X83613023Y-81174998D02*
X83803500Y-81051188D01*
X83803500Y-81051188D02*
X83898738Y-80865474D01*
X83898738Y-80865474D02*
X83898738Y-80741665D01*
X83898738Y-80741665D02*
X83803500Y-80555950D01*
X83803500Y-80555950D02*
X83708261Y-80494046D01*
X83708261Y-80494046D02*
X83041595Y-80494046D01*
X83041595Y-80494046D02*
X83041595Y-80741665D01*
X83803500Y-79441665D02*
X83898738Y-79565474D01*
X83898738Y-79565474D02*
X83898738Y-79813093D01*
X83898738Y-79813093D02*
X83803500Y-79936903D01*
X83803500Y-79936903D02*
X83613023Y-79998807D01*
X83613023Y-79998807D02*
X82851119Y-79998807D01*
X82851119Y-79998807D02*
X82660642Y-79936903D01*
X82660642Y-79936903D02*
X82565404Y-79813093D01*
X82565404Y-79813093D02*
X82565404Y-79565474D01*
X82565404Y-79565474D02*
X82660642Y-79441665D01*
X82660642Y-79441665D02*
X82851119Y-79379760D01*
X82851119Y-79379760D02*
X83041595Y-79379760D01*
X83041595Y-79379760D02*
X83232071Y-79998807D01*
X83898738Y-78822617D02*
X82565404Y-78822617D01*
X82755880Y-78822617D02*
X82660642Y-78760712D01*
X82660642Y-78760712D02*
X82565404Y-78636902D01*
X82565404Y-78636902D02*
X82565404Y-78451188D01*
X82565404Y-78451188D02*
X82660642Y-78327379D01*
X82660642Y-78327379D02*
X82851119Y-78265474D01*
X82851119Y-78265474D02*
X83898738Y-78265474D01*
X82851119Y-78265474D02*
X82660642Y-78203569D01*
X82660642Y-78203569D02*
X82565404Y-78079760D01*
X82565404Y-78079760D02*
X82565404Y-77894045D01*
X82565404Y-77894045D02*
X82660642Y-77770236D01*
X82660642Y-77770236D02*
X82851119Y-77708331D01*
X82851119Y-77708331D02*
X83898738Y-77708331D01*
X83803500Y-76160712D02*
X83898738Y-75974998D01*
X83898738Y-75974998D02*
X83898738Y-75665474D01*
X83898738Y-75665474D02*
X83803500Y-75541665D01*
X83803500Y-75541665D02*
X83708261Y-75479760D01*
X83708261Y-75479760D02*
X83517785Y-75417855D01*
X83517785Y-75417855D02*
X83327309Y-75417855D01*
X83327309Y-75417855D02*
X83136833Y-75479760D01*
X83136833Y-75479760D02*
X83041595Y-75541665D01*
X83041595Y-75541665D02*
X82946357Y-75665474D01*
X82946357Y-75665474D02*
X82851119Y-75913093D01*
X82851119Y-75913093D02*
X82755880Y-76036903D01*
X82755880Y-76036903D02*
X82660642Y-76098808D01*
X82660642Y-76098808D02*
X82470166Y-76160712D01*
X82470166Y-76160712D02*
X82279690Y-76160712D01*
X82279690Y-76160712D02*
X82089214Y-76098808D01*
X82089214Y-76098808D02*
X81993976Y-76036903D01*
X81993976Y-76036903D02*
X81898738Y-75913093D01*
X81898738Y-75913093D02*
X81898738Y-75603570D01*
X81898738Y-75603570D02*
X81993976Y-75417855D01*
X82089214Y-74922617D02*
X81993976Y-74860713D01*
X81993976Y-74860713D02*
X81898738Y-74736903D01*
X81898738Y-74736903D02*
X81898738Y-74427379D01*
X81898738Y-74427379D02*
X81993976Y-74303570D01*
X81993976Y-74303570D02*
X82089214Y-74241665D01*
X82089214Y-74241665D02*
X82279690Y-74179760D01*
X82279690Y-74179760D02*
X82470166Y-74179760D01*
X82470166Y-74179760D02*
X82755880Y-74241665D01*
X82755880Y-74241665D02*
X83898738Y-74984522D01*
X83898738Y-74984522D02*
X83898738Y-74179760D01*
X81803500Y-72694046D02*
X84374928Y-73808332D01*
X83803500Y-72322617D02*
X83898738Y-72136903D01*
X83898738Y-72136903D02*
X83898738Y-71827379D01*
X83898738Y-71827379D02*
X83803500Y-71703570D01*
X83803500Y-71703570D02*
X83708261Y-71641665D01*
X83708261Y-71641665D02*
X83517785Y-71579760D01*
X83517785Y-71579760D02*
X83327309Y-71579760D01*
X83327309Y-71579760D02*
X83136833Y-71641665D01*
X83136833Y-71641665D02*
X83041595Y-71703570D01*
X83041595Y-71703570D02*
X82946357Y-71827379D01*
X82946357Y-71827379D02*
X82851119Y-72074998D01*
X82851119Y-72074998D02*
X82755880Y-72198808D01*
X82755880Y-72198808D02*
X82660642Y-72260713D01*
X82660642Y-72260713D02*
X82470166Y-72322617D01*
X82470166Y-72322617D02*
X82279690Y-72322617D01*
X82279690Y-72322617D02*
X82089214Y-72260713D01*
X82089214Y-72260713D02*
X81993976Y-72198808D01*
X81993976Y-72198808D02*
X81898738Y-72074998D01*
X81898738Y-72074998D02*
X81898738Y-71765475D01*
X81898738Y-71765475D02*
X81993976Y-71579760D01*
X81898738Y-71146427D02*
X81898738Y-70341665D01*
X81898738Y-70341665D02*
X82660642Y-70774999D01*
X82660642Y-70774999D02*
X82660642Y-70589284D01*
X82660642Y-70589284D02*
X82755880Y-70465475D01*
X82755880Y-70465475D02*
X82851119Y-70403570D01*
X82851119Y-70403570D02*
X83041595Y-70341665D01*
X83041595Y-70341665D02*
X83517785Y-70341665D01*
X83517785Y-70341665D02*
X83708261Y-70403570D01*
X83708261Y-70403570D02*
X83803500Y-70465475D01*
X83803500Y-70465475D02*
X83898738Y-70589284D01*
X83898738Y-70589284D02*
X83898738Y-70960713D01*
X83898738Y-70960713D02*
X83803500Y-71084522D01*
X83803500Y-71084522D02*
X83708261Y-71146427D01*
X81898738Y-68979761D02*
X81898738Y-68236904D01*
X83898738Y-68608332D02*
X81898738Y-68608332D01*
X82565404Y-67246428D02*
X83898738Y-67246428D01*
X82565404Y-67803571D02*
X83613023Y-67803571D01*
X83613023Y-67803571D02*
X83803500Y-67741666D01*
X83803500Y-67741666D02*
X83898738Y-67617856D01*
X83898738Y-67617856D02*
X83898738Y-67432142D01*
X83898738Y-67432142D02*
X83803500Y-67308333D01*
X83803500Y-67308333D02*
X83708261Y-67246428D01*
X83898738Y-66627381D02*
X82565404Y-66627381D01*
X82946357Y-66627381D02*
X82755880Y-66565476D01*
X82755880Y-66565476D02*
X82660642Y-66503571D01*
X82660642Y-66503571D02*
X82565404Y-66379762D01*
X82565404Y-66379762D02*
X82565404Y-66255952D01*
X83898738Y-65822619D02*
X81898738Y-65822619D01*
X82660642Y-65822619D02*
X82565404Y-65698809D01*
X82565404Y-65698809D02*
X82565404Y-65451190D01*
X82565404Y-65451190D02*
X82660642Y-65327381D01*
X82660642Y-65327381D02*
X82755880Y-65265476D01*
X82755880Y-65265476D02*
X82946357Y-65203571D01*
X82946357Y-65203571D02*
X83517785Y-65203571D01*
X83517785Y-65203571D02*
X83708261Y-65265476D01*
X83708261Y-65265476D02*
X83803500Y-65327381D01*
X83803500Y-65327381D02*
X83898738Y-65451190D01*
X83898738Y-65451190D02*
X83898738Y-65698809D01*
X83898738Y-65698809D02*
X83803500Y-65822619D01*
X83898738Y-64460714D02*
X83803500Y-64584524D01*
X83803500Y-64584524D02*
X83708261Y-64646429D01*
X83708261Y-64646429D02*
X83517785Y-64708333D01*
X83517785Y-64708333D02*
X82946357Y-64708333D01*
X82946357Y-64708333D02*
X82755880Y-64646429D01*
X82755880Y-64646429D02*
X82660642Y-64584524D01*
X82660642Y-64584524D02*
X82565404Y-64460714D01*
X82565404Y-64460714D02*
X82565404Y-64275000D01*
X82565404Y-64275000D02*
X82660642Y-64151191D01*
X82660642Y-64151191D02*
X82755880Y-64089286D01*
X82755880Y-64089286D02*
X82946357Y-64027381D01*
X82946357Y-64027381D02*
X83517785Y-64027381D01*
X83517785Y-64027381D02*
X83708261Y-64089286D01*
X83708261Y-64089286D02*
X83803500Y-64151191D01*
X83803500Y-64151191D02*
X83898738Y-64275000D01*
X83898738Y-64275000D02*
X83898738Y-64460714D01*
X83898738Y-63470239D02*
X81898738Y-63470239D01*
X83136833Y-63346429D02*
X83898738Y-62975001D01*
X82565404Y-62975001D02*
X83327309Y-63470239D01*
X83898738Y-62417858D02*
X82565404Y-62417858D01*
X81898738Y-62417858D02*
X81993976Y-62479762D01*
X81993976Y-62479762D02*
X82089214Y-62417858D01*
X82089214Y-62417858D02*
X81993976Y-62355953D01*
X81993976Y-62355953D02*
X81898738Y-62417858D01*
X81898738Y-62417858D02*
X82089214Y-62417858D01*
X82565404Y-61984524D02*
X82565404Y-61489286D01*
X81898738Y-61798810D02*
X83613023Y-61798810D01*
X83613023Y-61798810D02*
X83803500Y-61736905D01*
X83803500Y-61736905D02*
X83898738Y-61613095D01*
X83898738Y-61613095D02*
X83898738Y-61489286D01*
X83898738Y-60065477D02*
X82565404Y-60065477D01*
X82946357Y-60065477D02*
X82755880Y-60003572D01*
X82755880Y-60003572D02*
X82660642Y-59941667D01*
X82660642Y-59941667D02*
X82565404Y-59817858D01*
X82565404Y-59817858D02*
X82565404Y-59694048D01*
X83803500Y-58765477D02*
X83898738Y-58889286D01*
X83898738Y-58889286D02*
X83898738Y-59136905D01*
X83898738Y-59136905D02*
X83803500Y-59260715D01*
X83803500Y-59260715D02*
X83613023Y-59322619D01*
X83613023Y-59322619D02*
X82851119Y-59322619D01*
X82851119Y-59322619D02*
X82660642Y-59260715D01*
X82660642Y-59260715D02*
X82565404Y-59136905D01*
X82565404Y-59136905D02*
X82565404Y-58889286D01*
X82565404Y-58889286D02*
X82660642Y-58765477D01*
X82660642Y-58765477D02*
X82851119Y-58703572D01*
X82851119Y-58703572D02*
X83041595Y-58703572D01*
X83041595Y-58703572D02*
X83232071Y-59322619D01*
X82565404Y-58146429D02*
X84565404Y-58146429D01*
X82660642Y-58146429D02*
X82565404Y-58022619D01*
X82565404Y-58022619D02*
X82565404Y-57775000D01*
X82565404Y-57775000D02*
X82660642Y-57651191D01*
X82660642Y-57651191D02*
X82755880Y-57589286D01*
X82755880Y-57589286D02*
X82946357Y-57527381D01*
X82946357Y-57527381D02*
X83517785Y-57527381D01*
X83517785Y-57527381D02*
X83708261Y-57589286D01*
X83708261Y-57589286D02*
X83803500Y-57651191D01*
X83803500Y-57651191D02*
X83898738Y-57775000D01*
X83898738Y-57775000D02*
X83898738Y-58022619D01*
X83898738Y-58022619D02*
X83803500Y-58146429D01*
X83898738Y-56784524D02*
X83803500Y-56908334D01*
X83803500Y-56908334D02*
X83613023Y-56970239D01*
X83613023Y-56970239D02*
X81898738Y-56970239D01*
X83898738Y-56289287D02*
X82565404Y-56289287D01*
X81898738Y-56289287D02*
X81993976Y-56351191D01*
X81993976Y-56351191D02*
X82089214Y-56289287D01*
X82089214Y-56289287D02*
X81993976Y-56227382D01*
X81993976Y-56227382D02*
X81898738Y-56289287D01*
X81898738Y-56289287D02*
X82089214Y-56289287D01*
X83803500Y-55113096D02*
X83898738Y-55236905D01*
X83898738Y-55236905D02*
X83898738Y-55484524D01*
X83898738Y-55484524D02*
X83803500Y-55608334D01*
X83803500Y-55608334D02*
X83708261Y-55670239D01*
X83708261Y-55670239D02*
X83517785Y-55732143D01*
X83517785Y-55732143D02*
X82946357Y-55732143D01*
X82946357Y-55732143D02*
X82755880Y-55670239D01*
X82755880Y-55670239D02*
X82660642Y-55608334D01*
X82660642Y-55608334D02*
X82565404Y-55484524D01*
X82565404Y-55484524D02*
X82565404Y-55236905D01*
X82565404Y-55236905D02*
X82660642Y-55113096D01*
X83898738Y-53998810D02*
X82851119Y-53998810D01*
X82851119Y-53998810D02*
X82660642Y-54060715D01*
X82660642Y-54060715D02*
X82565404Y-54184524D01*
X82565404Y-54184524D02*
X82565404Y-54432143D01*
X82565404Y-54432143D02*
X82660642Y-54555953D01*
X83803500Y-53998810D02*
X83898738Y-54122619D01*
X83898738Y-54122619D02*
X83898738Y-54432143D01*
X83898738Y-54432143D02*
X83803500Y-54555953D01*
X83803500Y-54555953D02*
X83613023Y-54617857D01*
X83613023Y-54617857D02*
X83422547Y-54617857D01*
X83422547Y-54617857D02*
X83232071Y-54555953D01*
X83232071Y-54555953D02*
X83136833Y-54432143D01*
X83136833Y-54432143D02*
X83136833Y-54122619D01*
X83136833Y-54122619D02*
X83041595Y-53998810D01*
X82565404Y-52513096D02*
X83898738Y-52203572D01*
X83898738Y-52203572D02*
X82565404Y-51894049D01*
X83708261Y-51398811D02*
X83803500Y-51336906D01*
X83803500Y-51336906D02*
X83898738Y-51398811D01*
X83898738Y-51398811D02*
X83803500Y-51460715D01*
X83803500Y-51460715D02*
X83708261Y-51398811D01*
X83708261Y-51398811D02*
X83898738Y-51398811D01*
X83898738Y-49108334D02*
X83898738Y-49851191D01*
X83898738Y-49479763D02*
X81898738Y-49479763D01*
X81898738Y-49479763D02*
X82184452Y-49603572D01*
X82184452Y-49603572D02*
X82374928Y-49727382D01*
X82374928Y-49727382D02*
X82470166Y-49851191D01*
X83708261Y-48551192D02*
X83803500Y-48489287D01*
X83803500Y-48489287D02*
X83898738Y-48551192D01*
X83898738Y-48551192D02*
X83803500Y-48613096D01*
X83803500Y-48613096D02*
X83708261Y-48551192D01*
X83708261Y-48551192D02*
X83898738Y-48551192D01*
X81898738Y-47684525D02*
X81898738Y-47560715D01*
X81898738Y-47560715D02*
X81993976Y-47436906D01*
X81993976Y-47436906D02*
X82089214Y-47375001D01*
X82089214Y-47375001D02*
X82279690Y-47313096D01*
X82279690Y-47313096D02*
X82660642Y-47251191D01*
X82660642Y-47251191D02*
X83136833Y-47251191D01*
X83136833Y-47251191D02*
X83517785Y-47313096D01*
X83517785Y-47313096D02*
X83708261Y-47375001D01*
X83708261Y-47375001D02*
X83803500Y-47436906D01*
X83803500Y-47436906D02*
X83898738Y-47560715D01*
X83898738Y-47560715D02*
X83898738Y-47684525D01*
X83898738Y-47684525D02*
X83803500Y-47808334D01*
X83803500Y-47808334D02*
X83708261Y-47870239D01*
X83708261Y-47870239D02*
X83517785Y-47932144D01*
X83517785Y-47932144D02*
X83136833Y-47994048D01*
X83136833Y-47994048D02*
X82660642Y-47994048D01*
X82660642Y-47994048D02*
X82279690Y-47932144D01*
X82279690Y-47932144D02*
X82089214Y-47870239D01*
X82089214Y-47870239D02*
X81993976Y-47808334D01*
X81993976Y-47808334D02*
X81898738Y-47684525D01*
D12*
X192605066Y-45022419D02*
X192605066Y-45736704D01*
X192605066Y-45736704D02*
X192557447Y-45879561D01*
X192557447Y-45879561D02*
X192462209Y-45974800D01*
X192462209Y-45974800D02*
X192319352Y-46022419D01*
X192319352Y-46022419D02*
X192224114Y-46022419D01*
X193509828Y-45355752D02*
X193509828Y-46022419D01*
X193271733Y-44974800D02*
X193033638Y-45689085D01*
X193033638Y-45689085D02*
X193652685Y-45689085D01*
X124386666Y-101311419D02*
X124386666Y-102025704D01*
X124386666Y-102025704D02*
X124339047Y-102168561D01*
X124339047Y-102168561D02*
X124243809Y-102263800D01*
X124243809Y-102263800D02*
X124100952Y-102311419D01*
X124100952Y-102311419D02*
X124005714Y-102311419D01*
X125386666Y-102311419D02*
X124815238Y-102311419D01*
X125100952Y-102311419D02*
X125100952Y-101311419D01*
X125100952Y-101311419D02*
X125005714Y-101454276D01*
X125005714Y-101454276D02*
X124910476Y-101549514D01*
X124910476Y-101549514D02*
X124815238Y-101597133D01*
X75166666Y-78604819D02*
X75166666Y-79319104D01*
X75166666Y-79319104D02*
X75119047Y-79461961D01*
X75119047Y-79461961D02*
X75023809Y-79557200D01*
X75023809Y-79557200D02*
X74880952Y-79604819D01*
X74880952Y-79604819D02*
X74785714Y-79604819D01*
X75547619Y-78604819D02*
X76166666Y-78604819D01*
X76166666Y-78604819D02*
X75833333Y-78985771D01*
X75833333Y-78985771D02*
X75976190Y-78985771D01*
X75976190Y-78985771D02*
X76071428Y-79033390D01*
X76071428Y-79033390D02*
X76119047Y-79081009D01*
X76119047Y-79081009D02*
X76166666Y-79176247D01*
X76166666Y-79176247D02*
X76166666Y-79414342D01*
X76166666Y-79414342D02*
X76119047Y-79509580D01*
X76119047Y-79509580D02*
X76071428Y-79557200D01*
X76071428Y-79557200D02*
X75976190Y-79604819D01*
X75976190Y-79604819D02*
X75690476Y-79604819D01*
X75690476Y-79604819D02*
X75595238Y-79557200D01*
X75595238Y-79557200D02*
X75547619Y-79509580D01*
X159663095Y-114369819D02*
X159663095Y-115179342D01*
X159663095Y-115179342D02*
X159710714Y-115274580D01*
X159710714Y-115274580D02*
X159758333Y-115322200D01*
X159758333Y-115322200D02*
X159853571Y-115369819D01*
X159853571Y-115369819D02*
X160044047Y-115369819D01*
X160044047Y-115369819D02*
X160139285Y-115322200D01*
X160139285Y-115322200D02*
X160186904Y-115274580D01*
X160186904Y-115274580D02*
X160234523Y-115179342D01*
X160234523Y-115179342D02*
X160234523Y-114369819D01*
X160853571Y-114798390D02*
X160758333Y-114750771D01*
X160758333Y-114750771D02*
X160710714Y-114703152D01*
X160710714Y-114703152D02*
X160663095Y-114607914D01*
X160663095Y-114607914D02*
X160663095Y-114560295D01*
X160663095Y-114560295D02*
X160710714Y-114465057D01*
X160710714Y-114465057D02*
X160758333Y-114417438D01*
X160758333Y-114417438D02*
X160853571Y-114369819D01*
X160853571Y-114369819D02*
X161044047Y-114369819D01*
X161044047Y-114369819D02*
X161139285Y-114417438D01*
X161139285Y-114417438D02*
X161186904Y-114465057D01*
X161186904Y-114465057D02*
X161234523Y-114560295D01*
X161234523Y-114560295D02*
X161234523Y-114607914D01*
X161234523Y-114607914D02*
X161186904Y-114703152D01*
X161186904Y-114703152D02*
X161139285Y-114750771D01*
X161139285Y-114750771D02*
X161044047Y-114798390D01*
X161044047Y-114798390D02*
X160853571Y-114798390D01*
X160853571Y-114798390D02*
X160758333Y-114846009D01*
X160758333Y-114846009D02*
X160710714Y-114893628D01*
X160710714Y-114893628D02*
X160663095Y-114988866D01*
X160663095Y-114988866D02*
X160663095Y-115179342D01*
X160663095Y-115179342D02*
X160710714Y-115274580D01*
X160710714Y-115274580D02*
X160758333Y-115322200D01*
X160758333Y-115322200D02*
X160853571Y-115369819D01*
X160853571Y-115369819D02*
X161044047Y-115369819D01*
X161044047Y-115369819D02*
X161139285Y-115322200D01*
X161139285Y-115322200D02*
X161186904Y-115274580D01*
X161186904Y-115274580D02*
X161234523Y-115179342D01*
X161234523Y-115179342D02*
X161234523Y-114988866D01*
X161234523Y-114988866D02*
X161186904Y-114893628D01*
X161186904Y-114893628D02*
X161139285Y-114846009D01*
X161139285Y-114846009D02*
X161044047Y-114798390D01*
X94357142Y-93559580D02*
X94309523Y-93607200D01*
X94309523Y-93607200D02*
X94166666Y-93654819D01*
X94166666Y-93654819D02*
X94071428Y-93654819D01*
X94071428Y-93654819D02*
X93928571Y-93607200D01*
X93928571Y-93607200D02*
X93833333Y-93511961D01*
X93833333Y-93511961D02*
X93785714Y-93416723D01*
X93785714Y-93416723D02*
X93738095Y-93226247D01*
X93738095Y-93226247D02*
X93738095Y-93083390D01*
X93738095Y-93083390D02*
X93785714Y-92892914D01*
X93785714Y-92892914D02*
X93833333Y-92797676D01*
X93833333Y-92797676D02*
X93928571Y-92702438D01*
X93928571Y-92702438D02*
X94071428Y-92654819D01*
X94071428Y-92654819D02*
X94166666Y-92654819D01*
X94166666Y-92654819D02*
X94309523Y-92702438D01*
X94309523Y-92702438D02*
X94357142Y-92750057D01*
X95309523Y-93654819D02*
X94738095Y-93654819D01*
X95023809Y-93654819D02*
X95023809Y-92654819D01*
X95023809Y-92654819D02*
X94928571Y-92797676D01*
X94928571Y-92797676D02*
X94833333Y-92892914D01*
X94833333Y-92892914D02*
X94738095Y-92940533D01*
X95785714Y-93654819D02*
X95976190Y-93654819D01*
X95976190Y-93654819D02*
X96071428Y-93607200D01*
X96071428Y-93607200D02*
X96119047Y-93559580D01*
X96119047Y-93559580D02*
X96214285Y-93416723D01*
X96214285Y-93416723D02*
X96261904Y-93226247D01*
X96261904Y-93226247D02*
X96261904Y-92845295D01*
X96261904Y-92845295D02*
X96214285Y-92750057D01*
X96214285Y-92750057D02*
X96166666Y-92702438D01*
X96166666Y-92702438D02*
X96071428Y-92654819D01*
X96071428Y-92654819D02*
X95880952Y-92654819D01*
X95880952Y-92654819D02*
X95785714Y-92702438D01*
X95785714Y-92702438D02*
X95738095Y-92750057D01*
X95738095Y-92750057D02*
X95690476Y-92845295D01*
X95690476Y-92845295D02*
X95690476Y-93083390D01*
X95690476Y-93083390D02*
X95738095Y-93178628D01*
X95738095Y-93178628D02*
X95785714Y-93226247D01*
X95785714Y-93226247D02*
X95880952Y-93273866D01*
X95880952Y-93273866D02*
X96071428Y-93273866D01*
X96071428Y-93273866D02*
X96166666Y-93226247D01*
X96166666Y-93226247D02*
X96214285Y-93178628D01*
X96214285Y-93178628D02*
X96261904Y-93083390D01*
X105842261Y-86320057D02*
X105747023Y-86272438D01*
X105747023Y-86272438D02*
X105651785Y-86177200D01*
X105651785Y-86177200D02*
X105508928Y-86034342D01*
X105508928Y-86034342D02*
X105413690Y-85986723D01*
X105413690Y-85986723D02*
X105318452Y-85986723D01*
X105366071Y-86224819D02*
X105270833Y-86177200D01*
X105270833Y-86177200D02*
X105175595Y-86081961D01*
X105175595Y-86081961D02*
X105127976Y-85891485D01*
X105127976Y-85891485D02*
X105127976Y-85558152D01*
X105127976Y-85558152D02*
X105175595Y-85367676D01*
X105175595Y-85367676D02*
X105270833Y-85272438D01*
X105270833Y-85272438D02*
X105366071Y-85224819D01*
X105366071Y-85224819D02*
X105556547Y-85224819D01*
X105556547Y-85224819D02*
X105651785Y-85272438D01*
X105651785Y-85272438D02*
X105747023Y-85367676D01*
X105747023Y-85367676D02*
X105794642Y-85558152D01*
X105794642Y-85558152D02*
X105794642Y-85891485D01*
X105794642Y-85891485D02*
X105747023Y-86081961D01*
X105747023Y-86081961D02*
X105651785Y-86177200D01*
X105651785Y-86177200D02*
X105556547Y-86224819D01*
X105556547Y-86224819D02*
X105366071Y-86224819D01*
X106175595Y-85320057D02*
X106223214Y-85272438D01*
X106223214Y-85272438D02*
X106318452Y-85224819D01*
X106318452Y-85224819D02*
X106556547Y-85224819D01*
X106556547Y-85224819D02*
X106651785Y-85272438D01*
X106651785Y-85272438D02*
X106699404Y-85320057D01*
X106699404Y-85320057D02*
X106747023Y-85415295D01*
X106747023Y-85415295D02*
X106747023Y-85510533D01*
X106747023Y-85510533D02*
X106699404Y-85653390D01*
X106699404Y-85653390D02*
X106127976Y-86224819D01*
X106127976Y-86224819D02*
X106747023Y-86224819D01*
X190033333Y-43559580D02*
X189985714Y-43607200D01*
X189985714Y-43607200D02*
X189842857Y-43654819D01*
X189842857Y-43654819D02*
X189747619Y-43654819D01*
X189747619Y-43654819D02*
X189604762Y-43607200D01*
X189604762Y-43607200D02*
X189509524Y-43511961D01*
X189509524Y-43511961D02*
X189461905Y-43416723D01*
X189461905Y-43416723D02*
X189414286Y-43226247D01*
X189414286Y-43226247D02*
X189414286Y-43083390D01*
X189414286Y-43083390D02*
X189461905Y-42892914D01*
X189461905Y-42892914D02*
X189509524Y-42797676D01*
X189509524Y-42797676D02*
X189604762Y-42702438D01*
X189604762Y-42702438D02*
X189747619Y-42654819D01*
X189747619Y-42654819D02*
X189842857Y-42654819D01*
X189842857Y-42654819D02*
X189985714Y-42702438D01*
X189985714Y-42702438D02*
X190033333Y-42750057D01*
X190604762Y-43083390D02*
X190509524Y-43035771D01*
X190509524Y-43035771D02*
X190461905Y-42988152D01*
X190461905Y-42988152D02*
X190414286Y-42892914D01*
X190414286Y-42892914D02*
X190414286Y-42845295D01*
X190414286Y-42845295D02*
X190461905Y-42750057D01*
X190461905Y-42750057D02*
X190509524Y-42702438D01*
X190509524Y-42702438D02*
X190604762Y-42654819D01*
X190604762Y-42654819D02*
X190795238Y-42654819D01*
X190795238Y-42654819D02*
X190890476Y-42702438D01*
X190890476Y-42702438D02*
X190938095Y-42750057D01*
X190938095Y-42750057D02*
X190985714Y-42845295D01*
X190985714Y-42845295D02*
X190985714Y-42892914D01*
X190985714Y-42892914D02*
X190938095Y-42988152D01*
X190938095Y-42988152D02*
X190890476Y-43035771D01*
X190890476Y-43035771D02*
X190795238Y-43083390D01*
X190795238Y-43083390D02*
X190604762Y-43083390D01*
X190604762Y-43083390D02*
X190509524Y-43131009D01*
X190509524Y-43131009D02*
X190461905Y-43178628D01*
X190461905Y-43178628D02*
X190414286Y-43273866D01*
X190414286Y-43273866D02*
X190414286Y-43464342D01*
X190414286Y-43464342D02*
X190461905Y-43559580D01*
X190461905Y-43559580D02*
X190509524Y-43607200D01*
X190509524Y-43607200D02*
X190604762Y-43654819D01*
X190604762Y-43654819D02*
X190795238Y-43654819D01*
X190795238Y-43654819D02*
X190890476Y-43607200D01*
X190890476Y-43607200D02*
X190938095Y-43559580D01*
X190938095Y-43559580D02*
X190985714Y-43464342D01*
X190985714Y-43464342D02*
X190985714Y-43273866D01*
X190985714Y-43273866D02*
X190938095Y-43178628D01*
X190938095Y-43178628D02*
X190890476Y-43131009D01*
X190890476Y-43131009D02*
X190795238Y-43083390D01*
X178238095Y-114454819D02*
X178238095Y-115264342D01*
X178238095Y-115264342D02*
X178285714Y-115359580D01*
X178285714Y-115359580D02*
X178333333Y-115407200D01*
X178333333Y-115407200D02*
X178428571Y-115454819D01*
X178428571Y-115454819D02*
X178619047Y-115454819D01*
X178619047Y-115454819D02*
X178714285Y-115407200D01*
X178714285Y-115407200D02*
X178761904Y-115359580D01*
X178761904Y-115359580D02*
X178809523Y-115264342D01*
X178809523Y-115264342D02*
X178809523Y-114454819D01*
X179190476Y-114454819D02*
X179857142Y-114454819D01*
X179857142Y-114454819D02*
X179428571Y-115454819D01*
X115378095Y-41544819D02*
X115378095Y-42354342D01*
X115378095Y-42354342D02*
X115425714Y-42449580D01*
X115425714Y-42449580D02*
X115473333Y-42497200D01*
X115473333Y-42497200D02*
X115568571Y-42544819D01*
X115568571Y-42544819D02*
X115759047Y-42544819D01*
X115759047Y-42544819D02*
X115854285Y-42497200D01*
X115854285Y-42497200D02*
X115901904Y-42449580D01*
X115901904Y-42449580D02*
X115949523Y-42354342D01*
X115949523Y-42354342D02*
X115949523Y-41544819D01*
X116330476Y-41544819D02*
X116949523Y-41544819D01*
X116949523Y-41544819D02*
X116616190Y-41925771D01*
X116616190Y-41925771D02*
X116759047Y-41925771D01*
X116759047Y-41925771D02*
X116854285Y-41973390D01*
X116854285Y-41973390D02*
X116901904Y-42021009D01*
X116901904Y-42021009D02*
X116949523Y-42116247D01*
X116949523Y-42116247D02*
X116949523Y-42354342D01*
X116949523Y-42354342D02*
X116901904Y-42449580D01*
X116901904Y-42449580D02*
X116854285Y-42497200D01*
X116854285Y-42497200D02*
X116759047Y-42544819D01*
X116759047Y-42544819D02*
X116473333Y-42544819D01*
X116473333Y-42544819D02*
X116378095Y-42497200D01*
X116378095Y-42497200D02*
X116330476Y-42449580D01*
X166157142Y-87759580D02*
X166109523Y-87807200D01*
X166109523Y-87807200D02*
X165966666Y-87854819D01*
X165966666Y-87854819D02*
X165871428Y-87854819D01*
X165871428Y-87854819D02*
X165728571Y-87807200D01*
X165728571Y-87807200D02*
X165633333Y-87711961D01*
X165633333Y-87711961D02*
X165585714Y-87616723D01*
X165585714Y-87616723D02*
X165538095Y-87426247D01*
X165538095Y-87426247D02*
X165538095Y-87283390D01*
X165538095Y-87283390D02*
X165585714Y-87092914D01*
X165585714Y-87092914D02*
X165633333Y-86997676D01*
X165633333Y-86997676D02*
X165728571Y-86902438D01*
X165728571Y-86902438D02*
X165871428Y-86854819D01*
X165871428Y-86854819D02*
X165966666Y-86854819D01*
X165966666Y-86854819D02*
X166109523Y-86902438D01*
X166109523Y-86902438D02*
X166157142Y-86950057D01*
X167109523Y-87854819D02*
X166538095Y-87854819D01*
X166823809Y-87854819D02*
X166823809Y-86854819D01*
X166823809Y-86854819D02*
X166728571Y-86997676D01*
X166728571Y-86997676D02*
X166633333Y-87092914D01*
X166633333Y-87092914D02*
X166538095Y-87140533D01*
X167490476Y-86950057D02*
X167538095Y-86902438D01*
X167538095Y-86902438D02*
X167633333Y-86854819D01*
X167633333Y-86854819D02*
X167871428Y-86854819D01*
X167871428Y-86854819D02*
X167966666Y-86902438D01*
X167966666Y-86902438D02*
X168014285Y-86950057D01*
X168014285Y-86950057D02*
X168061904Y-87045295D01*
X168061904Y-87045295D02*
X168061904Y-87140533D01*
X168061904Y-87140533D02*
X168014285Y-87283390D01*
X168014285Y-87283390D02*
X167442857Y-87854819D01*
X167442857Y-87854819D02*
X168061904Y-87854819D01*
X145659523Y-117704819D02*
X145326190Y-117228628D01*
X145088095Y-117704819D02*
X145088095Y-116704819D01*
X145088095Y-116704819D02*
X145469047Y-116704819D01*
X145469047Y-116704819D02*
X145564285Y-116752438D01*
X145564285Y-116752438D02*
X145611904Y-116800057D01*
X145611904Y-116800057D02*
X145659523Y-116895295D01*
X145659523Y-116895295D02*
X145659523Y-117038152D01*
X145659523Y-117038152D02*
X145611904Y-117133390D01*
X145611904Y-117133390D02*
X145564285Y-117181009D01*
X145564285Y-117181009D02*
X145469047Y-117228628D01*
X145469047Y-117228628D02*
X145088095Y-117228628D01*
X146088095Y-117704819D02*
X146088095Y-116704819D01*
X146088095Y-116704819D02*
X146659523Y-117704819D01*
X146659523Y-117704819D02*
X146659523Y-116704819D01*
X147564285Y-117038152D02*
X147564285Y-117704819D01*
X147326190Y-116657200D02*
X147088095Y-117371485D01*
X147088095Y-117371485D02*
X147707142Y-117371485D01*
X180233333Y-56454819D02*
X179900000Y-55978628D01*
X179661905Y-56454819D02*
X179661905Y-55454819D01*
X179661905Y-55454819D02*
X180042857Y-55454819D01*
X180042857Y-55454819D02*
X180138095Y-55502438D01*
X180138095Y-55502438D02*
X180185714Y-55550057D01*
X180185714Y-55550057D02*
X180233333Y-55645295D01*
X180233333Y-55645295D02*
X180233333Y-55788152D01*
X180233333Y-55788152D02*
X180185714Y-55883390D01*
X180185714Y-55883390D02*
X180138095Y-55931009D01*
X180138095Y-55931009D02*
X180042857Y-55978628D01*
X180042857Y-55978628D02*
X179661905Y-55978628D01*
X181090476Y-55454819D02*
X180900000Y-55454819D01*
X180900000Y-55454819D02*
X180804762Y-55502438D01*
X180804762Y-55502438D02*
X180757143Y-55550057D01*
X180757143Y-55550057D02*
X180661905Y-55692914D01*
X180661905Y-55692914D02*
X180614286Y-55883390D01*
X180614286Y-55883390D02*
X180614286Y-56264342D01*
X180614286Y-56264342D02*
X180661905Y-56359580D01*
X180661905Y-56359580D02*
X180709524Y-56407200D01*
X180709524Y-56407200D02*
X180804762Y-56454819D01*
X180804762Y-56454819D02*
X180995238Y-56454819D01*
X180995238Y-56454819D02*
X181090476Y-56407200D01*
X181090476Y-56407200D02*
X181138095Y-56359580D01*
X181138095Y-56359580D02*
X181185714Y-56264342D01*
X181185714Y-56264342D02*
X181185714Y-56026247D01*
X181185714Y-56026247D02*
X181138095Y-55931009D01*
X181138095Y-55931009D02*
X181090476Y-55883390D01*
X181090476Y-55883390D02*
X180995238Y-55835771D01*
X180995238Y-55835771D02*
X180804762Y-55835771D01*
X180804762Y-55835771D02*
X180709524Y-55883390D01*
X180709524Y-55883390D02*
X180661905Y-55931009D01*
X180661905Y-55931009D02*
X180614286Y-56026247D01*
X184033333Y-55929819D02*
X183700000Y-55453628D01*
X183461905Y-55929819D02*
X183461905Y-54929819D01*
X183461905Y-54929819D02*
X183842857Y-54929819D01*
X183842857Y-54929819D02*
X183938095Y-54977438D01*
X183938095Y-54977438D02*
X183985714Y-55025057D01*
X183985714Y-55025057D02*
X184033333Y-55120295D01*
X184033333Y-55120295D02*
X184033333Y-55263152D01*
X184033333Y-55263152D02*
X183985714Y-55358390D01*
X183985714Y-55358390D02*
X183938095Y-55406009D01*
X183938095Y-55406009D02*
X183842857Y-55453628D01*
X183842857Y-55453628D02*
X183461905Y-55453628D01*
X184890476Y-55263152D02*
X184890476Y-55929819D01*
X184652381Y-54882200D02*
X184414286Y-55596485D01*
X184414286Y-55596485D02*
X185033333Y-55596485D01*
X162628342Y-114409580D02*
X162580723Y-114457200D01*
X162580723Y-114457200D02*
X162437866Y-114504819D01*
X162437866Y-114504819D02*
X162342628Y-114504819D01*
X162342628Y-114504819D02*
X162199771Y-114457200D01*
X162199771Y-114457200D02*
X162104533Y-114361961D01*
X162104533Y-114361961D02*
X162056914Y-114266723D01*
X162056914Y-114266723D02*
X162009295Y-114076247D01*
X162009295Y-114076247D02*
X162009295Y-113933390D01*
X162009295Y-113933390D02*
X162056914Y-113742914D01*
X162056914Y-113742914D02*
X162104533Y-113647676D01*
X162104533Y-113647676D02*
X162199771Y-113552438D01*
X162199771Y-113552438D02*
X162342628Y-113504819D01*
X162342628Y-113504819D02*
X162437866Y-113504819D01*
X162437866Y-113504819D02*
X162580723Y-113552438D01*
X162580723Y-113552438D02*
X162628342Y-113600057D01*
X163580723Y-114504819D02*
X163009295Y-114504819D01*
X163295009Y-114504819D02*
X163295009Y-113504819D01*
X163295009Y-113504819D02*
X163199771Y-113647676D01*
X163199771Y-113647676D02*
X163104533Y-113742914D01*
X163104533Y-113742914D02*
X163009295Y-113790533D01*
X163914057Y-113504819D02*
X164533104Y-113504819D01*
X164533104Y-113504819D02*
X164199771Y-113885771D01*
X164199771Y-113885771D02*
X164342628Y-113885771D01*
X164342628Y-113885771D02*
X164437866Y-113933390D01*
X164437866Y-113933390D02*
X164485485Y-113981009D01*
X164485485Y-113981009D02*
X164533104Y-114076247D01*
X164533104Y-114076247D02*
X164533104Y-114314342D01*
X164533104Y-114314342D02*
X164485485Y-114409580D01*
X164485485Y-114409580D02*
X164437866Y-114457200D01*
X164437866Y-114457200D02*
X164342628Y-114504819D01*
X164342628Y-114504819D02*
X164056914Y-114504819D01*
X164056914Y-114504819D02*
X163961676Y-114457200D01*
X163961676Y-114457200D02*
X163914057Y-114409580D01*
X126633333Y-49159580D02*
X126585714Y-49207200D01*
X126585714Y-49207200D02*
X126442857Y-49254819D01*
X126442857Y-49254819D02*
X126347619Y-49254819D01*
X126347619Y-49254819D02*
X126204762Y-49207200D01*
X126204762Y-49207200D02*
X126109524Y-49111961D01*
X126109524Y-49111961D02*
X126061905Y-49016723D01*
X126061905Y-49016723D02*
X126014286Y-48826247D01*
X126014286Y-48826247D02*
X126014286Y-48683390D01*
X126014286Y-48683390D02*
X126061905Y-48492914D01*
X126061905Y-48492914D02*
X126109524Y-48397676D01*
X126109524Y-48397676D02*
X126204762Y-48302438D01*
X126204762Y-48302438D02*
X126347619Y-48254819D01*
X126347619Y-48254819D02*
X126442857Y-48254819D01*
X126442857Y-48254819D02*
X126585714Y-48302438D01*
X126585714Y-48302438D02*
X126633333Y-48350057D01*
X127538095Y-48254819D02*
X127061905Y-48254819D01*
X127061905Y-48254819D02*
X127014286Y-48731009D01*
X127014286Y-48731009D02*
X127061905Y-48683390D01*
X127061905Y-48683390D02*
X127157143Y-48635771D01*
X127157143Y-48635771D02*
X127395238Y-48635771D01*
X127395238Y-48635771D02*
X127490476Y-48683390D01*
X127490476Y-48683390D02*
X127538095Y-48731009D01*
X127538095Y-48731009D02*
X127585714Y-48826247D01*
X127585714Y-48826247D02*
X127585714Y-49064342D01*
X127585714Y-49064342D02*
X127538095Y-49159580D01*
X127538095Y-49159580D02*
X127490476Y-49207200D01*
X127490476Y-49207200D02*
X127395238Y-49254819D01*
X127395238Y-49254819D02*
X127157143Y-49254819D01*
X127157143Y-49254819D02*
X127061905Y-49207200D01*
X127061905Y-49207200D02*
X127014286Y-49159580D01*
X185238095Y-142254819D02*
X185238095Y-141254819D01*
X185238095Y-141731009D02*
X185809523Y-141731009D01*
X185809523Y-142254819D02*
X185809523Y-141254819D01*
X186190476Y-141254819D02*
X186809523Y-141254819D01*
X186809523Y-141254819D02*
X186476190Y-141635771D01*
X186476190Y-141635771D02*
X186619047Y-141635771D01*
X186619047Y-141635771D02*
X186714285Y-141683390D01*
X186714285Y-141683390D02*
X186761904Y-141731009D01*
X186761904Y-141731009D02*
X186809523Y-141826247D01*
X186809523Y-141826247D02*
X186809523Y-142064342D01*
X186809523Y-142064342D02*
X186761904Y-142159580D01*
X186761904Y-142159580D02*
X186714285Y-142207200D01*
X186714285Y-142207200D02*
X186619047Y-142254819D01*
X186619047Y-142254819D02*
X186333333Y-142254819D01*
X186333333Y-142254819D02*
X186238095Y-142207200D01*
X186238095Y-142207200D02*
X186190476Y-142159580D01*
X128833333Y-109359580D02*
X128785714Y-109407200D01*
X128785714Y-109407200D02*
X128642857Y-109454819D01*
X128642857Y-109454819D02*
X128547619Y-109454819D01*
X128547619Y-109454819D02*
X128404762Y-109407200D01*
X128404762Y-109407200D02*
X128309524Y-109311961D01*
X128309524Y-109311961D02*
X128261905Y-109216723D01*
X128261905Y-109216723D02*
X128214286Y-109026247D01*
X128214286Y-109026247D02*
X128214286Y-108883390D01*
X128214286Y-108883390D02*
X128261905Y-108692914D01*
X128261905Y-108692914D02*
X128309524Y-108597676D01*
X128309524Y-108597676D02*
X128404762Y-108502438D01*
X128404762Y-108502438D02*
X128547619Y-108454819D01*
X128547619Y-108454819D02*
X128642857Y-108454819D01*
X128642857Y-108454819D02*
X128785714Y-108502438D01*
X128785714Y-108502438D02*
X128833333Y-108550057D01*
X129214286Y-108550057D02*
X129261905Y-108502438D01*
X129261905Y-108502438D02*
X129357143Y-108454819D01*
X129357143Y-108454819D02*
X129595238Y-108454819D01*
X129595238Y-108454819D02*
X129690476Y-108502438D01*
X129690476Y-108502438D02*
X129738095Y-108550057D01*
X129738095Y-108550057D02*
X129785714Y-108645295D01*
X129785714Y-108645295D02*
X129785714Y-108740533D01*
X129785714Y-108740533D02*
X129738095Y-108883390D01*
X129738095Y-108883390D02*
X129166667Y-109454819D01*
X129166667Y-109454819D02*
X129785714Y-109454819D01*
X173513095Y-54924819D02*
X173513095Y-55734342D01*
X173513095Y-55734342D02*
X173560714Y-55829580D01*
X173560714Y-55829580D02*
X173608333Y-55877200D01*
X173608333Y-55877200D02*
X173703571Y-55924819D01*
X173703571Y-55924819D02*
X173894047Y-55924819D01*
X173894047Y-55924819D02*
X173989285Y-55877200D01*
X173989285Y-55877200D02*
X174036904Y-55829580D01*
X174036904Y-55829580D02*
X174084523Y-55734342D01*
X174084523Y-55734342D02*
X174084523Y-54924819D01*
X174989285Y-54924819D02*
X174798809Y-54924819D01*
X174798809Y-54924819D02*
X174703571Y-54972438D01*
X174703571Y-54972438D02*
X174655952Y-55020057D01*
X174655952Y-55020057D02*
X174560714Y-55162914D01*
X174560714Y-55162914D02*
X174513095Y-55353390D01*
X174513095Y-55353390D02*
X174513095Y-55734342D01*
X174513095Y-55734342D02*
X174560714Y-55829580D01*
X174560714Y-55829580D02*
X174608333Y-55877200D01*
X174608333Y-55877200D02*
X174703571Y-55924819D01*
X174703571Y-55924819D02*
X174894047Y-55924819D01*
X174894047Y-55924819D02*
X174989285Y-55877200D01*
X174989285Y-55877200D02*
X175036904Y-55829580D01*
X175036904Y-55829580D02*
X175084523Y-55734342D01*
X175084523Y-55734342D02*
X175084523Y-55496247D01*
X175084523Y-55496247D02*
X175036904Y-55401009D01*
X175036904Y-55401009D02*
X174989285Y-55353390D01*
X174989285Y-55353390D02*
X174894047Y-55305771D01*
X174894047Y-55305771D02*
X174703571Y-55305771D01*
X174703571Y-55305771D02*
X174608333Y-55353390D01*
X174608333Y-55353390D02*
X174560714Y-55401009D01*
X174560714Y-55401009D02*
X174513095Y-55496247D01*
X109557142Y-92959580D02*
X109509523Y-93007200D01*
X109509523Y-93007200D02*
X109366666Y-93054819D01*
X109366666Y-93054819D02*
X109271428Y-93054819D01*
X109271428Y-93054819D02*
X109128571Y-93007200D01*
X109128571Y-93007200D02*
X109033333Y-92911961D01*
X109033333Y-92911961D02*
X108985714Y-92816723D01*
X108985714Y-92816723D02*
X108938095Y-92626247D01*
X108938095Y-92626247D02*
X108938095Y-92483390D01*
X108938095Y-92483390D02*
X108985714Y-92292914D01*
X108985714Y-92292914D02*
X109033333Y-92197676D01*
X109033333Y-92197676D02*
X109128571Y-92102438D01*
X109128571Y-92102438D02*
X109271428Y-92054819D01*
X109271428Y-92054819D02*
X109366666Y-92054819D01*
X109366666Y-92054819D02*
X109509523Y-92102438D01*
X109509523Y-92102438D02*
X109557142Y-92150057D01*
X110509523Y-93054819D02*
X109938095Y-93054819D01*
X110223809Y-93054819D02*
X110223809Y-92054819D01*
X110223809Y-92054819D02*
X110128571Y-92197676D01*
X110128571Y-92197676D02*
X110033333Y-92292914D01*
X110033333Y-92292914D02*
X109938095Y-92340533D01*
X111128571Y-92054819D02*
X111223809Y-92054819D01*
X111223809Y-92054819D02*
X111319047Y-92102438D01*
X111319047Y-92102438D02*
X111366666Y-92150057D01*
X111366666Y-92150057D02*
X111414285Y-92245295D01*
X111414285Y-92245295D02*
X111461904Y-92435771D01*
X111461904Y-92435771D02*
X111461904Y-92673866D01*
X111461904Y-92673866D02*
X111414285Y-92864342D01*
X111414285Y-92864342D02*
X111366666Y-92959580D01*
X111366666Y-92959580D02*
X111319047Y-93007200D01*
X111319047Y-93007200D02*
X111223809Y-93054819D01*
X111223809Y-93054819D02*
X111128571Y-93054819D01*
X111128571Y-93054819D02*
X111033333Y-93007200D01*
X111033333Y-93007200D02*
X110985714Y-92959580D01*
X110985714Y-92959580D02*
X110938095Y-92864342D01*
X110938095Y-92864342D02*
X110890476Y-92673866D01*
X110890476Y-92673866D02*
X110890476Y-92435771D01*
X110890476Y-92435771D02*
X110938095Y-92245295D01*
X110938095Y-92245295D02*
X110985714Y-92150057D01*
X110985714Y-92150057D02*
X111033333Y-92102438D01*
X111033333Y-92102438D02*
X111128571Y-92054819D01*
X93357142Y-86159580D02*
X93309523Y-86207200D01*
X93309523Y-86207200D02*
X93166666Y-86254819D01*
X93166666Y-86254819D02*
X93071428Y-86254819D01*
X93071428Y-86254819D02*
X92928571Y-86207200D01*
X92928571Y-86207200D02*
X92833333Y-86111961D01*
X92833333Y-86111961D02*
X92785714Y-86016723D01*
X92785714Y-86016723D02*
X92738095Y-85826247D01*
X92738095Y-85826247D02*
X92738095Y-85683390D01*
X92738095Y-85683390D02*
X92785714Y-85492914D01*
X92785714Y-85492914D02*
X92833333Y-85397676D01*
X92833333Y-85397676D02*
X92928571Y-85302438D01*
X92928571Y-85302438D02*
X93071428Y-85254819D01*
X93071428Y-85254819D02*
X93166666Y-85254819D01*
X93166666Y-85254819D02*
X93309523Y-85302438D01*
X93309523Y-85302438D02*
X93357142Y-85350057D01*
X94309523Y-86254819D02*
X93738095Y-86254819D01*
X94023809Y-86254819D02*
X94023809Y-85254819D01*
X94023809Y-85254819D02*
X93928571Y-85397676D01*
X93928571Y-85397676D02*
X93833333Y-85492914D01*
X93833333Y-85492914D02*
X93738095Y-85540533D01*
X95166666Y-85254819D02*
X94976190Y-85254819D01*
X94976190Y-85254819D02*
X94880952Y-85302438D01*
X94880952Y-85302438D02*
X94833333Y-85350057D01*
X94833333Y-85350057D02*
X94738095Y-85492914D01*
X94738095Y-85492914D02*
X94690476Y-85683390D01*
X94690476Y-85683390D02*
X94690476Y-86064342D01*
X94690476Y-86064342D02*
X94738095Y-86159580D01*
X94738095Y-86159580D02*
X94785714Y-86207200D01*
X94785714Y-86207200D02*
X94880952Y-86254819D01*
X94880952Y-86254819D02*
X95071428Y-86254819D01*
X95071428Y-86254819D02*
X95166666Y-86207200D01*
X95166666Y-86207200D02*
X95214285Y-86159580D01*
X95214285Y-86159580D02*
X95261904Y-86064342D01*
X95261904Y-86064342D02*
X95261904Y-85826247D01*
X95261904Y-85826247D02*
X95214285Y-85731009D01*
X95214285Y-85731009D02*
X95166666Y-85683390D01*
X95166666Y-85683390D02*
X95071428Y-85635771D01*
X95071428Y-85635771D02*
X94880952Y-85635771D01*
X94880952Y-85635771D02*
X94785714Y-85683390D01*
X94785714Y-85683390D02*
X94738095Y-85731009D01*
X94738095Y-85731009D02*
X94690476Y-85826247D01*
X192311333Y-52356780D02*
X192263714Y-52404400D01*
X192263714Y-52404400D02*
X192120857Y-52452019D01*
X192120857Y-52452019D02*
X192025619Y-52452019D01*
X192025619Y-52452019D02*
X191882762Y-52404400D01*
X191882762Y-52404400D02*
X191787524Y-52309161D01*
X191787524Y-52309161D02*
X191739905Y-52213923D01*
X191739905Y-52213923D02*
X191692286Y-52023447D01*
X191692286Y-52023447D02*
X191692286Y-51880590D01*
X191692286Y-51880590D02*
X191739905Y-51690114D01*
X191739905Y-51690114D02*
X191787524Y-51594876D01*
X191787524Y-51594876D02*
X191882762Y-51499638D01*
X191882762Y-51499638D02*
X192025619Y-51452019D01*
X192025619Y-51452019D02*
X192120857Y-51452019D01*
X192120857Y-51452019D02*
X192263714Y-51499638D01*
X192263714Y-51499638D02*
X192311333Y-51547257D01*
X192644667Y-51452019D02*
X193263714Y-51452019D01*
X193263714Y-51452019D02*
X192930381Y-51832971D01*
X192930381Y-51832971D02*
X193073238Y-51832971D01*
X193073238Y-51832971D02*
X193168476Y-51880590D01*
X193168476Y-51880590D02*
X193216095Y-51928209D01*
X193216095Y-51928209D02*
X193263714Y-52023447D01*
X193263714Y-52023447D02*
X193263714Y-52261542D01*
X193263714Y-52261542D02*
X193216095Y-52356780D01*
X193216095Y-52356780D02*
X193168476Y-52404400D01*
X193168476Y-52404400D02*
X193073238Y-52452019D01*
X193073238Y-52452019D02*
X192787524Y-52452019D01*
X192787524Y-52452019D02*
X192692286Y-52404400D01*
X192692286Y-52404400D02*
X192644667Y-52356780D01*
X114433333Y-98159580D02*
X114385714Y-98207200D01*
X114385714Y-98207200D02*
X114242857Y-98254819D01*
X114242857Y-98254819D02*
X114147619Y-98254819D01*
X114147619Y-98254819D02*
X114004762Y-98207200D01*
X114004762Y-98207200D02*
X113909524Y-98111961D01*
X113909524Y-98111961D02*
X113861905Y-98016723D01*
X113861905Y-98016723D02*
X113814286Y-97826247D01*
X113814286Y-97826247D02*
X113814286Y-97683390D01*
X113814286Y-97683390D02*
X113861905Y-97492914D01*
X113861905Y-97492914D02*
X113909524Y-97397676D01*
X113909524Y-97397676D02*
X114004762Y-97302438D01*
X114004762Y-97302438D02*
X114147619Y-97254819D01*
X114147619Y-97254819D02*
X114242857Y-97254819D01*
X114242857Y-97254819D02*
X114385714Y-97302438D01*
X114385714Y-97302438D02*
X114433333Y-97350057D01*
X115385714Y-98254819D02*
X114814286Y-98254819D01*
X115100000Y-98254819D02*
X115100000Y-97254819D01*
X115100000Y-97254819D02*
X115004762Y-97397676D01*
X115004762Y-97397676D02*
X114909524Y-97492914D01*
X114909524Y-97492914D02*
X114814286Y-97540533D01*
X172288095Y-42829819D02*
X172288095Y-41829819D01*
X172288095Y-42306009D02*
X172859523Y-42306009D01*
X172859523Y-42829819D02*
X172859523Y-41829819D01*
X173288095Y-41925057D02*
X173335714Y-41877438D01*
X173335714Y-41877438D02*
X173430952Y-41829819D01*
X173430952Y-41829819D02*
X173669047Y-41829819D01*
X173669047Y-41829819D02*
X173764285Y-41877438D01*
X173764285Y-41877438D02*
X173811904Y-41925057D01*
X173811904Y-41925057D02*
X173859523Y-42020295D01*
X173859523Y-42020295D02*
X173859523Y-42115533D01*
X173859523Y-42115533D02*
X173811904Y-42258390D01*
X173811904Y-42258390D02*
X173240476Y-42829819D01*
X173240476Y-42829819D02*
X173859523Y-42829819D01*
X145659523Y-130204819D02*
X145326190Y-129728628D01*
X145088095Y-130204819D02*
X145088095Y-129204819D01*
X145088095Y-129204819D02*
X145469047Y-129204819D01*
X145469047Y-129204819D02*
X145564285Y-129252438D01*
X145564285Y-129252438D02*
X145611904Y-129300057D01*
X145611904Y-129300057D02*
X145659523Y-129395295D01*
X145659523Y-129395295D02*
X145659523Y-129538152D01*
X145659523Y-129538152D02*
X145611904Y-129633390D01*
X145611904Y-129633390D02*
X145564285Y-129681009D01*
X145564285Y-129681009D02*
X145469047Y-129728628D01*
X145469047Y-129728628D02*
X145088095Y-129728628D01*
X146088095Y-130204819D02*
X146088095Y-129204819D01*
X146088095Y-129204819D02*
X146659523Y-130204819D01*
X146659523Y-130204819D02*
X146659523Y-129204819D01*
X147040476Y-129204819D02*
X147659523Y-129204819D01*
X147659523Y-129204819D02*
X147326190Y-129585771D01*
X147326190Y-129585771D02*
X147469047Y-129585771D01*
X147469047Y-129585771D02*
X147564285Y-129633390D01*
X147564285Y-129633390D02*
X147611904Y-129681009D01*
X147611904Y-129681009D02*
X147659523Y-129776247D01*
X147659523Y-129776247D02*
X147659523Y-130014342D01*
X147659523Y-130014342D02*
X147611904Y-130109580D01*
X147611904Y-130109580D02*
X147564285Y-130157200D01*
X147564285Y-130157200D02*
X147469047Y-130204819D01*
X147469047Y-130204819D02*
X147183333Y-130204819D01*
X147183333Y-130204819D02*
X147088095Y-130157200D01*
X147088095Y-130157200D02*
X147040476Y-130109580D01*
X139495523Y-144580819D02*
X139162190Y-144104628D01*
X138924095Y-144580819D02*
X138924095Y-143580819D01*
X138924095Y-143580819D02*
X139305047Y-143580819D01*
X139305047Y-143580819D02*
X139400285Y-143628438D01*
X139400285Y-143628438D02*
X139447904Y-143676057D01*
X139447904Y-143676057D02*
X139495523Y-143771295D01*
X139495523Y-143771295D02*
X139495523Y-143914152D01*
X139495523Y-143914152D02*
X139447904Y-144009390D01*
X139447904Y-144009390D02*
X139400285Y-144057009D01*
X139400285Y-144057009D02*
X139305047Y-144104628D01*
X139305047Y-144104628D02*
X138924095Y-144104628D01*
X139924095Y-144580819D02*
X139924095Y-143580819D01*
X139924095Y-143580819D02*
X140495523Y-144580819D01*
X140495523Y-144580819D02*
X140495523Y-143580819D01*
X141447904Y-143580819D02*
X140971714Y-143580819D01*
X140971714Y-143580819D02*
X140924095Y-144057009D01*
X140924095Y-144057009D02*
X140971714Y-144009390D01*
X140971714Y-144009390D02*
X141066952Y-143961771D01*
X141066952Y-143961771D02*
X141305047Y-143961771D01*
X141305047Y-143961771D02*
X141400285Y-144009390D01*
X141400285Y-144009390D02*
X141447904Y-144057009D01*
X141447904Y-144057009D02*
X141495523Y-144152247D01*
X141495523Y-144152247D02*
X141495523Y-144390342D01*
X141495523Y-144390342D02*
X141447904Y-144485580D01*
X141447904Y-144485580D02*
X141400285Y-144533200D01*
X141400285Y-144533200D02*
X141305047Y-144580819D01*
X141305047Y-144580819D02*
X141066952Y-144580819D01*
X141066952Y-144580819D02*
X140971714Y-144533200D01*
X140971714Y-144533200D02*
X140924095Y-144485580D01*
X145909523Y-104204819D02*
X145576190Y-103728628D01*
X145338095Y-104204819D02*
X145338095Y-103204819D01*
X145338095Y-103204819D02*
X145719047Y-103204819D01*
X145719047Y-103204819D02*
X145814285Y-103252438D01*
X145814285Y-103252438D02*
X145861904Y-103300057D01*
X145861904Y-103300057D02*
X145909523Y-103395295D01*
X145909523Y-103395295D02*
X145909523Y-103538152D01*
X145909523Y-103538152D02*
X145861904Y-103633390D01*
X145861904Y-103633390D02*
X145814285Y-103681009D01*
X145814285Y-103681009D02*
X145719047Y-103728628D01*
X145719047Y-103728628D02*
X145338095Y-103728628D01*
X146338095Y-104204819D02*
X146338095Y-103204819D01*
X146338095Y-103204819D02*
X146909523Y-104204819D01*
X146909523Y-104204819D02*
X146909523Y-103204819D01*
X147338095Y-103300057D02*
X147385714Y-103252438D01*
X147385714Y-103252438D02*
X147480952Y-103204819D01*
X147480952Y-103204819D02*
X147719047Y-103204819D01*
X147719047Y-103204819D02*
X147814285Y-103252438D01*
X147814285Y-103252438D02*
X147861904Y-103300057D01*
X147861904Y-103300057D02*
X147909523Y-103395295D01*
X147909523Y-103395295D02*
X147909523Y-103490533D01*
X147909523Y-103490533D02*
X147861904Y-103633390D01*
X147861904Y-103633390D02*
X147290476Y-104204819D01*
X147290476Y-104204819D02*
X147909523Y-104204819D01*
X115909523Y-89974819D02*
X115576190Y-89498628D01*
X115338095Y-89974819D02*
X115338095Y-88974819D01*
X115338095Y-88974819D02*
X115719047Y-88974819D01*
X115719047Y-88974819D02*
X115814285Y-89022438D01*
X115814285Y-89022438D02*
X115861904Y-89070057D01*
X115861904Y-89070057D02*
X115909523Y-89165295D01*
X115909523Y-89165295D02*
X115909523Y-89308152D01*
X115909523Y-89308152D02*
X115861904Y-89403390D01*
X115861904Y-89403390D02*
X115814285Y-89451009D01*
X115814285Y-89451009D02*
X115719047Y-89498628D01*
X115719047Y-89498628D02*
X115338095Y-89498628D01*
X116338095Y-89974819D02*
X116338095Y-88974819D01*
X116338095Y-88974819D02*
X116909523Y-89974819D01*
X116909523Y-89974819D02*
X116909523Y-88974819D01*
X117909523Y-89974819D02*
X117338095Y-89974819D01*
X117623809Y-89974819D02*
X117623809Y-88974819D01*
X117623809Y-88974819D02*
X117528571Y-89117676D01*
X117528571Y-89117676D02*
X117433333Y-89212914D01*
X117433333Y-89212914D02*
X117338095Y-89260533D01*
X158936905Y-89809819D02*
X158936905Y-90619342D01*
X158936905Y-90619342D02*
X158984524Y-90714580D01*
X158984524Y-90714580D02*
X159032143Y-90762200D01*
X159032143Y-90762200D02*
X159127381Y-90809819D01*
X159127381Y-90809819D02*
X159317857Y-90809819D01*
X159317857Y-90809819D02*
X159413095Y-90762200D01*
X159413095Y-90762200D02*
X159460714Y-90714580D01*
X159460714Y-90714580D02*
X159508333Y-90619342D01*
X159508333Y-90619342D02*
X159508333Y-89809819D01*
X160508333Y-90809819D02*
X159936905Y-90809819D01*
X160222619Y-90809819D02*
X160222619Y-89809819D01*
X160222619Y-89809819D02*
X160127381Y-89952676D01*
X160127381Y-89952676D02*
X160032143Y-90047914D01*
X160032143Y-90047914D02*
X159936905Y-90095533D01*
X161127381Y-89809819D02*
X161222619Y-89809819D01*
X161222619Y-89809819D02*
X161317857Y-89857438D01*
X161317857Y-89857438D02*
X161365476Y-89905057D01*
X161365476Y-89905057D02*
X161413095Y-90000295D01*
X161413095Y-90000295D02*
X161460714Y-90190771D01*
X161460714Y-90190771D02*
X161460714Y-90428866D01*
X161460714Y-90428866D02*
X161413095Y-90619342D01*
X161413095Y-90619342D02*
X161365476Y-90714580D01*
X161365476Y-90714580D02*
X161317857Y-90762200D01*
X161317857Y-90762200D02*
X161222619Y-90809819D01*
X161222619Y-90809819D02*
X161127381Y-90809819D01*
X161127381Y-90809819D02*
X161032143Y-90762200D01*
X161032143Y-90762200D02*
X160984524Y-90714580D01*
X160984524Y-90714580D02*
X160936905Y-90619342D01*
X160936905Y-90619342D02*
X160889286Y-90428866D01*
X160889286Y-90428866D02*
X160889286Y-90190771D01*
X160889286Y-90190771D02*
X160936905Y-90000295D01*
X160936905Y-90000295D02*
X160984524Y-89905057D01*
X160984524Y-89905057D02*
X161032143Y-89857438D01*
X161032143Y-89857438D02*
X161127381Y-89809819D01*
X182325595Y-89699819D02*
X182325595Y-90509342D01*
X182325595Y-90509342D02*
X182373214Y-90604580D01*
X182373214Y-90604580D02*
X182420833Y-90652200D01*
X182420833Y-90652200D02*
X182516071Y-90699819D01*
X182516071Y-90699819D02*
X182706547Y-90699819D01*
X182706547Y-90699819D02*
X182801785Y-90652200D01*
X182801785Y-90652200D02*
X182849404Y-90604580D01*
X182849404Y-90604580D02*
X182897023Y-90509342D01*
X182897023Y-90509342D02*
X182897023Y-89699819D01*
X183420833Y-90699819D02*
X183611309Y-90699819D01*
X183611309Y-90699819D02*
X183706547Y-90652200D01*
X183706547Y-90652200D02*
X183754166Y-90604580D01*
X183754166Y-90604580D02*
X183849404Y-90461723D01*
X183849404Y-90461723D02*
X183897023Y-90271247D01*
X183897023Y-90271247D02*
X183897023Y-89890295D01*
X183897023Y-89890295D02*
X183849404Y-89795057D01*
X183849404Y-89795057D02*
X183801785Y-89747438D01*
X183801785Y-89747438D02*
X183706547Y-89699819D01*
X183706547Y-89699819D02*
X183516071Y-89699819D01*
X183516071Y-89699819D02*
X183420833Y-89747438D01*
X183420833Y-89747438D02*
X183373214Y-89795057D01*
X183373214Y-89795057D02*
X183325595Y-89890295D01*
X183325595Y-89890295D02*
X183325595Y-90128390D01*
X183325595Y-90128390D02*
X183373214Y-90223628D01*
X183373214Y-90223628D02*
X183420833Y-90271247D01*
X183420833Y-90271247D02*
X183516071Y-90318866D01*
X183516071Y-90318866D02*
X183706547Y-90318866D01*
X183706547Y-90318866D02*
X183801785Y-90271247D01*
X183801785Y-90271247D02*
X183849404Y-90223628D01*
X183849404Y-90223628D02*
X183897023Y-90128390D01*
X91868666Y-97721009D02*
X91535333Y-97721009D01*
X91535333Y-98244819D02*
X91535333Y-97244819D01*
X91535333Y-97244819D02*
X92011523Y-97244819D01*
X92916285Y-98244819D02*
X92344857Y-98244819D01*
X92630571Y-98244819D02*
X92630571Y-97244819D01*
X92630571Y-97244819D02*
X92535333Y-97387676D01*
X92535333Y-97387676D02*
X92440095Y-97482914D01*
X92440095Y-97482914D02*
X92344857Y-97530533D01*
X179607142Y-52109580D02*
X179559523Y-52157200D01*
X179559523Y-52157200D02*
X179416666Y-52204819D01*
X179416666Y-52204819D02*
X179321428Y-52204819D01*
X179321428Y-52204819D02*
X179178571Y-52157200D01*
X179178571Y-52157200D02*
X179083333Y-52061961D01*
X179083333Y-52061961D02*
X179035714Y-51966723D01*
X179035714Y-51966723D02*
X178988095Y-51776247D01*
X178988095Y-51776247D02*
X178988095Y-51633390D01*
X178988095Y-51633390D02*
X179035714Y-51442914D01*
X179035714Y-51442914D02*
X179083333Y-51347676D01*
X179083333Y-51347676D02*
X179178571Y-51252438D01*
X179178571Y-51252438D02*
X179321428Y-51204819D01*
X179321428Y-51204819D02*
X179416666Y-51204819D01*
X179416666Y-51204819D02*
X179559523Y-51252438D01*
X179559523Y-51252438D02*
X179607142Y-51300057D01*
X180559523Y-52204819D02*
X179988095Y-52204819D01*
X180273809Y-52204819D02*
X180273809Y-51204819D01*
X180273809Y-51204819D02*
X180178571Y-51347676D01*
X180178571Y-51347676D02*
X180083333Y-51442914D01*
X180083333Y-51442914D02*
X179988095Y-51490533D01*
X180892857Y-51204819D02*
X181559523Y-51204819D01*
X181559523Y-51204819D02*
X181130952Y-52204819D01*
X190233333Y-47854819D02*
X189900000Y-47378628D01*
X189661905Y-47854819D02*
X189661905Y-46854819D01*
X189661905Y-46854819D02*
X190042857Y-46854819D01*
X190042857Y-46854819D02*
X190138095Y-46902438D01*
X190138095Y-46902438D02*
X190185714Y-46950057D01*
X190185714Y-46950057D02*
X190233333Y-47045295D01*
X190233333Y-47045295D02*
X190233333Y-47188152D01*
X190233333Y-47188152D02*
X190185714Y-47283390D01*
X190185714Y-47283390D02*
X190138095Y-47331009D01*
X190138095Y-47331009D02*
X190042857Y-47378628D01*
X190042857Y-47378628D02*
X189661905Y-47378628D01*
X190566667Y-46854819D02*
X191185714Y-46854819D01*
X191185714Y-46854819D02*
X190852381Y-47235771D01*
X190852381Y-47235771D02*
X190995238Y-47235771D01*
X190995238Y-47235771D02*
X191090476Y-47283390D01*
X191090476Y-47283390D02*
X191138095Y-47331009D01*
X191138095Y-47331009D02*
X191185714Y-47426247D01*
X191185714Y-47426247D02*
X191185714Y-47664342D01*
X191185714Y-47664342D02*
X191138095Y-47759580D01*
X191138095Y-47759580D02*
X191090476Y-47807200D01*
X191090476Y-47807200D02*
X190995238Y-47854819D01*
X190995238Y-47854819D02*
X190709524Y-47854819D01*
X190709524Y-47854819D02*
X190614286Y-47807200D01*
X190614286Y-47807200D02*
X190566667Y-47759580D01*
X177792142Y-71733580D02*
X177744523Y-71781200D01*
X177744523Y-71781200D02*
X177601666Y-71828819D01*
X177601666Y-71828819D02*
X177506428Y-71828819D01*
X177506428Y-71828819D02*
X177363571Y-71781200D01*
X177363571Y-71781200D02*
X177268333Y-71685961D01*
X177268333Y-71685961D02*
X177220714Y-71590723D01*
X177220714Y-71590723D02*
X177173095Y-71400247D01*
X177173095Y-71400247D02*
X177173095Y-71257390D01*
X177173095Y-71257390D02*
X177220714Y-71066914D01*
X177220714Y-71066914D02*
X177268333Y-70971676D01*
X177268333Y-70971676D02*
X177363571Y-70876438D01*
X177363571Y-70876438D02*
X177506428Y-70828819D01*
X177506428Y-70828819D02*
X177601666Y-70828819D01*
X177601666Y-70828819D02*
X177744523Y-70876438D01*
X177744523Y-70876438D02*
X177792142Y-70924057D01*
X178744523Y-71828819D02*
X178173095Y-71828819D01*
X178458809Y-71828819D02*
X178458809Y-70828819D01*
X178458809Y-70828819D02*
X178363571Y-70971676D01*
X178363571Y-70971676D02*
X178268333Y-71066914D01*
X178268333Y-71066914D02*
X178173095Y-71114533D01*
X179696904Y-71828819D02*
X179125476Y-71828819D01*
X179411190Y-71828819D02*
X179411190Y-70828819D01*
X179411190Y-70828819D02*
X179315952Y-70971676D01*
X179315952Y-70971676D02*
X179220714Y-71066914D01*
X179220714Y-71066914D02*
X179125476Y-71114533D01*
X101687333Y-85798819D02*
X101354000Y-85322628D01*
X101115905Y-85798819D02*
X101115905Y-84798819D01*
X101115905Y-84798819D02*
X101496857Y-84798819D01*
X101496857Y-84798819D02*
X101592095Y-84846438D01*
X101592095Y-84846438D02*
X101639714Y-84894057D01*
X101639714Y-84894057D02*
X101687333Y-84989295D01*
X101687333Y-84989295D02*
X101687333Y-85132152D01*
X101687333Y-85132152D02*
X101639714Y-85227390D01*
X101639714Y-85227390D02*
X101592095Y-85275009D01*
X101592095Y-85275009D02*
X101496857Y-85322628D01*
X101496857Y-85322628D02*
X101115905Y-85322628D01*
X102020667Y-84798819D02*
X102687333Y-84798819D01*
X102687333Y-84798819D02*
X102258762Y-85798819D01*
X80738095Y-91454819D02*
X80738095Y-90454819D01*
X80738095Y-90931009D02*
X81309523Y-90931009D01*
X81309523Y-91454819D02*
X81309523Y-90454819D01*
X82261904Y-90454819D02*
X81785714Y-90454819D01*
X81785714Y-90454819D02*
X81738095Y-90931009D01*
X81738095Y-90931009D02*
X81785714Y-90883390D01*
X81785714Y-90883390D02*
X81880952Y-90835771D01*
X81880952Y-90835771D02*
X82119047Y-90835771D01*
X82119047Y-90835771D02*
X82214285Y-90883390D01*
X82214285Y-90883390D02*
X82261904Y-90931009D01*
X82261904Y-90931009D02*
X82309523Y-91026247D01*
X82309523Y-91026247D02*
X82309523Y-91264342D01*
X82309523Y-91264342D02*
X82261904Y-91359580D01*
X82261904Y-91359580D02*
X82214285Y-91407200D01*
X82214285Y-91407200D02*
X82119047Y-91454819D01*
X82119047Y-91454819D02*
X81880952Y-91454819D01*
X81880952Y-91454819D02*
X81785714Y-91407200D01*
X81785714Y-91407200D02*
X81738095Y-91359580D01*
X189557142Y-87559580D02*
X189509523Y-87607200D01*
X189509523Y-87607200D02*
X189366666Y-87654819D01*
X189366666Y-87654819D02*
X189271428Y-87654819D01*
X189271428Y-87654819D02*
X189128571Y-87607200D01*
X189128571Y-87607200D02*
X189033333Y-87511961D01*
X189033333Y-87511961D02*
X188985714Y-87416723D01*
X188985714Y-87416723D02*
X188938095Y-87226247D01*
X188938095Y-87226247D02*
X188938095Y-87083390D01*
X188938095Y-87083390D02*
X188985714Y-86892914D01*
X188985714Y-86892914D02*
X189033333Y-86797676D01*
X189033333Y-86797676D02*
X189128571Y-86702438D01*
X189128571Y-86702438D02*
X189271428Y-86654819D01*
X189271428Y-86654819D02*
X189366666Y-86654819D01*
X189366666Y-86654819D02*
X189509523Y-86702438D01*
X189509523Y-86702438D02*
X189557142Y-86750057D01*
X190509523Y-87654819D02*
X189938095Y-87654819D01*
X190223809Y-87654819D02*
X190223809Y-86654819D01*
X190223809Y-86654819D02*
X190128571Y-86797676D01*
X190128571Y-86797676D02*
X190033333Y-86892914D01*
X190033333Y-86892914D02*
X189938095Y-86940533D01*
X191366666Y-86988152D02*
X191366666Y-87654819D01*
X191128571Y-86607200D02*
X190890476Y-87321485D01*
X190890476Y-87321485D02*
X191509523Y-87321485D01*
X184078666Y-74892819D02*
X184078666Y-75607104D01*
X184078666Y-75607104D02*
X184031047Y-75749961D01*
X184031047Y-75749961D02*
X183935809Y-75845200D01*
X183935809Y-75845200D02*
X183792952Y-75892819D01*
X183792952Y-75892819D02*
X183697714Y-75892819D01*
X184554857Y-75892819D02*
X184554857Y-74892819D01*
X184554857Y-74892819D02*
X184935809Y-74892819D01*
X184935809Y-74892819D02*
X185031047Y-74940438D01*
X185031047Y-74940438D02*
X185078666Y-74988057D01*
X185078666Y-74988057D02*
X185126285Y-75083295D01*
X185126285Y-75083295D02*
X185126285Y-75226152D01*
X185126285Y-75226152D02*
X185078666Y-75321390D01*
X185078666Y-75321390D02*
X185031047Y-75369009D01*
X185031047Y-75369009D02*
X184935809Y-75416628D01*
X184935809Y-75416628D02*
X184554857Y-75416628D01*
X185983428Y-75226152D02*
X185983428Y-75892819D01*
X185745333Y-74845200D02*
X185507238Y-75559485D01*
X185507238Y-75559485D02*
X186126285Y-75559485D01*
X186945714Y-74495819D02*
X186374286Y-74495819D01*
X186660000Y-74495819D02*
X186660000Y-73495819D01*
X186660000Y-73495819D02*
X186564762Y-73638676D01*
X186564762Y-73638676D02*
X186469524Y-73733914D01*
X186469524Y-73733914D02*
X186374286Y-73781533D01*
X191526667Y-73495819D02*
X192145714Y-73495819D01*
X192145714Y-73495819D02*
X191812381Y-73876771D01*
X191812381Y-73876771D02*
X191955238Y-73876771D01*
X191955238Y-73876771D02*
X192050476Y-73924390D01*
X192050476Y-73924390D02*
X192098095Y-73972009D01*
X192098095Y-73972009D02*
X192145714Y-74067247D01*
X192145714Y-74067247D02*
X192145714Y-74305342D01*
X192145714Y-74305342D02*
X192098095Y-74400580D01*
X192098095Y-74400580D02*
X192050476Y-74448200D01*
X192050476Y-74448200D02*
X191955238Y-74495819D01*
X191955238Y-74495819D02*
X191669524Y-74495819D01*
X191669524Y-74495819D02*
X191574286Y-74448200D01*
X191574286Y-74448200D02*
X191526667Y-74400580D01*
X184472342Y-114456380D02*
X184424723Y-114504000D01*
X184424723Y-114504000D02*
X184281866Y-114551619D01*
X184281866Y-114551619D02*
X184186628Y-114551619D01*
X184186628Y-114551619D02*
X184043771Y-114504000D01*
X184043771Y-114504000D02*
X183948533Y-114408761D01*
X183948533Y-114408761D02*
X183900914Y-114313523D01*
X183900914Y-114313523D02*
X183853295Y-114123047D01*
X183853295Y-114123047D02*
X183853295Y-113980190D01*
X183853295Y-113980190D02*
X183900914Y-113789714D01*
X183900914Y-113789714D02*
X183948533Y-113694476D01*
X183948533Y-113694476D02*
X184043771Y-113599238D01*
X184043771Y-113599238D02*
X184186628Y-113551619D01*
X184186628Y-113551619D02*
X184281866Y-113551619D01*
X184281866Y-113551619D02*
X184424723Y-113599238D01*
X184424723Y-113599238D02*
X184472342Y-113646857D01*
X185424723Y-114551619D02*
X184853295Y-114551619D01*
X185139009Y-114551619D02*
X185139009Y-113551619D01*
X185139009Y-113551619D02*
X185043771Y-113694476D01*
X185043771Y-113694476D02*
X184948533Y-113789714D01*
X184948533Y-113789714D02*
X184853295Y-113837333D01*
X186329485Y-113551619D02*
X185853295Y-113551619D01*
X185853295Y-113551619D02*
X185805676Y-114027809D01*
X185805676Y-114027809D02*
X185853295Y-113980190D01*
X185853295Y-113980190D02*
X185948533Y-113932571D01*
X185948533Y-113932571D02*
X186186628Y-113932571D01*
X186186628Y-113932571D02*
X186281866Y-113980190D01*
X186281866Y-113980190D02*
X186329485Y-114027809D01*
X186329485Y-114027809D02*
X186377104Y-114123047D01*
X186377104Y-114123047D02*
X186377104Y-114361142D01*
X186377104Y-114361142D02*
X186329485Y-114456380D01*
X186329485Y-114456380D02*
X186281866Y-114504000D01*
X186281866Y-114504000D02*
X186186628Y-114551619D01*
X186186628Y-114551619D02*
X185948533Y-114551619D01*
X185948533Y-114551619D02*
X185853295Y-114504000D01*
X185853295Y-114504000D02*
X185805676Y-114456380D01*
X184078666Y-72860819D02*
X184078666Y-73575104D01*
X184078666Y-73575104D02*
X184031047Y-73717961D01*
X184031047Y-73717961D02*
X183935809Y-73813200D01*
X183935809Y-73813200D02*
X183792952Y-73860819D01*
X183792952Y-73860819D02*
X183697714Y-73860819D01*
X184554857Y-73860819D02*
X184554857Y-72860819D01*
X184554857Y-72860819D02*
X184935809Y-72860819D01*
X184935809Y-72860819D02*
X185031047Y-72908438D01*
X185031047Y-72908438D02*
X185078666Y-72956057D01*
X185078666Y-72956057D02*
X185126285Y-73051295D01*
X185126285Y-73051295D02*
X185126285Y-73194152D01*
X185126285Y-73194152D02*
X185078666Y-73289390D01*
X185078666Y-73289390D02*
X185031047Y-73337009D01*
X185031047Y-73337009D02*
X184935809Y-73384628D01*
X184935809Y-73384628D02*
X184554857Y-73384628D01*
X186031047Y-72860819D02*
X185554857Y-72860819D01*
X185554857Y-72860819D02*
X185507238Y-73337009D01*
X185507238Y-73337009D02*
X185554857Y-73289390D01*
X185554857Y-73289390D02*
X185650095Y-73241771D01*
X185650095Y-73241771D02*
X185888190Y-73241771D01*
X185888190Y-73241771D02*
X185983428Y-73289390D01*
X185983428Y-73289390D02*
X186031047Y-73337009D01*
X186031047Y-73337009D02*
X186078666Y-73432247D01*
X186078666Y-73432247D02*
X186078666Y-73670342D01*
X186078666Y-73670342D02*
X186031047Y-73765580D01*
X186031047Y-73765580D02*
X185983428Y-73813200D01*
X185983428Y-73813200D02*
X185888190Y-73860819D01*
X185888190Y-73860819D02*
X185650095Y-73860819D01*
X185650095Y-73860819D02*
X185554857Y-73813200D01*
X185554857Y-73813200D02*
X185507238Y-73765580D01*
X186945714Y-71495819D02*
X186374286Y-71495819D01*
X186660000Y-71495819D02*
X186660000Y-70495819D01*
X186660000Y-70495819D02*
X186564762Y-70638676D01*
X186564762Y-70638676D02*
X186469524Y-70733914D01*
X186469524Y-70733914D02*
X186374286Y-70781533D01*
X191526667Y-70495819D02*
X192145714Y-70495819D01*
X192145714Y-70495819D02*
X191812381Y-70876771D01*
X191812381Y-70876771D02*
X191955238Y-70876771D01*
X191955238Y-70876771D02*
X192050476Y-70924390D01*
X192050476Y-70924390D02*
X192098095Y-70972009D01*
X192098095Y-70972009D02*
X192145714Y-71067247D01*
X192145714Y-71067247D02*
X192145714Y-71305342D01*
X192145714Y-71305342D02*
X192098095Y-71400580D01*
X192098095Y-71400580D02*
X192050476Y-71448200D01*
X192050476Y-71448200D02*
X191955238Y-71495819D01*
X191955238Y-71495819D02*
X191669524Y-71495819D01*
X191669524Y-71495819D02*
X191574286Y-71448200D01*
X191574286Y-71448200D02*
X191526667Y-71400580D01*
X78188095Y-43054819D02*
X78188095Y-42054819D01*
X78188095Y-42531009D02*
X78759523Y-42531009D01*
X78759523Y-43054819D02*
X78759523Y-42054819D01*
X79759523Y-43054819D02*
X79188095Y-43054819D01*
X79473809Y-43054819D02*
X79473809Y-42054819D01*
X79473809Y-42054819D02*
X79378571Y-42197676D01*
X79378571Y-42197676D02*
X79283333Y-42292914D01*
X79283333Y-42292914D02*
X79188095Y-42340533D01*
X191529261Y-51150057D02*
X191434023Y-51102438D01*
X191434023Y-51102438D02*
X191338785Y-51007200D01*
X191338785Y-51007200D02*
X191195928Y-50864342D01*
X191195928Y-50864342D02*
X191100690Y-50816723D01*
X191100690Y-50816723D02*
X191005452Y-50816723D01*
X191053071Y-51054819D02*
X190957833Y-51007200D01*
X190957833Y-51007200D02*
X190862595Y-50911961D01*
X190862595Y-50911961D02*
X190814976Y-50721485D01*
X190814976Y-50721485D02*
X190814976Y-50388152D01*
X190814976Y-50388152D02*
X190862595Y-50197676D01*
X190862595Y-50197676D02*
X190957833Y-50102438D01*
X190957833Y-50102438D02*
X191053071Y-50054819D01*
X191053071Y-50054819D02*
X191243547Y-50054819D01*
X191243547Y-50054819D02*
X191338785Y-50102438D01*
X191338785Y-50102438D02*
X191434023Y-50197676D01*
X191434023Y-50197676D02*
X191481642Y-50388152D01*
X191481642Y-50388152D02*
X191481642Y-50721485D01*
X191481642Y-50721485D02*
X191434023Y-50911961D01*
X191434023Y-50911961D02*
X191338785Y-51007200D01*
X191338785Y-51007200D02*
X191243547Y-51054819D01*
X191243547Y-51054819D02*
X191053071Y-51054819D01*
X192434023Y-51054819D02*
X191862595Y-51054819D01*
X192148309Y-51054819D02*
X192148309Y-50054819D01*
X192148309Y-50054819D02*
X192053071Y-50197676D01*
X192053071Y-50197676D02*
X191957833Y-50292914D01*
X191957833Y-50292914D02*
X191862595Y-50340533D01*
X94118095Y-41544819D02*
X94118095Y-42354342D01*
X94118095Y-42354342D02*
X94165714Y-42449580D01*
X94165714Y-42449580D02*
X94213333Y-42497200D01*
X94213333Y-42497200D02*
X94308571Y-42544819D01*
X94308571Y-42544819D02*
X94499047Y-42544819D01*
X94499047Y-42544819D02*
X94594285Y-42497200D01*
X94594285Y-42497200D02*
X94641904Y-42449580D01*
X94641904Y-42449580D02*
X94689523Y-42354342D01*
X94689523Y-42354342D02*
X94689523Y-41544819D01*
X95118095Y-41640057D02*
X95165714Y-41592438D01*
X95165714Y-41592438D02*
X95260952Y-41544819D01*
X95260952Y-41544819D02*
X95499047Y-41544819D01*
X95499047Y-41544819D02*
X95594285Y-41592438D01*
X95594285Y-41592438D02*
X95641904Y-41640057D01*
X95641904Y-41640057D02*
X95689523Y-41735295D01*
X95689523Y-41735295D02*
X95689523Y-41830533D01*
X95689523Y-41830533D02*
X95641904Y-41973390D01*
X95641904Y-41973390D02*
X95070476Y-42544819D01*
X95070476Y-42544819D02*
X95689523Y-42544819D01*
X106346666Y-101366419D02*
X106346666Y-102080704D01*
X106346666Y-102080704D02*
X106299047Y-102223561D01*
X106299047Y-102223561D02*
X106203809Y-102318800D01*
X106203809Y-102318800D02*
X106060952Y-102366419D01*
X106060952Y-102366419D02*
X105965714Y-102366419D01*
X106775238Y-101461657D02*
X106822857Y-101414038D01*
X106822857Y-101414038D02*
X106918095Y-101366419D01*
X106918095Y-101366419D02*
X107156190Y-101366419D01*
X107156190Y-101366419D02*
X107251428Y-101414038D01*
X107251428Y-101414038D02*
X107299047Y-101461657D01*
X107299047Y-101461657D02*
X107346666Y-101556895D01*
X107346666Y-101556895D02*
X107346666Y-101652133D01*
X107346666Y-101652133D02*
X107299047Y-101794990D01*
X107299047Y-101794990D02*
X106727619Y-102366419D01*
X106727619Y-102366419D02*
X107346666Y-102366419D01*
X111557142Y-89759580D02*
X111509523Y-89807200D01*
X111509523Y-89807200D02*
X111366666Y-89854819D01*
X111366666Y-89854819D02*
X111271428Y-89854819D01*
X111271428Y-89854819D02*
X111128571Y-89807200D01*
X111128571Y-89807200D02*
X111033333Y-89711961D01*
X111033333Y-89711961D02*
X110985714Y-89616723D01*
X110985714Y-89616723D02*
X110938095Y-89426247D01*
X110938095Y-89426247D02*
X110938095Y-89283390D01*
X110938095Y-89283390D02*
X110985714Y-89092914D01*
X110985714Y-89092914D02*
X111033333Y-88997676D01*
X111033333Y-88997676D02*
X111128571Y-88902438D01*
X111128571Y-88902438D02*
X111271428Y-88854819D01*
X111271428Y-88854819D02*
X111366666Y-88854819D01*
X111366666Y-88854819D02*
X111509523Y-88902438D01*
X111509523Y-88902438D02*
X111557142Y-88950057D01*
X112509523Y-89854819D02*
X111938095Y-89854819D01*
X112223809Y-89854819D02*
X112223809Y-88854819D01*
X112223809Y-88854819D02*
X112128571Y-88997676D01*
X112128571Y-88997676D02*
X112033333Y-89092914D01*
X112033333Y-89092914D02*
X111938095Y-89140533D01*
X113080952Y-89283390D02*
X112985714Y-89235771D01*
X112985714Y-89235771D02*
X112938095Y-89188152D01*
X112938095Y-89188152D02*
X112890476Y-89092914D01*
X112890476Y-89092914D02*
X112890476Y-89045295D01*
X112890476Y-89045295D02*
X112938095Y-88950057D01*
X112938095Y-88950057D02*
X112985714Y-88902438D01*
X112985714Y-88902438D02*
X113080952Y-88854819D01*
X113080952Y-88854819D02*
X113271428Y-88854819D01*
X113271428Y-88854819D02*
X113366666Y-88902438D01*
X113366666Y-88902438D02*
X113414285Y-88950057D01*
X113414285Y-88950057D02*
X113461904Y-89045295D01*
X113461904Y-89045295D02*
X113461904Y-89092914D01*
X113461904Y-89092914D02*
X113414285Y-89188152D01*
X113414285Y-89188152D02*
X113366666Y-89235771D01*
X113366666Y-89235771D02*
X113271428Y-89283390D01*
X113271428Y-89283390D02*
X113080952Y-89283390D01*
X113080952Y-89283390D02*
X112985714Y-89331009D01*
X112985714Y-89331009D02*
X112938095Y-89378628D01*
X112938095Y-89378628D02*
X112890476Y-89473866D01*
X112890476Y-89473866D02*
X112890476Y-89664342D01*
X112890476Y-89664342D02*
X112938095Y-89759580D01*
X112938095Y-89759580D02*
X112985714Y-89807200D01*
X112985714Y-89807200D02*
X113080952Y-89854819D01*
X113080952Y-89854819D02*
X113271428Y-89854819D01*
X113271428Y-89854819D02*
X113366666Y-89807200D01*
X113366666Y-89807200D02*
X113414285Y-89759580D01*
X113414285Y-89759580D02*
X113461904Y-89664342D01*
X113461904Y-89664342D02*
X113461904Y-89473866D01*
X113461904Y-89473866D02*
X113414285Y-89378628D01*
X113414285Y-89378628D02*
X113366666Y-89331009D01*
X113366666Y-89331009D02*
X113271428Y-89283390D01*
X105433333Y-49359580D02*
X105385714Y-49407200D01*
X105385714Y-49407200D02*
X105242857Y-49454819D01*
X105242857Y-49454819D02*
X105147619Y-49454819D01*
X105147619Y-49454819D02*
X105004762Y-49407200D01*
X105004762Y-49407200D02*
X104909524Y-49311961D01*
X104909524Y-49311961D02*
X104861905Y-49216723D01*
X104861905Y-49216723D02*
X104814286Y-49026247D01*
X104814286Y-49026247D02*
X104814286Y-48883390D01*
X104814286Y-48883390D02*
X104861905Y-48692914D01*
X104861905Y-48692914D02*
X104909524Y-48597676D01*
X104909524Y-48597676D02*
X105004762Y-48502438D01*
X105004762Y-48502438D02*
X105147619Y-48454819D01*
X105147619Y-48454819D02*
X105242857Y-48454819D01*
X105242857Y-48454819D02*
X105385714Y-48502438D01*
X105385714Y-48502438D02*
X105433333Y-48550057D01*
X106290476Y-48788152D02*
X106290476Y-49454819D01*
X106052381Y-48407200D02*
X105814286Y-49121485D01*
X105814286Y-49121485D02*
X106433333Y-49121485D01*
X81666666Y-85854819D02*
X81666666Y-86569104D01*
X81666666Y-86569104D02*
X81619047Y-86711961D01*
X81619047Y-86711961D02*
X81523809Y-86807200D01*
X81523809Y-86807200D02*
X81380952Y-86854819D01*
X81380952Y-86854819D02*
X81285714Y-86854819D01*
X82619047Y-85854819D02*
X82142857Y-85854819D01*
X82142857Y-85854819D02*
X82095238Y-86331009D01*
X82095238Y-86331009D02*
X82142857Y-86283390D01*
X82142857Y-86283390D02*
X82238095Y-86235771D01*
X82238095Y-86235771D02*
X82476190Y-86235771D01*
X82476190Y-86235771D02*
X82571428Y-86283390D01*
X82571428Y-86283390D02*
X82619047Y-86331009D01*
X82619047Y-86331009D02*
X82666666Y-86426247D01*
X82666666Y-86426247D02*
X82666666Y-86664342D01*
X82666666Y-86664342D02*
X82619047Y-86759580D01*
X82619047Y-86759580D02*
X82571428Y-86807200D01*
X82571428Y-86807200D02*
X82476190Y-86854819D01*
X82476190Y-86854819D02*
X82238095Y-86854819D01*
X82238095Y-86854819D02*
X82142857Y-86807200D01*
X82142857Y-86807200D02*
X82095238Y-86759580D01*
X88238095Y-141704819D02*
X88238095Y-140704819D01*
X88238095Y-141181009D02*
X88809523Y-141181009D01*
X88809523Y-141704819D02*
X88809523Y-140704819D01*
X89714285Y-141038152D02*
X89714285Y-141704819D01*
X89476190Y-140657200D02*
X89238095Y-141371485D01*
X89238095Y-141371485D02*
X89857142Y-141371485D01*
X102957333Y-109833580D02*
X102909714Y-109881200D01*
X102909714Y-109881200D02*
X102766857Y-109928819D01*
X102766857Y-109928819D02*
X102671619Y-109928819D01*
X102671619Y-109928819D02*
X102528762Y-109881200D01*
X102528762Y-109881200D02*
X102433524Y-109785961D01*
X102433524Y-109785961D02*
X102385905Y-109690723D01*
X102385905Y-109690723D02*
X102338286Y-109500247D01*
X102338286Y-109500247D02*
X102338286Y-109357390D01*
X102338286Y-109357390D02*
X102385905Y-109166914D01*
X102385905Y-109166914D02*
X102433524Y-109071676D01*
X102433524Y-109071676D02*
X102528762Y-108976438D01*
X102528762Y-108976438D02*
X102671619Y-108928819D01*
X102671619Y-108928819D02*
X102766857Y-108928819D01*
X102766857Y-108928819D02*
X102909714Y-108976438D01*
X102909714Y-108976438D02*
X102957333Y-109024057D01*
X103433524Y-109928819D02*
X103624000Y-109928819D01*
X103624000Y-109928819D02*
X103719238Y-109881200D01*
X103719238Y-109881200D02*
X103766857Y-109833580D01*
X103766857Y-109833580D02*
X103862095Y-109690723D01*
X103862095Y-109690723D02*
X103909714Y-109500247D01*
X103909714Y-109500247D02*
X103909714Y-109119295D01*
X103909714Y-109119295D02*
X103862095Y-109024057D01*
X103862095Y-109024057D02*
X103814476Y-108976438D01*
X103814476Y-108976438D02*
X103719238Y-108928819D01*
X103719238Y-108928819D02*
X103528762Y-108928819D01*
X103528762Y-108928819D02*
X103433524Y-108976438D01*
X103433524Y-108976438D02*
X103385905Y-109024057D01*
X103385905Y-109024057D02*
X103338286Y-109119295D01*
X103338286Y-109119295D02*
X103338286Y-109357390D01*
X103338286Y-109357390D02*
X103385905Y-109452628D01*
X103385905Y-109452628D02*
X103433524Y-109500247D01*
X103433524Y-109500247D02*
X103528762Y-109547866D01*
X103528762Y-109547866D02*
X103719238Y-109547866D01*
X103719238Y-109547866D02*
X103814476Y-109500247D01*
X103814476Y-109500247D02*
X103862095Y-109452628D01*
X103862095Y-109452628D02*
X103909714Y-109357390D01*
X140422333Y-108023819D02*
X140089000Y-107547628D01*
X139850905Y-108023819D02*
X139850905Y-107023819D01*
X139850905Y-107023819D02*
X140231857Y-107023819D01*
X140231857Y-107023819D02*
X140327095Y-107071438D01*
X140327095Y-107071438D02*
X140374714Y-107119057D01*
X140374714Y-107119057D02*
X140422333Y-107214295D01*
X140422333Y-107214295D02*
X140422333Y-107357152D01*
X140422333Y-107357152D02*
X140374714Y-107452390D01*
X140374714Y-107452390D02*
X140327095Y-107500009D01*
X140327095Y-107500009D02*
X140231857Y-107547628D01*
X140231857Y-107547628D02*
X139850905Y-107547628D01*
X140803286Y-107119057D02*
X140850905Y-107071438D01*
X140850905Y-107071438D02*
X140946143Y-107023819D01*
X140946143Y-107023819D02*
X141184238Y-107023819D01*
X141184238Y-107023819D02*
X141279476Y-107071438D01*
X141279476Y-107071438D02*
X141327095Y-107119057D01*
X141327095Y-107119057D02*
X141374714Y-107214295D01*
X141374714Y-107214295D02*
X141374714Y-107309533D01*
X141374714Y-107309533D02*
X141327095Y-107452390D01*
X141327095Y-107452390D02*
X140755667Y-108023819D01*
X140755667Y-108023819D02*
X141374714Y-108023819D01*
X173509523Y-74254819D02*
X173176190Y-73778628D01*
X172938095Y-74254819D02*
X172938095Y-73254819D01*
X172938095Y-73254819D02*
X173319047Y-73254819D01*
X173319047Y-73254819D02*
X173414285Y-73302438D01*
X173414285Y-73302438D02*
X173461904Y-73350057D01*
X173461904Y-73350057D02*
X173509523Y-73445295D01*
X173509523Y-73445295D02*
X173509523Y-73588152D01*
X173509523Y-73588152D02*
X173461904Y-73683390D01*
X173461904Y-73683390D02*
X173414285Y-73731009D01*
X173414285Y-73731009D02*
X173319047Y-73778628D01*
X173319047Y-73778628D02*
X172938095Y-73778628D01*
X173938095Y-74254819D02*
X173938095Y-73254819D01*
X173938095Y-73254819D02*
X174509523Y-74254819D01*
X174509523Y-74254819D02*
X174509523Y-73254819D01*
X175414285Y-73254819D02*
X175223809Y-73254819D01*
X175223809Y-73254819D02*
X175128571Y-73302438D01*
X175128571Y-73302438D02*
X175080952Y-73350057D01*
X175080952Y-73350057D02*
X174985714Y-73492914D01*
X174985714Y-73492914D02*
X174938095Y-73683390D01*
X174938095Y-73683390D02*
X174938095Y-74064342D01*
X174938095Y-74064342D02*
X174985714Y-74159580D01*
X174985714Y-74159580D02*
X175033333Y-74207200D01*
X175033333Y-74207200D02*
X175128571Y-74254819D01*
X175128571Y-74254819D02*
X175319047Y-74254819D01*
X175319047Y-74254819D02*
X175414285Y-74207200D01*
X175414285Y-74207200D02*
X175461904Y-74159580D01*
X175461904Y-74159580D02*
X175509523Y-74064342D01*
X175509523Y-74064342D02*
X175509523Y-73826247D01*
X175509523Y-73826247D02*
X175461904Y-73731009D01*
X175461904Y-73731009D02*
X175414285Y-73683390D01*
X175414285Y-73683390D02*
X175319047Y-73635771D01*
X175319047Y-73635771D02*
X175128571Y-73635771D01*
X175128571Y-73635771D02*
X175033333Y-73683390D01*
X175033333Y-73683390D02*
X174985714Y-73731009D01*
X174985714Y-73731009D02*
X174938095Y-73826247D01*
X181062333Y-66653819D02*
X180729000Y-66177628D01*
X180490905Y-66653819D02*
X180490905Y-65653819D01*
X180490905Y-65653819D02*
X180871857Y-65653819D01*
X180871857Y-65653819D02*
X180967095Y-65701438D01*
X180967095Y-65701438D02*
X181014714Y-65749057D01*
X181014714Y-65749057D02*
X181062333Y-65844295D01*
X181062333Y-65844295D02*
X181062333Y-65987152D01*
X181062333Y-65987152D02*
X181014714Y-66082390D01*
X181014714Y-66082390D02*
X180967095Y-66130009D01*
X180967095Y-66130009D02*
X180871857Y-66177628D01*
X180871857Y-66177628D02*
X180490905Y-66177628D01*
X181967095Y-65653819D02*
X181490905Y-65653819D01*
X181490905Y-65653819D02*
X181443286Y-66130009D01*
X181443286Y-66130009D02*
X181490905Y-66082390D01*
X181490905Y-66082390D02*
X181586143Y-66034771D01*
X181586143Y-66034771D02*
X181824238Y-66034771D01*
X181824238Y-66034771D02*
X181919476Y-66082390D01*
X181919476Y-66082390D02*
X181967095Y-66130009D01*
X181967095Y-66130009D02*
X182014714Y-66225247D01*
X182014714Y-66225247D02*
X182014714Y-66463342D01*
X182014714Y-66463342D02*
X181967095Y-66558580D01*
X181967095Y-66558580D02*
X181919476Y-66606200D01*
X181919476Y-66606200D02*
X181824238Y-66653819D01*
X181824238Y-66653819D02*
X181586143Y-66653819D01*
X181586143Y-66653819D02*
X181490905Y-66606200D01*
X181490905Y-66606200D02*
X181443286Y-66558580D01*
X178161905Y-75054819D02*
X178161905Y-75864342D01*
X178161905Y-75864342D02*
X178209524Y-75959580D01*
X178209524Y-75959580D02*
X178257143Y-76007200D01*
X178257143Y-76007200D02*
X178352381Y-76054819D01*
X178352381Y-76054819D02*
X178542857Y-76054819D01*
X178542857Y-76054819D02*
X178638095Y-76007200D01*
X178638095Y-76007200D02*
X178685714Y-75959580D01*
X178685714Y-75959580D02*
X178733333Y-75864342D01*
X178733333Y-75864342D02*
X178733333Y-75054819D01*
X179733333Y-76054819D02*
X179161905Y-76054819D01*
X179447619Y-76054819D02*
X179447619Y-75054819D01*
X179447619Y-75054819D02*
X179352381Y-75197676D01*
X179352381Y-75197676D02*
X179257143Y-75292914D01*
X179257143Y-75292914D02*
X179161905Y-75340533D01*
X180685714Y-76054819D02*
X180114286Y-76054819D01*
X180400000Y-76054819D02*
X180400000Y-75054819D01*
X180400000Y-75054819D02*
X180304762Y-75197676D01*
X180304762Y-75197676D02*
X180209524Y-75292914D01*
X180209524Y-75292914D02*
X180114286Y-75340533D01*
X133284333Y-97863819D02*
X132951000Y-97387628D01*
X132712905Y-97863819D02*
X132712905Y-96863819D01*
X132712905Y-96863819D02*
X133093857Y-96863819D01*
X133093857Y-96863819D02*
X133189095Y-96911438D01*
X133189095Y-96911438D02*
X133236714Y-96959057D01*
X133236714Y-96959057D02*
X133284333Y-97054295D01*
X133284333Y-97054295D02*
X133284333Y-97197152D01*
X133284333Y-97197152D02*
X133236714Y-97292390D01*
X133236714Y-97292390D02*
X133189095Y-97340009D01*
X133189095Y-97340009D02*
X133093857Y-97387628D01*
X133093857Y-97387628D02*
X132712905Y-97387628D01*
X134236714Y-97863819D02*
X133665286Y-97863819D01*
X133951000Y-97863819D02*
X133951000Y-96863819D01*
X133951000Y-96863819D02*
X133855762Y-97006676D01*
X133855762Y-97006676D02*
X133760524Y-97101914D01*
X133760524Y-97101914D02*
X133665286Y-97149533D01*
X168833333Y-49284580D02*
X168785714Y-49332200D01*
X168785714Y-49332200D02*
X168642857Y-49379819D01*
X168642857Y-49379819D02*
X168547619Y-49379819D01*
X168547619Y-49379819D02*
X168404762Y-49332200D01*
X168404762Y-49332200D02*
X168309524Y-49236961D01*
X168309524Y-49236961D02*
X168261905Y-49141723D01*
X168261905Y-49141723D02*
X168214286Y-48951247D01*
X168214286Y-48951247D02*
X168214286Y-48808390D01*
X168214286Y-48808390D02*
X168261905Y-48617914D01*
X168261905Y-48617914D02*
X168309524Y-48522676D01*
X168309524Y-48522676D02*
X168404762Y-48427438D01*
X168404762Y-48427438D02*
X168547619Y-48379819D01*
X168547619Y-48379819D02*
X168642857Y-48379819D01*
X168642857Y-48379819D02*
X168785714Y-48427438D01*
X168785714Y-48427438D02*
X168833333Y-48475057D01*
X169166667Y-48379819D02*
X169833333Y-48379819D01*
X169833333Y-48379819D02*
X169404762Y-49379819D01*
X147633333Y-49359580D02*
X147585714Y-49407200D01*
X147585714Y-49407200D02*
X147442857Y-49454819D01*
X147442857Y-49454819D02*
X147347619Y-49454819D01*
X147347619Y-49454819D02*
X147204762Y-49407200D01*
X147204762Y-49407200D02*
X147109524Y-49311961D01*
X147109524Y-49311961D02*
X147061905Y-49216723D01*
X147061905Y-49216723D02*
X147014286Y-49026247D01*
X147014286Y-49026247D02*
X147014286Y-48883390D01*
X147014286Y-48883390D02*
X147061905Y-48692914D01*
X147061905Y-48692914D02*
X147109524Y-48597676D01*
X147109524Y-48597676D02*
X147204762Y-48502438D01*
X147204762Y-48502438D02*
X147347619Y-48454819D01*
X147347619Y-48454819D02*
X147442857Y-48454819D01*
X147442857Y-48454819D02*
X147585714Y-48502438D01*
X147585714Y-48502438D02*
X147633333Y-48550057D01*
X148490476Y-48454819D02*
X148300000Y-48454819D01*
X148300000Y-48454819D02*
X148204762Y-48502438D01*
X148204762Y-48502438D02*
X148157143Y-48550057D01*
X148157143Y-48550057D02*
X148061905Y-48692914D01*
X148061905Y-48692914D02*
X148014286Y-48883390D01*
X148014286Y-48883390D02*
X148014286Y-49264342D01*
X148014286Y-49264342D02*
X148061905Y-49359580D01*
X148061905Y-49359580D02*
X148109524Y-49407200D01*
X148109524Y-49407200D02*
X148204762Y-49454819D01*
X148204762Y-49454819D02*
X148395238Y-49454819D01*
X148395238Y-49454819D02*
X148490476Y-49407200D01*
X148490476Y-49407200D02*
X148538095Y-49359580D01*
X148538095Y-49359580D02*
X148585714Y-49264342D01*
X148585714Y-49264342D02*
X148585714Y-49026247D01*
X148585714Y-49026247D02*
X148538095Y-48931009D01*
X148538095Y-48931009D02*
X148490476Y-48883390D01*
X148490476Y-48883390D02*
X148395238Y-48835771D01*
X148395238Y-48835771D02*
X148204762Y-48835771D01*
X148204762Y-48835771D02*
X148109524Y-48883390D01*
X148109524Y-48883390D02*
X148061905Y-48931009D01*
X148061905Y-48931009D02*
X148014286Y-49026247D01*
X188976095Y-65494819D02*
X188976095Y-66304342D01*
X188976095Y-66304342D02*
X189023714Y-66399580D01*
X189023714Y-66399580D02*
X189071333Y-66447200D01*
X189071333Y-66447200D02*
X189166571Y-66494819D01*
X189166571Y-66494819D02*
X189357047Y-66494819D01*
X189357047Y-66494819D02*
X189452285Y-66447200D01*
X189452285Y-66447200D02*
X189499904Y-66399580D01*
X189499904Y-66399580D02*
X189547523Y-66304342D01*
X189547523Y-66304342D02*
X189547523Y-65494819D01*
X190547523Y-66494819D02*
X189976095Y-66494819D01*
X190261809Y-66494819D02*
X190261809Y-65494819D01*
X190261809Y-65494819D02*
X190166571Y-65637676D01*
X190166571Y-65637676D02*
X190071333Y-65732914D01*
X190071333Y-65732914D02*
X189976095Y-65780533D01*
X191690666Y-77686819D02*
X191690666Y-78401104D01*
X191690666Y-78401104D02*
X191643047Y-78543961D01*
X191643047Y-78543961D02*
X191547809Y-78639200D01*
X191547809Y-78639200D02*
X191404952Y-78686819D01*
X191404952Y-78686819D02*
X191309714Y-78686819D01*
X192595428Y-77686819D02*
X192404952Y-77686819D01*
X192404952Y-77686819D02*
X192309714Y-77734438D01*
X192309714Y-77734438D02*
X192262095Y-77782057D01*
X192262095Y-77782057D02*
X192166857Y-77924914D01*
X192166857Y-77924914D02*
X192119238Y-78115390D01*
X192119238Y-78115390D02*
X192119238Y-78496342D01*
X192119238Y-78496342D02*
X192166857Y-78591580D01*
X192166857Y-78591580D02*
X192214476Y-78639200D01*
X192214476Y-78639200D02*
X192309714Y-78686819D01*
X192309714Y-78686819D02*
X192500190Y-78686819D01*
X192500190Y-78686819D02*
X192595428Y-78639200D01*
X192595428Y-78639200D02*
X192643047Y-78591580D01*
X192643047Y-78591580D02*
X192690666Y-78496342D01*
X192690666Y-78496342D02*
X192690666Y-78258247D01*
X192690666Y-78258247D02*
X192643047Y-78163009D01*
X192643047Y-78163009D02*
X192595428Y-78115390D01*
X192595428Y-78115390D02*
X192500190Y-78067771D01*
X192500190Y-78067771D02*
X192309714Y-78067771D01*
X192309714Y-78067771D02*
X192214476Y-78115390D01*
X192214476Y-78115390D02*
X192166857Y-78163009D01*
X192166857Y-78163009D02*
X192119238Y-78258247D01*
X185094666Y-65621819D02*
X185094666Y-66336104D01*
X185094666Y-66336104D02*
X185047047Y-66478961D01*
X185047047Y-66478961D02*
X184951809Y-66574200D01*
X184951809Y-66574200D02*
X184808952Y-66621819D01*
X184808952Y-66621819D02*
X184713714Y-66621819D01*
X185570857Y-66621819D02*
X185570857Y-65621819D01*
X185570857Y-65621819D02*
X185951809Y-65621819D01*
X185951809Y-65621819D02*
X186047047Y-65669438D01*
X186047047Y-65669438D02*
X186094666Y-65717057D01*
X186094666Y-65717057D02*
X186142285Y-65812295D01*
X186142285Y-65812295D02*
X186142285Y-65955152D01*
X186142285Y-65955152D02*
X186094666Y-66050390D01*
X186094666Y-66050390D02*
X186047047Y-66098009D01*
X186047047Y-66098009D02*
X185951809Y-66145628D01*
X185951809Y-66145628D02*
X185570857Y-66145628D01*
X186999428Y-65621819D02*
X186808952Y-65621819D01*
X186808952Y-65621819D02*
X186713714Y-65669438D01*
X186713714Y-65669438D02*
X186666095Y-65717057D01*
X186666095Y-65717057D02*
X186570857Y-65859914D01*
X186570857Y-65859914D02*
X186523238Y-66050390D01*
X186523238Y-66050390D02*
X186523238Y-66431342D01*
X186523238Y-66431342D02*
X186570857Y-66526580D01*
X186570857Y-66526580D02*
X186618476Y-66574200D01*
X186618476Y-66574200D02*
X186713714Y-66621819D01*
X186713714Y-66621819D02*
X186904190Y-66621819D01*
X186904190Y-66621819D02*
X186999428Y-66574200D01*
X186999428Y-66574200D02*
X187047047Y-66526580D01*
X187047047Y-66526580D02*
X187094666Y-66431342D01*
X187094666Y-66431342D02*
X187094666Y-66193247D01*
X187094666Y-66193247D02*
X187047047Y-66098009D01*
X187047047Y-66098009D02*
X186999428Y-66050390D01*
X186999428Y-66050390D02*
X186904190Y-66002771D01*
X186904190Y-66002771D02*
X186713714Y-66002771D01*
X186713714Y-66002771D02*
X186618476Y-66050390D01*
X186618476Y-66050390D02*
X186570857Y-66098009D01*
X186570857Y-66098009D02*
X186523238Y-66193247D01*
X186945714Y-68598819D02*
X186374286Y-68598819D01*
X186660000Y-68598819D02*
X186660000Y-67598819D01*
X186660000Y-67598819D02*
X186564762Y-67741676D01*
X186564762Y-67741676D02*
X186469524Y-67836914D01*
X186469524Y-67836914D02*
X186374286Y-67884533D01*
X191817667Y-66891819D02*
X192436714Y-66891819D01*
X192436714Y-66891819D02*
X192103381Y-67272771D01*
X192103381Y-67272771D02*
X192246238Y-67272771D01*
X192246238Y-67272771D02*
X192341476Y-67320390D01*
X192341476Y-67320390D02*
X192389095Y-67368009D01*
X192389095Y-67368009D02*
X192436714Y-67463247D01*
X192436714Y-67463247D02*
X192436714Y-67701342D01*
X192436714Y-67701342D02*
X192389095Y-67796580D01*
X192389095Y-67796580D02*
X192341476Y-67844200D01*
X192341476Y-67844200D02*
X192246238Y-67891819D01*
X192246238Y-67891819D02*
X191960524Y-67891819D01*
X191960524Y-67891819D02*
X191865286Y-67844200D01*
X191865286Y-67844200D02*
X191817667Y-67796580D01*
X157618095Y-41544819D02*
X157618095Y-42354342D01*
X157618095Y-42354342D02*
X157665714Y-42449580D01*
X157665714Y-42449580D02*
X157713333Y-42497200D01*
X157713333Y-42497200D02*
X157808571Y-42544819D01*
X157808571Y-42544819D02*
X157999047Y-42544819D01*
X157999047Y-42544819D02*
X158094285Y-42497200D01*
X158094285Y-42497200D02*
X158141904Y-42449580D01*
X158141904Y-42449580D02*
X158189523Y-42354342D01*
X158189523Y-42354342D02*
X158189523Y-41544819D01*
X159141904Y-41544819D02*
X158665714Y-41544819D01*
X158665714Y-41544819D02*
X158618095Y-42021009D01*
X158618095Y-42021009D02*
X158665714Y-41973390D01*
X158665714Y-41973390D02*
X158760952Y-41925771D01*
X158760952Y-41925771D02*
X158999047Y-41925771D01*
X158999047Y-41925771D02*
X159094285Y-41973390D01*
X159094285Y-41973390D02*
X159141904Y-42021009D01*
X159141904Y-42021009D02*
X159189523Y-42116247D01*
X159189523Y-42116247D02*
X159189523Y-42354342D01*
X159189523Y-42354342D02*
X159141904Y-42449580D01*
X159141904Y-42449580D02*
X159094285Y-42497200D01*
X159094285Y-42497200D02*
X158999047Y-42544819D01*
X158999047Y-42544819D02*
X158760952Y-42544819D01*
X158760952Y-42544819D02*
X158665714Y-42497200D01*
X158665714Y-42497200D02*
X158618095Y-42449580D01*
X136378095Y-41544819D02*
X136378095Y-42354342D01*
X136378095Y-42354342D02*
X136425714Y-42449580D01*
X136425714Y-42449580D02*
X136473333Y-42497200D01*
X136473333Y-42497200D02*
X136568571Y-42544819D01*
X136568571Y-42544819D02*
X136759047Y-42544819D01*
X136759047Y-42544819D02*
X136854285Y-42497200D01*
X136854285Y-42497200D02*
X136901904Y-42449580D01*
X136901904Y-42449580D02*
X136949523Y-42354342D01*
X136949523Y-42354342D02*
X136949523Y-41544819D01*
X137854285Y-41878152D02*
X137854285Y-42544819D01*
X137616190Y-41497200D02*
X137378095Y-42211485D01*
X137378095Y-42211485D02*
X137997142Y-42211485D01*
D13*
%TO.C,J4*%
X202260000Y-41540000D02*
X202260000Y-42960000D01*
X194040000Y-41540000D02*
X202260000Y-41540000D01*
X202260000Y-42960000D02*
X201310000Y-42960000D01*
X201310000Y-42960000D02*
X201310000Y-53900000D01*
X194040000Y-53900000D02*
X194040000Y-41540000D01*
X194040000Y-53900000D02*
X194040000Y-66260000D01*
X202260000Y-64840000D02*
X201310000Y-64840000D01*
X201310000Y-64840000D02*
X201310000Y-53900000D01*
X202260000Y-66260000D02*
X202260000Y-64840000D01*
X194040000Y-66260000D02*
X202260000Y-66260000D01*
X202200000Y-44000000D02*
G75*
G02*
X201700000Y-44000000I-250000J0D01*
G01*
X201700000Y-44000000D02*
G75*
G02*
X202200000Y-44000000I250000J0D01*
G01*
D14*
%TO.C,G\u002A\u002A\u002A*%
G36*
X142204815Y-87610876D02*
G01*
X142284341Y-87639568D01*
X142364608Y-87678509D01*
X142429652Y-87720435D01*
X142451926Y-87740744D01*
X142488292Y-87772614D01*
X142514979Y-87784201D01*
X142547218Y-87799946D01*
X142586903Y-87838310D01*
X142621724Y-87885983D01*
X142635522Y-87914524D01*
X142638896Y-87965725D01*
X142626351Y-88034538D01*
X142602700Y-88103205D01*
X142572756Y-88153963D01*
X142569759Y-88157209D01*
X142474400Y-88254690D01*
X142400532Y-88328030D01*
X142340980Y-88382405D01*
X142288569Y-88422988D01*
X142236126Y-88454956D01*
X142176475Y-88483483D01*
X142102444Y-88513743D01*
X142043866Y-88536540D01*
X141983555Y-88562391D01*
X141951418Y-88587165D01*
X141936620Y-88622423D01*
X141931113Y-88656874D01*
X141898237Y-88774058D01*
X141833244Y-88866824D01*
X141772732Y-88914015D01*
X141703998Y-88961401D01*
X141663435Y-89008103D01*
X141641160Y-89068704D01*
X141631893Y-89121840D01*
X141614684Y-89193125D01*
X141579656Y-89254750D01*
X141533841Y-89307648D01*
X141476255Y-89364405D01*
X141419443Y-89414827D01*
X141390550Y-89437304D01*
X141352623Y-89468303D01*
X141345007Y-89493513D01*
X141357196Y-89519268D01*
X141371217Y-89555441D01*
X141362552Y-89596492D01*
X141348847Y-89625379D01*
X141319749Y-89669438D01*
X141282881Y-89687671D01*
X141235964Y-89690738D01*
X141184460Y-89696403D01*
X141153103Y-89718488D01*
X141137192Y-89764632D01*
X141132027Y-89842472D01*
X141131878Y-89859867D01*
X141128962Y-89903813D01*
X141116240Y-89939374D01*
X141087183Y-89976147D01*
X141035266Y-90023729D01*
X141000497Y-90053069D01*
X140956613Y-90113830D01*
X140948584Y-90186914D01*
X140967556Y-90244177D01*
X140988654Y-90268931D01*
X141022526Y-90271258D01*
X141054683Y-90263522D01*
X141111139Y-90243893D01*
X141175615Y-90216464D01*
X141233693Y-90187931D01*
X141270953Y-90164989D01*
X141275101Y-90161166D01*
X141297468Y-90144600D01*
X141342282Y-90115713D01*
X141367352Y-90100344D01*
X141437165Y-90052885D01*
X141507132Y-89997458D01*
X141521105Y-89985047D01*
X141584747Y-89930889D01*
X141652959Y-89878777D01*
X141668044Y-89868254D01*
X141727973Y-89822168D01*
X141794154Y-89763478D01*
X141822555Y-89735532D01*
X141860897Y-89696933D01*
X141900341Y-89659774D01*
X141947790Y-89618076D01*
X142010146Y-89565859D01*
X142094312Y-89497144D01*
X142146418Y-89454984D01*
X142205409Y-89405550D01*
X142275142Y-89344639D01*
X142317715Y-89306260D01*
X142375666Y-89257788D01*
X142428773Y-89221157D01*
X142458999Y-89206661D01*
X142494806Y-89191995D01*
X142505125Y-89180668D01*
X142521558Y-89163450D01*
X142562065Y-89138480D01*
X142571751Y-89133450D01*
X142712183Y-89078717D01*
X142848813Y-89055851D01*
X142975545Y-89064575D01*
X143086283Y-89104615D01*
X143160290Y-89160035D01*
X143196363Y-89201072D01*
X143215090Y-89241760D01*
X143221946Y-89298163D01*
X143222639Y-89343085D01*
X143222253Y-89399814D01*
X143217349Y-89439813D01*
X143202308Y-89472837D01*
X143171510Y-89508637D01*
X143119337Y-89556968D01*
X143078442Y-89593362D01*
X143040847Y-89620486D01*
X143017635Y-89629237D01*
X142997716Y-89643365D01*
X142997134Y-89647732D01*
X142980067Y-89667255D01*
X142940758Y-89687026D01*
X142886658Y-89715244D01*
X142829975Y-89756298D01*
X142824818Y-89760783D01*
X142780151Y-89795088D01*
X142744965Y-89812995D01*
X142739884Y-89813741D01*
X142711112Y-89830215D01*
X142702715Y-89844492D01*
X142681595Y-89871643D01*
X142670799Y-89875242D01*
X142641509Y-89886699D01*
X142592360Y-89915604D01*
X142535483Y-89953760D01*
X142483007Y-89992970D01*
X142447065Y-90025037D01*
X142444080Y-90028446D01*
X142413467Y-90054570D01*
X142398295Y-90059746D01*
X142373888Y-90072373D01*
X142328925Y-90105482D01*
X142273133Y-90151908D01*
X142273030Y-90151998D01*
X142216184Y-90198593D01*
X142168888Y-90231757D01*
X142141595Y-90244249D01*
X142117514Y-90255861D01*
X142115617Y-90262802D01*
X142099473Y-90283167D01*
X142058320Y-90314438D01*
X142028490Y-90333376D01*
X141960942Y-90377453D01*
X141896877Y-90425078D01*
X141879862Y-90439297D01*
X141830012Y-90482321D01*
X141765049Y-90537533D01*
X141715908Y-90578852D01*
X141632552Y-90652486D01*
X141540260Y-90740423D01*
X141447048Y-90834369D01*
X141360932Y-90926035D01*
X141289930Y-91007130D01*
X141243008Y-91067954D01*
X141206142Y-91119418D01*
X141177346Y-91154619D01*
X141167473Y-91163351D01*
X141153083Y-91186959D01*
X141152098Y-91196716D01*
X141137722Y-91231420D01*
X141122665Y-91247676D01*
X141097630Y-91284276D01*
X141079089Y-91337312D01*
X141063555Y-91386315D01*
X141045501Y-91414882D01*
X141044867Y-91415313D01*
X141032024Y-91442507D01*
X141021354Y-91498846D01*
X141013800Y-91572495D01*
X141010302Y-91651617D01*
X141011798Y-91724375D01*
X141016844Y-91768073D01*
X141042336Y-91830559D01*
X141093449Y-91906098D01*
X141161789Y-91984851D01*
X141238962Y-92056979D01*
X141304585Y-92105320D01*
X141375172Y-92141854D01*
X141449800Y-92168791D01*
X141469854Y-92173482D01*
X141537938Y-92177656D01*
X141618689Y-92170705D01*
X141695223Y-92155208D01*
X141750660Y-92133745D01*
X141756860Y-92129623D01*
X141802347Y-92112065D01*
X141871092Y-92101811D01*
X141945853Y-92099775D01*
X142009389Y-92106870D01*
X142033275Y-92114981D01*
X142072284Y-92147722D01*
X142101604Y-92193450D01*
X142114907Y-92238426D01*
X142105865Y-92268910D01*
X142104624Y-92269871D01*
X142083452Y-92295966D01*
X142054812Y-92343724D01*
X142045964Y-92360541D01*
X142009901Y-92417212D01*
X141969858Y-92460700D01*
X141961714Y-92466756D01*
X141914357Y-92501785D01*
X141886370Y-92526466D01*
X141866451Y-92542794D01*
X141834342Y-92561924D01*
X141783417Y-92587163D01*
X141707055Y-92621819D01*
X141613357Y-92662819D01*
X141571036Y-92674598D01*
X141504531Y-92686461D01*
X141449354Y-92693479D01*
X141361909Y-92702733D01*
X141273406Y-92712252D01*
X141230940Y-92716896D01*
X141104796Y-92713965D01*
X140967713Y-92681389D01*
X140890816Y-92650929D01*
X140824877Y-92609893D01*
X140758558Y-92551363D01*
X140703155Y-92487057D01*
X140669964Y-92428696D01*
X140666974Y-92418719D01*
X140650367Y-92369275D01*
X140635400Y-92341800D01*
X140621946Y-92309346D01*
X140607001Y-92250729D01*
X140597134Y-92198297D01*
X140582314Y-92109495D01*
X140566180Y-92017344D01*
X140558717Y-91976533D01*
X140546060Y-91889454D01*
X140537823Y-91796842D01*
X140536719Y-91771529D01*
X140528127Y-91688315D01*
X140509132Y-91604828D01*
X140483356Y-91531510D01*
X140454424Y-91478800D01*
X140427704Y-91457396D01*
X140386527Y-91461540D01*
X140333693Y-91480665D01*
X140331276Y-91481853D01*
X140287227Y-91500088D01*
X140252177Y-91498584D01*
X140205963Y-91475738D01*
X140198402Y-91471305D01*
X140127839Y-91429672D01*
X140104794Y-91487849D01*
X140079766Y-91549572D01*
X140053162Y-91613347D01*
X140033290Y-91673973D01*
X140024592Y-91727897D01*
X140024576Y-91729563D01*
X140015360Y-91783975D01*
X139995836Y-91836494D01*
X139973394Y-91889528D01*
X139947309Y-91961944D01*
X139932711Y-92007284D01*
X139900318Y-92105392D01*
X139858917Y-92219113D01*
X139812964Y-92337294D01*
X139766913Y-92448778D01*
X139725217Y-92542411D01*
X139695322Y-92601796D01*
X139675673Y-92638640D01*
X139647130Y-92694040D01*
X139636568Y-92714882D01*
X139595659Y-92781821D01*
X139542438Y-92851749D01*
X139522851Y-92873760D01*
X139472551Y-92921239D01*
X139428308Y-92943705D01*
X139372433Y-92949571D01*
X139363483Y-92949554D01*
X139287373Y-92939651D01*
X139207854Y-92916033D01*
X139190974Y-92908778D01*
X139126235Y-92868406D01*
X139059317Y-92811645D01*
X139032096Y-92782834D01*
X138988946Y-92727629D01*
X138966968Y-92680160D01*
X138959240Y-92621224D01*
X138958555Y-92578815D01*
X138961855Y-92512716D01*
X138970384Y-92464554D01*
X138979055Y-92448043D01*
X138996184Y-92419172D01*
X138999556Y-92394938D01*
X139013288Y-92356037D01*
X139030306Y-92342704D01*
X139056560Y-92314670D01*
X139061057Y-92293561D01*
X139074556Y-92246258D01*
X139086682Y-92228815D01*
X139111953Y-92193729D01*
X139143532Y-92139859D01*
X139152690Y-92122476D01*
X139183419Y-92071348D01*
X139211836Y-92038197D01*
X139219316Y-92033469D01*
X139243575Y-92008375D01*
X139245561Y-91997916D01*
X139256862Y-91967638D01*
X139285696Y-91918625D01*
X139307062Y-91887535D01*
X139342286Y-91835661D01*
X139364538Y-91796644D01*
X139368563Y-91784735D01*
X139381070Y-91759733D01*
X139412611Y-91717580D01*
X139429737Y-91697431D01*
X139466896Y-91650712D01*
X139488792Y-91614383D01*
X139491238Y-91605538D01*
X139503862Y-91574502D01*
X139528506Y-91540456D01*
X139563056Y-91493566D01*
X139599794Y-91433889D01*
X139604920Y-91424567D01*
X139633231Y-91378556D01*
X139655773Y-91353073D01*
X139660231Y-91351271D01*
X139674699Y-91334825D01*
X139676069Y-91323596D01*
X139687407Y-91291675D01*
X139716193Y-91241987D01*
X139735011Y-91214554D01*
X139773311Y-91156604D01*
X139801573Y-91104764D01*
X139808144Y-91088476D01*
X139826546Y-91053432D01*
X139841454Y-91043765D01*
X139858902Y-91027371D01*
X139860573Y-91016090D01*
X139871911Y-90984169D01*
X139900697Y-90934480D01*
X139919515Y-90907048D01*
X139957815Y-90849097D01*
X139986077Y-90797258D01*
X139992648Y-90780970D01*
X140011050Y-90745926D01*
X140025957Y-90736259D01*
X140042765Y-90719563D01*
X140045076Y-90704445D01*
X140054277Y-90669011D01*
X140077029Y-90615930D01*
X140106056Y-90559448D01*
X140134084Y-90513813D01*
X140152703Y-90493671D01*
X140165825Y-90470168D01*
X140168079Y-90450055D01*
X140182898Y-90406331D01*
X140198829Y-90387752D01*
X140224862Y-90353218D01*
X140229580Y-90334687D01*
X140234963Y-90305853D01*
X140252506Y-90255691D01*
X140284302Y-90178736D01*
X140323061Y-90090496D01*
X140350937Y-90027423D01*
X140380550Y-89959620D01*
X140381580Y-89957244D01*
X140413054Y-89893113D01*
X140453127Y-89821842D01*
X140464405Y-89803491D01*
X140500508Y-89744658D01*
X140529923Y-89693974D01*
X140537172Y-89680488D01*
X140564293Y-89632746D01*
X140593767Y-89585887D01*
X140624919Y-89537334D01*
X140665602Y-89471914D01*
X140689855Y-89432133D01*
X140725134Y-89375751D01*
X140752852Y-89335049D01*
X140763968Y-89321731D01*
X140780650Y-89295630D01*
X140790352Y-89270480D01*
X140812803Y-89227802D01*
X140850431Y-89178597D01*
X140854616Y-89173998D01*
X140888634Y-89131417D01*
X140905646Y-89098531D01*
X140906093Y-89094946D01*
X140917988Y-89066037D01*
X140948172Y-89019459D01*
X140967595Y-88993725D01*
X141003509Y-88946232D01*
X141025664Y-88912799D01*
X141029096Y-88904742D01*
X141040077Y-88882364D01*
X141069673Y-88834590D01*
X141112868Y-88768691D01*
X141164640Y-88691939D01*
X141219973Y-88611606D01*
X141273847Y-88534964D01*
X141321243Y-88469285D01*
X141357143Y-88421839D01*
X141376529Y-88399900D01*
X141377991Y-88399213D01*
X141394205Y-88381912D01*
X141406091Y-88349676D01*
X141426983Y-88307566D01*
X141467417Y-88252195D01*
X141500565Y-88214751D01*
X141544953Y-88166171D01*
X141574744Y-88129006D01*
X141582607Y-88114487D01*
X141597069Y-88084695D01*
X141638029Y-88031330D01*
X141701849Y-87958616D01*
X141784892Y-87870779D01*
X141843094Y-87811915D01*
X141929899Y-87726957D01*
X141995064Y-87667729D01*
X142044767Y-87629842D01*
X142085190Y-87608908D01*
X142122513Y-87600540D01*
X142141993Y-87599697D01*
X142204815Y-87610876D01*
G37*
G36*
X138584114Y-88918407D02*
G01*
X138647165Y-88932121D01*
X138719069Y-88958621D01*
X138812783Y-89000857D01*
X138826047Y-89007093D01*
X138880080Y-89038310D01*
X138945683Y-89084452D01*
X139014632Y-89138593D01*
X139078701Y-89193807D01*
X139129667Y-89243168D01*
X139159305Y-89279753D01*
X139163559Y-89291305D01*
X139176176Y-89317859D01*
X139202603Y-89351161D01*
X139241816Y-89402301D01*
X139282865Y-89469001D01*
X139318747Y-89538118D01*
X139342457Y-89596507D01*
X139348063Y-89624139D01*
X139360095Y-89670600D01*
X139378161Y-89702196D01*
X139404827Y-89768215D01*
X139401650Y-89843671D01*
X139372911Y-89915275D01*
X139322894Y-89969734D01*
X139286027Y-89988164D01*
X139259814Y-90005289D01*
X139247862Y-90042264D01*
X139245561Y-90092831D01*
X139241888Y-90153272D01*
X139225635Y-90189202D01*
X139188950Y-90216835D01*
X139184189Y-90219577D01*
X139136020Y-90257031D01*
X139123767Y-90291848D01*
X139143059Y-90316001D01*
X139158187Y-90343893D01*
X139163559Y-90385389D01*
X139144735Y-90447874D01*
X139094899Y-90501793D01*
X139024002Y-90536845D01*
X139014931Y-90539205D01*
X138969765Y-90560362D01*
X138962528Y-90588960D01*
X138992655Y-90618323D01*
X139022737Y-90631620D01*
X139061623Y-90647931D01*
X139078651Y-90669764D01*
X139080088Y-90710752D01*
X139076309Y-90748133D01*
X139051779Y-90840047D01*
X139004842Y-90907142D01*
X138963758Y-90955969D01*
X138935603Y-90998538D01*
X138931413Y-91007889D01*
X138905766Y-91038278D01*
X138886940Y-91043765D01*
X138855800Y-91062359D01*
X138830638Y-91110533D01*
X138816495Y-91176879D01*
X138815052Y-91206460D01*
X138802706Y-91256537D01*
X138760326Y-91300962D01*
X138745030Y-91311965D01*
X138690559Y-91360602D01*
X138647854Y-91417651D01*
X138643378Y-91426271D01*
X138609975Y-91475529D01*
X138560745Y-91500126D01*
X138534022Y-91505726D01*
X138457481Y-91519797D01*
X138412848Y-91533951D01*
X138391496Y-91554426D01*
X138384797Y-91587460D01*
X138384230Y-91614033D01*
X138376575Y-91687849D01*
X138349661Y-91735757D01*
X138301964Y-91768258D01*
X138260731Y-91809517D01*
X138223824Y-91887181D01*
X138193319Y-91996718D01*
X138190063Y-92012409D01*
X138170533Y-92055803D01*
X138145693Y-92068785D01*
X138087833Y-92085954D01*
X138007814Y-92137373D01*
X137905816Y-92222909D01*
X137790032Y-92334323D01*
X137640709Y-92477294D01*
X137505243Y-92588743D01*
X137376437Y-92672331D01*
X137247091Y-92731717D01*
X137110008Y-92770560D01*
X136957988Y-92792521D01*
X136877764Y-92798132D01*
X136799368Y-92799284D01*
X136732841Y-92795233D01*
X136693260Y-92787060D01*
X136641186Y-92772514D01*
X136593921Y-92767240D01*
X136530280Y-92756340D01*
X136481169Y-92738060D01*
X136435899Y-92715225D01*
X136368033Y-92681267D01*
X136291717Y-92643264D01*
X136286521Y-92640683D01*
X136203973Y-92592754D01*
X136124888Y-92534833D01*
X136057073Y-92474043D01*
X136008334Y-92417507D01*
X135986477Y-92372346D01*
X135985996Y-92366499D01*
X135976511Y-92338905D01*
X135968243Y-92335291D01*
X135952531Y-92317581D01*
X135929288Y-92271447D01*
X135906742Y-92215308D01*
X135877669Y-92098797D01*
X135864132Y-91961511D01*
X135866944Y-91820941D01*
X135880348Y-91729622D01*
X136632632Y-91729622D01*
X136633755Y-91789383D01*
X136639425Y-91860976D01*
X136651288Y-91960439D01*
X136671038Y-92025917D01*
X136705543Y-92064415D01*
X136761672Y-92082936D01*
X136846291Y-92088483D01*
X136862667Y-92088634D01*
X136936488Y-92086171D01*
X136997319Y-92079119D01*
X137026670Y-92071087D01*
X137063904Y-92052724D01*
X137123598Y-92023947D01*
X137176349Y-91998812D01*
X137251159Y-91953648D01*
X137342210Y-91884062D01*
X137440828Y-91798196D01*
X137538338Y-91704189D01*
X137626064Y-91610180D01*
X137695332Y-91524311D01*
X137718281Y-91490314D01*
X137738196Y-91460197D01*
X137775605Y-91405252D01*
X137824508Y-91334249D01*
X137861783Y-91280527D01*
X137916547Y-91200494D01*
X137965018Y-91127226D01*
X138000604Y-91070817D01*
X138013610Y-91048149D01*
X138051666Y-90990653D01*
X138088089Y-90949589D01*
X138125812Y-90904936D01*
X138146571Y-90866251D01*
X138167167Y-90832625D01*
X138209378Y-90781958D01*
X138264419Y-90724717D01*
X138269404Y-90719888D01*
X138326808Y-90662402D01*
X138360755Y-90618874D01*
X138378431Y-90576022D01*
X138387021Y-90520564D01*
X138388945Y-90498958D01*
X138397659Y-90433577D01*
X138410088Y-90386061D01*
X138419499Y-90370490D01*
X138442152Y-90341449D01*
X138454188Y-90313161D01*
X138477901Y-90266810D01*
X138514171Y-90219348D01*
X138547169Y-90166458D01*
X138571640Y-90093972D01*
X138587164Y-90011002D01*
X138593317Y-89926662D01*
X138589678Y-89850065D01*
X138575825Y-89790323D01*
X138551335Y-89756551D01*
X138535803Y-89752240D01*
X138510149Y-89741234D01*
X138507546Y-89733329D01*
X138489974Y-89715715D01*
X138446239Y-89695220D01*
X138430670Y-89689852D01*
X138376144Y-89669593D01*
X138338603Y-89650585D01*
X138334318Y-89647261D01*
X138295561Y-89630159D01*
X138247447Y-89645609D01*
X138185837Y-89695300D01*
X138164847Y-89716364D01*
X138063764Y-89809680D01*
X137950799Y-89895292D01*
X137842135Y-89961132D01*
X137825698Y-89969278D01*
X137769307Y-90010271D01*
X137715159Y-90072484D01*
X137702052Y-90092497D01*
X137663668Y-90148456D01*
X137629534Y-90175541D01*
X137588185Y-90182745D01*
X137586997Y-90182748D01*
X137519354Y-90198859D01*
X137475080Y-90242226D01*
X137462025Y-90294771D01*
X137445334Y-90341436D01*
X137395183Y-90364522D01*
X137359009Y-90367252D01*
X137310611Y-90386149D01*
X137276951Y-90440930D01*
X137259367Y-90528730D01*
X137257021Y-90585580D01*
X137255623Y-90644829D01*
X137247862Y-90690416D01*
X137228394Y-90727995D01*
X137191873Y-90763224D01*
X137132953Y-90801755D01*
X137046288Y-90849245D01*
X136970549Y-90888626D01*
X136891905Y-90930527D01*
X136827506Y-90967243D01*
X136785833Y-90993805D01*
X136774975Y-91003228D01*
X136776342Y-91032964D01*
X136794575Y-91068791D01*
X136811716Y-91111706D01*
X136822656Y-91173945D01*
X136826721Y-91241490D01*
X136823238Y-91300321D01*
X136811535Y-91336420D01*
X136807590Y-91340046D01*
X136790511Y-91366524D01*
X136774881Y-91414796D01*
X136774130Y-91418133D01*
X136754859Y-91472378D01*
X136720619Y-91541804D01*
X136692372Y-91589702D01*
X136659264Y-91643491D01*
X136640243Y-91685561D01*
X136632632Y-91729622D01*
X135880348Y-91729622D01*
X135883224Y-91710028D01*
X135909762Y-91593617D01*
X135929582Y-91511158D01*
X135944385Y-91456477D01*
X135955872Y-91423400D01*
X135965743Y-91405750D01*
X135967656Y-91403547D01*
X135982822Y-91368445D01*
X135985996Y-91340839D01*
X135998231Y-91289925D01*
X136016095Y-91257812D01*
X136040328Y-91211941D01*
X136046846Y-91182327D01*
X136056297Y-91150346D01*
X136081376Y-91091439D01*
X136118021Y-91014642D01*
X136152840Y-90946573D01*
X136199351Y-90858077D01*
X136241867Y-90776889D01*
X136274833Y-90713633D01*
X136289612Y-90685008D01*
X136315039Y-90640056D01*
X136334316Y-90614012D01*
X136335259Y-90613257D01*
X136352459Y-90587140D01*
X136362265Y-90562006D01*
X136384944Y-90518664D01*
X136422234Y-90470172D01*
X136423997Y-90468254D01*
X136461850Y-90419567D01*
X136485926Y-90374542D01*
X136486380Y-90373163D01*
X136509576Y-90328784D01*
X136547170Y-90279745D01*
X136548822Y-90277946D01*
X136586035Y-90231274D01*
X136609342Y-90190320D01*
X136609971Y-90188534D01*
X136629398Y-90156834D01*
X136669807Y-90106061D01*
X136723193Y-90046138D01*
X136734565Y-90034094D01*
X136787202Y-89977605D01*
X136826652Y-89932796D01*
X136846083Y-89907502D01*
X136847013Y-89905102D01*
X136861250Y-89877022D01*
X136899860Y-89827946D01*
X136956694Y-89764250D01*
X137025602Y-89692312D01*
X137100433Y-89618511D01*
X137175039Y-89549222D01*
X137243268Y-89490825D01*
X137257021Y-89479909D01*
X137329013Y-89422770D01*
X137396587Y-89367413D01*
X137446638Y-89324598D01*
X137451775Y-89319968D01*
X137549834Y-89244486D01*
X137673721Y-89170743D01*
X137708030Y-89153187D01*
X137749246Y-89130422D01*
X137769532Y-89115539D01*
X137796179Y-89097012D01*
X137843684Y-89072047D01*
X137894909Y-89048831D01*
X137932716Y-89035550D01*
X137938711Y-89034726D01*
X137969415Y-89027225D01*
X138018067Y-89008971D01*
X138022688Y-89007009D01*
X138182895Y-88953065D01*
X138360576Y-88923095D01*
X138432748Y-88917535D01*
X138516960Y-88914528D01*
X138584114Y-88918407D01*
G37*
G36*
X135384356Y-87566576D02*
G01*
X135495972Y-87587480D01*
X135604241Y-87617308D01*
X135692050Y-87651961D01*
X135705656Y-87659113D01*
X135771645Y-87713426D01*
X135820229Y-87786248D01*
X135840920Y-87861728D01*
X135840995Y-87863695D01*
X135826026Y-87920065D01*
X135779473Y-87998518D01*
X135702994Y-88097129D01*
X135598243Y-88213975D01*
X135466876Y-88347133D01*
X135310549Y-88494678D01*
X135253013Y-88546874D01*
X135183306Y-88604957D01*
X135098401Y-88669057D01*
X135009373Y-88731466D01*
X134927299Y-88784478D01*
X134863254Y-88820387D01*
X134853349Y-88824940D01*
X134810032Y-88855471D01*
X134797023Y-88903887D01*
X134796973Y-88908519D01*
X134810721Y-88963541D01*
X134845952Y-89027218D01*
X134893649Y-89088203D01*
X134944791Y-89135151D01*
X134990362Y-89156715D01*
X134994509Y-89157046D01*
X135027886Y-89166404D01*
X135075825Y-89187996D01*
X135076510Y-89188352D01*
X135122073Y-89203665D01*
X135192645Y-89213437D01*
X135294270Y-89218291D01*
X135374900Y-89219103D01*
X135469958Y-89220681D01*
X135549274Y-89224879D01*
X135604291Y-89231047D01*
X135626265Y-89238152D01*
X135653131Y-89255963D01*
X135695954Y-89269813D01*
X135774459Y-89307012D01*
X135843125Y-89377936D01*
X135898903Y-89475874D01*
X135938739Y-89594116D01*
X135959584Y-89725952D01*
X135959657Y-89849729D01*
X135946901Y-89977228D01*
X135928843Y-90102387D01*
X135907424Y-90214465D01*
X135884587Y-90302724D01*
X135871090Y-90339599D01*
X135851556Y-90389742D01*
X135842561Y-90424693D01*
X135842494Y-90426365D01*
X135832476Y-90453733D01*
X135806077Y-90505180D01*
X135768780Y-90570100D01*
X135764605Y-90577020D01*
X135678063Y-90740556D01*
X135623792Y-90894753D01*
X135605803Y-90982264D01*
X135571278Y-91075812D01*
X135499726Y-91163193D01*
X135395076Y-91240139D01*
X135342391Y-91268225D01*
X135247982Y-91313928D01*
X135247982Y-91432591D01*
X135244327Y-91508707D01*
X135228783Y-91559032D01*
X135194481Y-91588782D01*
X135134551Y-91603176D01*
X135042124Y-91607432D01*
X135017688Y-91607526D01*
X134918392Y-91611742D01*
X134853118Y-91627090D01*
X134815504Y-91657617D01*
X134799187Y-91707371D01*
X134796973Y-91747957D01*
X134788060Y-91792755D01*
X134757082Y-91840152D01*
X134699596Y-91898202D01*
X134631211Y-91971456D01*
X134599429Y-92031637D01*
X134597413Y-92043570D01*
X134593167Y-92098084D01*
X134588045Y-92170547D01*
X134585951Y-92202038D01*
X134579296Y-92304540D01*
X134457505Y-92309614D01*
X134335730Y-92317781D01*
X134253768Y-92330820D01*
X134210655Y-92349286D01*
X134205433Y-92373737D01*
X134237138Y-92404726D01*
X134264092Y-92421464D01*
X134313174Y-92459887D01*
X134322611Y-92495319D01*
X134293730Y-92526385D01*
X134227855Y-92551709D01*
X134126312Y-92569915D01*
X134120460Y-92570598D01*
X134035630Y-92588258D01*
X133958476Y-92617625D01*
X133935956Y-92630376D01*
X133845376Y-92684902D01*
X133766445Y-92718506D01*
X133683455Y-92735554D01*
X133580697Y-92740412D01*
X133541159Y-92740106D01*
X133457167Y-92737061D01*
X133387690Y-92731382D01*
X133343838Y-92724099D01*
X133336155Y-92721095D01*
X133298178Y-92709258D01*
X133248629Y-92704612D01*
X133189236Y-92695074D01*
X133146127Y-92676167D01*
X133096750Y-92651546D01*
X133039063Y-92633537D01*
X132993884Y-92618673D01*
X132972666Y-92601783D01*
X132972437Y-92600167D01*
X132955968Y-92583080D01*
X132943880Y-92581295D01*
X132912232Y-92564759D01*
X132903522Y-92550545D01*
X132878677Y-92523316D01*
X132864897Y-92519794D01*
X132824852Y-92503367D01*
X132774237Y-92460428D01*
X132722058Y-92400490D01*
X132677324Y-92333065D01*
X132664462Y-92308122D01*
X132641112Y-92249817D01*
X132629330Y-92191636D01*
X132627006Y-92118241D01*
X132629584Y-92054799D01*
X132644005Y-91900678D01*
X132671335Y-91769085D01*
X132696289Y-91698451D01*
X133382445Y-91698451D01*
X133389991Y-91785185D01*
X133410056Y-91872767D01*
X133438785Y-91950651D01*
X133472321Y-92008292D01*
X133505448Y-92034791D01*
X133605152Y-92045361D01*
X133708354Y-92027543D01*
X133756807Y-92007284D01*
X133809130Y-91981690D01*
X133847260Y-91967377D01*
X133854058Y-91966283D01*
X133882979Y-91951995D01*
X133934019Y-91912660D01*
X134001721Y-91853571D01*
X134080625Y-91780021D01*
X134165272Y-91697302D01*
X134250206Y-91610708D01*
X134329965Y-91525531D01*
X134399093Y-91447065D01*
X134435462Y-91402522D01*
X134484998Y-91339365D01*
X134526580Y-91286592D01*
X134552081Y-91254517D01*
X134553751Y-91252455D01*
X134573383Y-91225140D01*
X134609966Y-91171528D01*
X134658062Y-91099667D01*
X134706101Y-91026950D01*
X134759178Y-90946421D01*
X134804819Y-90877706D01*
X134837857Y-90828552D01*
X134852576Y-90807398D01*
X134870342Y-90778206D01*
X134898724Y-90725772D01*
X134919975Y-90684396D01*
X134950652Y-90626313D01*
X134975342Y-90584709D01*
X134985306Y-90571847D01*
X135005079Y-90544585D01*
X135034169Y-90490749D01*
X135067169Y-90422032D01*
X135098669Y-90350127D01*
X135123262Y-90286724D01*
X135134461Y-90249374D01*
X135149179Y-90204186D01*
X135166001Y-90182975D01*
X135167609Y-90182748D01*
X135184897Y-90166951D01*
X135184873Y-90126661D01*
X135171346Y-90072527D01*
X135148123Y-90015202D01*
X135119009Y-89965335D01*
X135087813Y-89933577D01*
X135076774Y-89928620D01*
X134950350Y-89915793D01*
X134814593Y-89942109D01*
X134670871Y-90007133D01*
X134529310Y-90103489D01*
X134442187Y-90179113D01*
X134341074Y-90278294D01*
X134235431Y-90390960D01*
X134134715Y-90507033D01*
X134050818Y-90613159D01*
X134007240Y-90671267D01*
X133973383Y-90715452D01*
X133956525Y-90736213D01*
X133956478Y-90736259D01*
X133939360Y-90754751D01*
X133900740Y-90797261D01*
X133846503Y-90857293D01*
X133788038Y-90922226D01*
X133717672Y-90996986D01*
X133649449Y-91063373D01*
X133592084Y-91113233D01*
X133559760Y-91135802D01*
X133520475Y-91158776D01*
X133500564Y-91181812D01*
X133495085Y-91217863D01*
X133499097Y-91279883D01*
X133500186Y-91291943D01*
X133504365Y-91362423D01*
X133497803Y-91410089D01*
X133475736Y-91452691D01*
X133446678Y-91491325D01*
X133409541Y-91543819D01*
X133390188Y-91592276D01*
X133383107Y-91654474D01*
X133382445Y-91698451D01*
X132696289Y-91698451D01*
X132716085Y-91642418D01*
X132759079Y-91549489D01*
X132779724Y-91498552D01*
X132787933Y-91460400D01*
X132797126Y-91420364D01*
X132816759Y-91374935D01*
X132877237Y-91228771D01*
X132924094Y-91044260D01*
X132957363Y-90821262D01*
X132969551Y-90686673D01*
X132979659Y-90587289D01*
X132992612Y-90522565D01*
X133007779Y-90495593D01*
X133008444Y-90495336D01*
X133032211Y-90471850D01*
X133033938Y-90462487D01*
X133047843Y-90439477D01*
X133085741Y-90394612D01*
X133141905Y-90334284D01*
X133210611Y-90264885D01*
X133213317Y-90262229D01*
X133304039Y-90171350D01*
X133403471Y-90068693D01*
X133497008Y-89969464D01*
X133546448Y-89915426D01*
X133612286Y-89842488D01*
X133671143Y-89777714D01*
X133715720Y-89729115D01*
X133736077Y-89707385D01*
X133763539Y-89672746D01*
X133771953Y-89652926D01*
X133784339Y-89627603D01*
X133815018Y-89586673D01*
X133824084Y-89576050D01*
X133907928Y-89474496D01*
X134002220Y-89350833D01*
X134096963Y-89218490D01*
X134162150Y-89121852D01*
X134201121Y-89065812D01*
X134232612Y-89026884D01*
X134248259Y-89014225D01*
X134262731Y-88997854D01*
X134263963Y-88987513D01*
X134275355Y-88956241D01*
X134304281Y-88907114D01*
X134323181Y-88879886D01*
X134359260Y-88825441D01*
X134406502Y-88746669D01*
X134461488Y-88650077D01*
X134520799Y-88542170D01*
X134581016Y-88429454D01*
X134638719Y-88318436D01*
X134690491Y-88215620D01*
X134732912Y-88127515D01*
X134762562Y-88060625D01*
X134776023Y-88021456D01*
X134776473Y-88017335D01*
X134787498Y-87991767D01*
X134795344Y-87989205D01*
X134812432Y-87971532D01*
X134827457Y-87928900D01*
X134827724Y-87927704D01*
X134841951Y-87884686D01*
X134857538Y-87866215D01*
X134857881Y-87866203D01*
X134875115Y-87848967D01*
X134886214Y-87819650D01*
X134914557Y-87764837D01*
X134968672Y-87702165D01*
X135037804Y-87642398D01*
X135107703Y-87598053D01*
X135188764Y-87570350D01*
X135280901Y-87558743D01*
X135286510Y-87558697D01*
X135384356Y-87566576D01*
G37*
G36*
X144512409Y-89406430D02*
G01*
X144575526Y-89416977D01*
X144630382Y-89439056D01*
X144663478Y-89457783D01*
X144761944Y-89538080D01*
X144828100Y-89637242D01*
X144859356Y-89748811D01*
X144853120Y-89866329D01*
X144842702Y-89904382D01*
X144816030Y-89957751D01*
X144773418Y-90016624D01*
X144724333Y-90070473D01*
X144678242Y-90108770D01*
X144647689Y-90121247D01*
X144610673Y-90137688D01*
X144563668Y-90179956D01*
X144515538Y-90237469D01*
X144475148Y-90299646D01*
X144451473Y-90355471D01*
X144436036Y-90414094D01*
X144423805Y-90457450D01*
X144421544Y-90464629D01*
X144395224Y-90481253D01*
X144332894Y-90489502D01*
X144299046Y-90490254D01*
X144232612Y-90492124D01*
X144195198Y-90500856D01*
X144174881Y-90521132D01*
X144165150Y-90542840D01*
X144155350Y-90588852D01*
X144148179Y-90661034D01*
X144145057Y-90744571D01*
X144145022Y-90752969D01*
X144143473Y-90818877D01*
X144136676Y-90875047D01*
X144121222Y-90927293D01*
X144093702Y-90981428D01*
X144050706Y-91043267D01*
X143988823Y-91118623D01*
X143904645Y-91213310D01*
X143822276Y-91303282D01*
X143790209Y-91341554D01*
X143774728Y-91366733D01*
X143774544Y-91367703D01*
X143772582Y-91393888D01*
X143768916Y-91449452D01*
X143764306Y-91522849D01*
X143763870Y-91529939D01*
X143751754Y-91630217D01*
X143730121Y-91725664D01*
X143712627Y-91775944D01*
X143690395Y-91844484D01*
X143670168Y-91936033D01*
X143655796Y-92032638D01*
X143654211Y-92048285D01*
X143626524Y-92222931D01*
X143578964Y-92382730D01*
X143514527Y-92520715D01*
X143436204Y-92629922D01*
X143382978Y-92679362D01*
X143333050Y-92714691D01*
X143288980Y-92734465D01*
X143235420Y-92743033D01*
X143157020Y-92744744D01*
X143152286Y-92744728D01*
X143070561Y-92742285D01*
X143014739Y-92733086D01*
X142969814Y-92713153D01*
X142930429Y-92685891D01*
X142848668Y-92616460D01*
X142797221Y-92550163D01*
X142768622Y-92474199D01*
X142756269Y-92387243D01*
X142752731Y-92314081D01*
X142758379Y-92256444D01*
X142776761Y-92197412D01*
X142811423Y-92120067D01*
X142812961Y-92116848D01*
X142857560Y-92027545D01*
X142905799Y-91937318D01*
X142953122Y-91853980D01*
X142994977Y-91785342D01*
X143026807Y-91739217D01*
X143042179Y-91723695D01*
X143058321Y-91700217D01*
X143058636Y-91696035D01*
X143068464Y-91671381D01*
X143093674Y-91623092D01*
X143127849Y-91562261D01*
X143164573Y-91499980D01*
X143197431Y-91447341D01*
X143220008Y-91415437D01*
X143222465Y-91412772D01*
X143238808Y-91387169D01*
X143266074Y-91335558D01*
X143299117Y-91268760D01*
X143332792Y-91197598D01*
X143361951Y-91132893D01*
X143381450Y-91085467D01*
X143386642Y-91067519D01*
X143400449Y-91045073D01*
X143407143Y-91043765D01*
X143425014Y-91027030D01*
X143427643Y-91011052D01*
X143436976Y-90969752D01*
X143456855Y-90923926D01*
X143479901Y-90875303D01*
X143509543Y-90805337D01*
X143532703Y-90746509D01*
X143559454Y-90679471D01*
X143582642Y-90627471D01*
X143595743Y-90604031D01*
X143611185Y-90567133D01*
X143612842Y-90552780D01*
X143621808Y-90515463D01*
X143643447Y-90460007D01*
X143653147Y-90439003D01*
X143677751Y-90381888D01*
X143692053Y-90336782D01*
X143693453Y-90326787D01*
X143703111Y-90294104D01*
X143728812Y-90233115D01*
X143766747Y-90151388D01*
X143813107Y-90056491D01*
X143864084Y-89955993D01*
X143915871Y-89857462D01*
X143964659Y-89768467D01*
X144006639Y-89696576D01*
X144025248Y-89667367D01*
X144081244Y-89592605D01*
X144145425Y-89519729D01*
X144189081Y-89477738D01*
X144236887Y-89439131D01*
X144276986Y-89416978D01*
X144323859Y-89406732D01*
X144391985Y-89403846D01*
X144424767Y-89403733D01*
X144512409Y-89406430D01*
G37*
G36*
X127892626Y-87995900D02*
G01*
X127938633Y-88006614D01*
X127986897Y-88028748D01*
X128011339Y-88039401D01*
X128084563Y-88081651D01*
X128152237Y-88140385D01*
X128205141Y-88205456D01*
X128234058Y-88266715D01*
X128236844Y-88287649D01*
X128247214Y-88328483D01*
X128262276Y-88358490D01*
X128277442Y-88400383D01*
X128262276Y-88439936D01*
X128241814Y-88485032D01*
X128236844Y-88510889D01*
X128222856Y-88545801D01*
X128191978Y-88582918D01*
X128174741Y-88596868D01*
X128153274Y-88607328D01*
X128121861Y-88614801D01*
X128074785Y-88619795D01*
X128006330Y-88622812D01*
X127910778Y-88624359D01*
X127782414Y-88624941D01*
X127715343Y-88625020D01*
X127560762Y-88625762D01*
X127442178Y-88627947D01*
X127354603Y-88631880D01*
X127293048Y-88637866D01*
X127252525Y-88646209D01*
X127232324Y-88654541D01*
X127125953Y-88708361D01*
X127026098Y-88741126D01*
X126912036Y-88759109D01*
X126876763Y-88762194D01*
X126715613Y-88774621D01*
X126679928Y-88858548D01*
X126655919Y-88931049D01*
X126636719Y-89016709D01*
X126631553Y-89051704D01*
X126618715Y-89123338D01*
X126598394Y-89196984D01*
X126574525Y-89261794D01*
X126551046Y-89306918D01*
X126533588Y-89321731D01*
X126518124Y-89338923D01*
X126507658Y-89367857D01*
X126489456Y-89399233D01*
X126447860Y-89452431D01*
X126388693Y-89520513D01*
X126317777Y-89596535D01*
X126303209Y-89611556D01*
X126223982Y-89691888D01*
X126165837Y-89747493D01*
X126121686Y-89783438D01*
X126084446Y-89804789D01*
X126047029Y-89816613D01*
X126007036Y-89823340D01*
X125941032Y-89837146D01*
X125902621Y-89862316D01*
X125884563Y-89908395D01*
X125879618Y-89984931D01*
X125879577Y-89991420D01*
X125871559Y-90050510D01*
X125851400Y-90117265D01*
X125824278Y-90179758D01*
X125795375Y-90226062D01*
X125769868Y-90244249D01*
X125769784Y-90244249D01*
X125732583Y-90258725D01*
X125717145Y-90272770D01*
X125679908Y-90298133D01*
X125637758Y-90312243D01*
X125563866Y-90330658D01*
X125497145Y-90353911D01*
X125448376Y-90377583D01*
X125428343Y-90397255D01*
X125428289Y-90398087D01*
X125442825Y-90424995D01*
X125474957Y-90447332D01*
X125507467Y-90455656D01*
X125520800Y-90448834D01*
X125549245Y-90426678D01*
X125576537Y-90438165D01*
X125591682Y-90477135D01*
X125592292Y-90488893D01*
X125585555Y-90533430D01*
X125557676Y-90552099D01*
X125537497Y-90555519D01*
X125487656Y-90577031D01*
X125467638Y-90613257D01*
X125454042Y-90660110D01*
X125434032Y-90729730D01*
X125416052Y-90792635D01*
X125395038Y-90858111D01*
X125375729Y-90904293D01*
X125362908Y-90920763D01*
X125347070Y-90936761D01*
X125346287Y-90943707D01*
X125335278Y-90976082D01*
X125306644Y-91030945D01*
X125266973Y-91097695D01*
X125222852Y-91165735D01*
X125180870Y-91224462D01*
X125147734Y-91263166D01*
X125114804Y-91298131D01*
X125100314Y-91320712D01*
X125100282Y-91321217D01*
X125087977Y-91343975D01*
X125056179Y-91387846D01*
X125012566Y-91443235D01*
X124964814Y-91500549D01*
X124920603Y-91550193D01*
X124900660Y-91570672D01*
X124868303Y-91605947D01*
X124854293Y-91628715D01*
X124854277Y-91629075D01*
X124846785Y-91655174D01*
X124828497Y-91701224D01*
X124826024Y-91706930D01*
X124786621Y-91804122D01*
X124749552Y-91907809D01*
X124720502Y-92001441D01*
X124708778Y-92048285D01*
X124687312Y-92142278D01*
X124661856Y-92242098D01*
X124634983Y-92338921D01*
X124609266Y-92423923D01*
X124587276Y-92488279D01*
X124571588Y-92523165D01*
X124569589Y-92525677D01*
X124548847Y-92565732D01*
X124546771Y-92581540D01*
X124527882Y-92627805D01*
X124477005Y-92666068D01*
X124402823Y-92693509D01*
X124314021Y-92707305D01*
X124219282Y-92704635D01*
X124185162Y-92699051D01*
X124068361Y-92661889D01*
X123961751Y-92603288D01*
X123871198Y-92529172D01*
X123802570Y-92445464D01*
X123761733Y-92358090D01*
X123754556Y-92272973D01*
X123755781Y-92265521D01*
X123766458Y-92222243D01*
X123784633Y-92173769D01*
X123813744Y-92113033D01*
X123857229Y-92032966D01*
X123918527Y-91926500D01*
X123931251Y-91904782D01*
X123969719Y-91841491D01*
X124023771Y-91755713D01*
X124090110Y-91652404D01*
X124165440Y-91536520D01*
X124246467Y-91413017D01*
X124329895Y-91286851D01*
X124412428Y-91162978D01*
X124490770Y-91046355D01*
X124561626Y-90941937D01*
X124621700Y-90854680D01*
X124667696Y-90789542D01*
X124696320Y-90751477D01*
X124702956Y-90744249D01*
X124727540Y-90713427D01*
X124731275Y-90699588D01*
X124744274Y-90667441D01*
X124757730Y-90650597D01*
X124779046Y-90622345D01*
X124815548Y-90567632D01*
X124861490Y-90495249D01*
X124896049Y-90439003D01*
X124947839Y-90355968D01*
X124997079Y-90281171D01*
X125036866Y-90224903D01*
X125054098Y-90203458D01*
X125085906Y-90161353D01*
X125100219Y-90128670D01*
X125100282Y-90127288D01*
X125113625Y-90098055D01*
X125147046Y-90055055D01*
X125161783Y-90039245D01*
X125199723Y-89996575D01*
X125221358Y-89964761D01*
X125223285Y-89958326D01*
X125233991Y-89932749D01*
X125261713Y-89884083D01*
X125299850Y-89822755D01*
X125341804Y-89759196D01*
X125380977Y-89703832D01*
X125399083Y-89680488D01*
X125431437Y-89631828D01*
X125460717Y-89574739D01*
X125483937Y-89529067D01*
X125503242Y-89503843D01*
X125504739Y-89502988D01*
X125522752Y-89481424D01*
X125551868Y-89432592D01*
X125587485Y-89365908D01*
X125624999Y-89290786D01*
X125659810Y-89216640D01*
X125687315Y-89152884D01*
X125702911Y-89108934D01*
X125704228Y-89094906D01*
X125670858Y-89077179D01*
X125614304Y-89085356D01*
X125564323Y-89106603D01*
X125499831Y-89129475D01*
X125441321Y-89137954D01*
X125376580Y-89148218D01*
X125325787Y-89167978D01*
X125269107Y-89188555D01*
X125202638Y-89197963D01*
X125200169Y-89198002D01*
X125143530Y-89206519D01*
X125103215Y-89226392D01*
X125100282Y-89229479D01*
X125063324Y-89250640D01*
X125008332Y-89260185D01*
X125004502Y-89260230D01*
X124934997Y-89270266D01*
X124869688Y-89293613D01*
X124804384Y-89312060D01*
X124715490Y-89317807D01*
X124618132Y-89311648D01*
X124527435Y-89294378D01*
X124468749Y-89272538D01*
X124384597Y-89208891D01*
X124325096Y-89123246D01*
X124291840Y-89024697D01*
X124286424Y-88922340D01*
X124310443Y-88825271D01*
X124365492Y-88742585D01*
X124374330Y-88733995D01*
X124432394Y-88691944D01*
X124517961Y-88644714D01*
X124619141Y-88598498D01*
X124680024Y-88574698D01*
X124735345Y-88557104D01*
X124810892Y-88536352D01*
X124894355Y-88515423D01*
X124973424Y-88497294D01*
X125035790Y-88484944D01*
X125066376Y-88481215D01*
X125108112Y-88476666D01*
X125173665Y-88464880D01*
X125232225Y-88452189D01*
X125310867Y-88435100D01*
X125411977Y-88414883D01*
X125517570Y-88395093D01*
X125551291Y-88389095D01*
X125664013Y-88368473D01*
X125787634Y-88344453D01*
X125899090Y-88321544D01*
X125920298Y-88316968D01*
X126006437Y-88298242D01*
X126082641Y-88281834D01*
X126135896Y-88270539D01*
X126145803Y-88268494D01*
X126192359Y-88258136D01*
X126262395Y-88241566D01*
X126330306Y-88224952D01*
X126492641Y-88187572D01*
X126675173Y-88150457D01*
X126857281Y-88117735D01*
X126904318Y-88110091D01*
X126980144Y-88096414D01*
X127044261Y-88081904D01*
X127078571Y-88071250D01*
X127142063Y-88051693D01*
X127233748Y-88033735D01*
X127344996Y-88018026D01*
X127467177Y-88005213D01*
X127591660Y-87995945D01*
X127709816Y-87990872D01*
X127813015Y-87990641D01*
X127892626Y-87995900D01*
G37*
G36*
X147575167Y-88414426D02*
G01*
X147671821Y-88428972D01*
X147743311Y-88456953D01*
X147797266Y-88501645D01*
X147841312Y-88566324D01*
X147850605Y-88583904D01*
X147885159Y-88667632D01*
X147894838Y-88741061D01*
X147877083Y-88809129D01*
X147829334Y-88876774D01*
X147749031Y-88948935D01*
X147633613Y-89030549D01*
X147611642Y-89044862D01*
X147536033Y-89094737D01*
X147475285Y-89136792D01*
X147436442Y-89166022D01*
X147425874Y-89176871D01*
X147444256Y-89210132D01*
X147488530Y-89251348D01*
X147546866Y-89292409D01*
X147607433Y-89325204D01*
X147658402Y-89341623D01*
X147667071Y-89342232D01*
X147726980Y-89352253D01*
X147804648Y-89377822D01*
X147883425Y-89412196D01*
X147946658Y-89448631D01*
X147964146Y-89462527D01*
X148032328Y-89543807D01*
X148069873Y-89637775D01*
X148081235Y-89754008D01*
X148080177Y-89810169D01*
X148072840Y-89849548D01*
X148052980Y-89875358D01*
X148014352Y-89890812D01*
X147950713Y-89899123D01*
X147855817Y-89903504D01*
X147786927Y-89905431D01*
X147602801Y-89913761D01*
X147456016Y-89927860D01*
X147347711Y-89947581D01*
X147283933Y-89970093D01*
X147228476Y-89991079D01*
X147185552Y-89998118D01*
X147144662Y-90005931D01*
X147128941Y-90017168D01*
X147102234Y-90034684D01*
X147055979Y-90049547D01*
X147013057Y-90063920D01*
X146994722Y-90079872D01*
X146994713Y-90080167D01*
X146977758Y-90099156D01*
X146946242Y-90114413D01*
X146904064Y-90136883D01*
X146852146Y-90174327D01*
X146801566Y-90217342D01*
X146763397Y-90256525D01*
X146748708Y-90282114D01*
X146734656Y-90309389D01*
X146717958Y-90326251D01*
X146691680Y-90365916D01*
X146687207Y-90388798D01*
X146669085Y-90440331D01*
X146624229Y-90478338D01*
X146576407Y-90490254D01*
X146521578Y-90509417D01*
X146458541Y-90564642D01*
X146390238Y-90652540D01*
X146319613Y-90769717D01*
X146297654Y-90811564D01*
X146227610Y-90933746D01*
X146149793Y-91043869D01*
X146097911Y-91103763D01*
X146043254Y-91161493D01*
X146011158Y-91203423D01*
X145995618Y-91243166D01*
X145990626Y-91294334D01*
X145990193Y-91347899D01*
X145988984Y-91419574D01*
X145980974Y-91467120D01*
X145959585Y-91505756D01*
X145918244Y-91550701D01*
X145891047Y-91577361D01*
X145830318Y-91633790D01*
X145772176Y-91683337D01*
X145735195Y-91711090D01*
X145667122Y-91774875D01*
X145609717Y-91863594D01*
X145572740Y-91961192D01*
X145567553Y-91986811D01*
X145562588Y-92046579D01*
X145576071Y-92088449D01*
X145608868Y-92128128D01*
X145643861Y-92170392D01*
X145652365Y-92205182D01*
X145641869Y-92244919D01*
X145619222Y-92300839D01*
X145590720Y-92363492D01*
X145562950Y-92419189D01*
X145542500Y-92454240D01*
X145539184Y-92458293D01*
X145521966Y-92482785D01*
X145506755Y-92508664D01*
X145479297Y-92543588D01*
X145431661Y-92591708D01*
X145390846Y-92628228D01*
X145299676Y-92689341D01*
X145205766Y-92715788D01*
X145098112Y-92709900D01*
X145052300Y-92699920D01*
X144999521Y-92683006D01*
X144968564Y-92666089D01*
X144965173Y-92660384D01*
X144948816Y-92644214D01*
X144938258Y-92642797D01*
X144895967Y-92624899D01*
X144848586Y-92578139D01*
X144802833Y-92512918D01*
X144765430Y-92439637D01*
X144743097Y-92368696D01*
X144739669Y-92335454D01*
X144749588Y-92280515D01*
X144775852Y-92202795D01*
X144813220Y-92114368D01*
X144856453Y-92027313D01*
X144900310Y-91953706D01*
X144913194Y-91935533D01*
X144948477Y-91881270D01*
X144972616Y-91831582D01*
X144973855Y-91827906D01*
X144992231Y-91792153D01*
X145007555Y-91781780D01*
X145025822Y-91765884D01*
X145026674Y-91759244D01*
X145036602Y-91733592D01*
X145062260Y-91684033D01*
X145097467Y-91621309D01*
X145136037Y-91556167D01*
X145171788Y-91499349D01*
X145196588Y-91464023D01*
X145214226Y-91438646D01*
X145248161Y-91387541D01*
X145292582Y-91319509D01*
X145318439Y-91279520D01*
X145365804Y-91207884D01*
X145405967Y-91150565D01*
X145433213Y-91115552D01*
X145440655Y-91108683D01*
X145456454Y-91085117D01*
X145457183Y-91077754D01*
X145468195Y-91052332D01*
X145497462Y-91002118D01*
X145539332Y-90935629D01*
X145588151Y-90861382D01*
X145638267Y-90787894D01*
X145684026Y-90723682D01*
X145719776Y-90677263D01*
X145732367Y-90663150D01*
X145764101Y-90617822D01*
X145774978Y-90592635D01*
X145791391Y-90559630D01*
X145802374Y-90551755D01*
X145819547Y-90535316D01*
X145847756Y-90493242D01*
X145867191Y-90459504D01*
X145898654Y-90407070D01*
X145924126Y-90373650D01*
X145933389Y-90367252D01*
X145942833Y-90348925D01*
X145948482Y-90302579D01*
X145949193Y-90275391D01*
X145946677Y-90217785D01*
X145934550Y-90188477D01*
X145905945Y-90174853D01*
X145892816Y-90171875D01*
X145802156Y-90150353D01*
X145721597Y-90126246D01*
X145663037Y-90103349D01*
X145644625Y-90092729D01*
X145603748Y-90066494D01*
X145572874Y-90049783D01*
X145535382Y-90014460D01*
X145522383Y-89982356D01*
X145509962Y-89946569D01*
X145496758Y-89936743D01*
X145484932Y-89918524D01*
X145478242Y-89872887D01*
X145477683Y-89852716D01*
X145485595Y-89785995D01*
X145515997Y-89734826D01*
X145539739Y-89710721D01*
X145595383Y-89669431D01*
X145652973Y-89641986D01*
X145662507Y-89639417D01*
X145709453Y-89624157D01*
X145734913Y-89607160D01*
X145760973Y-89595278D01*
X145812067Y-89588390D01*
X145832525Y-89587747D01*
X145912387Y-89581686D01*
X145992923Y-89567542D01*
X146000444Y-89565645D01*
X146070896Y-89549363D01*
X146155417Y-89532878D01*
X146193153Y-89526483D01*
X146256890Y-89513274D01*
X146302555Y-89498048D01*
X146316361Y-89488710D01*
X146343985Y-89469036D01*
X146383437Y-89454787D01*
X146419468Y-89440398D01*
X146460109Y-89411434D01*
X146512207Y-89362088D01*
X146582607Y-89286552D01*
X146585453Y-89283399D01*
X146615589Y-89244416D01*
X146653494Y-89188410D01*
X146666802Y-89167230D01*
X146704318Y-89109731D01*
X146738822Y-89062649D01*
X146748208Y-89051572D01*
X146770184Y-89022905D01*
X146809752Y-88966794D01*
X146862149Y-88890164D01*
X146922608Y-88799940D01*
X146953865Y-88752666D01*
X147018126Y-88657490D01*
X147078781Y-88572097D01*
X147130522Y-88503641D01*
X147168043Y-88459276D01*
X147179217Y-88448813D01*
X147209232Y-88430555D01*
X147248037Y-88418914D01*
X147304773Y-88412560D01*
X147388583Y-88410164D01*
X147445722Y-88410040D01*
X147575167Y-88414426D01*
G37*
G36*
X131684299Y-89284912D02*
G01*
X131733978Y-89302819D01*
X131784400Y-89342492D01*
X131792204Y-89349777D01*
X131835466Y-89398847D01*
X131861744Y-89444598D01*
X131865415Y-89461320D01*
X131875148Y-89502298D01*
X131887876Y-89517697D01*
X131900707Y-89547817D01*
X131897065Y-89605854D01*
X131897033Y-89606033D01*
X131886380Y-89680310D01*
X131879698Y-89752240D01*
X131880384Y-89800728D01*
X131897287Y-89822201D01*
X131941452Y-89830319D01*
X131942958Y-89830465D01*
X132010916Y-89822977D01*
X132092282Y-89786124D01*
X132110357Y-89775342D01*
X132180883Y-89737641D01*
X132251142Y-89708963D01*
X132284171Y-89699918D01*
X132335716Y-89686211D01*
X132367004Y-89670416D01*
X132369112Y-89667914D01*
X132393389Y-89659693D01*
X132448493Y-89653409D01*
X132524261Y-89650045D01*
X132556750Y-89649738D01*
X132684223Y-89654507D01*
X132777965Y-89670755D01*
X132844341Y-89701388D01*
X132889714Y-89749314D01*
X132919857Y-89815620D01*
X132937839Y-89877798D01*
X132940381Y-89922385D01*
X132926785Y-89970047D01*
X132913561Y-90001855D01*
X132842422Y-90118397D01*
X132741811Y-90206437D01*
X132674296Y-90242529D01*
X132636985Y-90256429D01*
X132592054Y-90266968D01*
X132532942Y-90274765D01*
X132453087Y-90280441D01*
X132345930Y-90284613D01*
X132204909Y-90287902D01*
X132190704Y-90288169D01*
X132042375Y-90291370D01*
X131928833Y-90296026D01*
X131843868Y-90304040D01*
X131781268Y-90317313D01*
X131734823Y-90337750D01*
X131698322Y-90367253D01*
X131665554Y-90407724D01*
X131631277Y-90459549D01*
X131578412Y-90530002D01*
X131521355Y-90573512D01*
X131446653Y-90597894D01*
X131376023Y-90607829D01*
X131310201Y-90617919D01*
X131261879Y-90631735D01*
X131245592Y-90641965D01*
X131236264Y-90675054D01*
X131230603Y-90731631D01*
X131229903Y-90756759D01*
X131225576Y-90829848D01*
X131209449Y-90873170D01*
X131174928Y-90897628D01*
X131137856Y-90908981D01*
X131078699Y-90933171D01*
X131051091Y-90974972D01*
X131045713Y-91024093D01*
X131029848Y-91067572D01*
X130987126Y-91127756D01*
X130924259Y-91197810D01*
X130847961Y-91270900D01*
X130764945Y-91340192D01*
X130681924Y-91398852D01*
X130670804Y-91405753D01*
X130583558Y-91469644D01*
X130528448Y-91540256D01*
X130499790Y-91628166D01*
X130491888Y-91738721D01*
X130478162Y-91851822D01*
X130437776Y-91937234D01*
X130410601Y-91966283D01*
X130368862Y-92022478D01*
X130335330Y-92106400D01*
X130315249Y-92204881D01*
X130315128Y-92205951D01*
X130289376Y-92329631D01*
X130243209Y-92451831D01*
X130182749Y-92559313D01*
X130115461Y-92637671D01*
X130059769Y-92680136D01*
X130008526Y-92698746D01*
X129942789Y-92701506D01*
X129874474Y-92697997D01*
X129817184Y-92692480D01*
X129802390Y-92690143D01*
X129749108Y-92665987D01*
X129685532Y-92618025D01*
X129623414Y-92557016D01*
X129574508Y-92493724D01*
X129560592Y-92468749D01*
X129536894Y-92390685D01*
X129539762Y-92304069D01*
X129551258Y-92249325D01*
X129564498Y-92216494D01*
X129570069Y-92212288D01*
X129585518Y-92194636D01*
X129599841Y-92152047D01*
X129600121Y-92150787D01*
X129614996Y-92107748D01*
X129632131Y-92089297D01*
X129632500Y-92089286D01*
X129650469Y-92073338D01*
X129651372Y-92066342D01*
X129661540Y-92037822D01*
X129687582Y-91987156D01*
X129722803Y-91925544D01*
X129760508Y-91864186D01*
X129794003Y-91814282D01*
X129816594Y-91787032D01*
X129819419Y-91785196D01*
X129834944Y-91761614D01*
X129835875Y-91752753D01*
X129846822Y-91727447D01*
X129876943Y-91675055D01*
X129922154Y-91602260D01*
X129978376Y-91515743D01*
X130005004Y-91475861D01*
X130079947Y-91364439D01*
X130136385Y-91280215D01*
X130178742Y-91216398D01*
X130211443Y-91166198D01*
X130238911Y-91122823D01*
X130265573Y-91079483D01*
X130295360Y-91030201D01*
X130330100Y-90974108D01*
X130356909Y-90933715D01*
X130367111Y-90920747D01*
X130386817Y-90892564D01*
X130421952Y-90829386D01*
X130471234Y-90733657D01*
X130533377Y-90607822D01*
X130555378Y-90562407D01*
X130591656Y-90490778D01*
X130633304Y-90413885D01*
X130674729Y-90341423D01*
X130710343Y-90283086D01*
X130734556Y-90248568D01*
X130738833Y-90244249D01*
X130752966Y-90218644D01*
X130765878Y-90177623D01*
X130782102Y-90136868D01*
X130799785Y-90121247D01*
X130818142Y-90104876D01*
X130819895Y-90093633D01*
X130824769Y-90072158D01*
X130842870Y-90041522D01*
X130879413Y-89994017D01*
X130922017Y-89942734D01*
X130940658Y-89914005D01*
X130942897Y-89905950D01*
X130954751Y-89882815D01*
X130986363Y-89835676D01*
X131031807Y-89772492D01*
X131085158Y-89701219D01*
X131140489Y-89629814D01*
X131191876Y-89566234D01*
X131222725Y-89530195D01*
X131285371Y-89466194D01*
X131360731Y-89398015D01*
X131406019Y-89361067D01*
X131470775Y-89314996D01*
X131522722Y-89290673D01*
X131578762Y-89281590D01*
X131614689Y-89280730D01*
X131684299Y-89284912D01*
G37*
G36*
X130089940Y-89173218D02*
G01*
X130108785Y-89178942D01*
X130222855Y-89223994D01*
X130301270Y-89279987D01*
X130349186Y-89353932D01*
X130371761Y-89452835D01*
X130375241Y-89541115D01*
X130374007Y-89672348D01*
X130096853Y-89938164D01*
X129995120Y-90038186D01*
X129908410Y-90128292D01*
X129841122Y-90203647D01*
X129797658Y-90259418D01*
X129785274Y-90280491D01*
X129743368Y-90372824D01*
X129711141Y-90434433D01*
X129680628Y-90471602D01*
X129643868Y-90490619D01*
X129592895Y-90497770D01*
X129519747Y-90499339D01*
X129507869Y-90499465D01*
X129451130Y-90501927D01*
X129424260Y-90512644D01*
X129416131Y-90539159D01*
X129415617Y-90562006D01*
X129421795Y-90606869D01*
X129448425Y-90625854D01*
X129473604Y-90630149D01*
X129514690Y-90641660D01*
X129520636Y-90665139D01*
X129519730Y-90667701D01*
X129509977Y-90713268D01*
X129507869Y-90745192D01*
X129489225Y-90808474D01*
X129440705Y-90861336D01*
X129373425Y-90894171D01*
X129328444Y-90900262D01*
X129268309Y-90905341D01*
X129230234Y-90925405D01*
X129209416Y-90967700D01*
X129201055Y-91039468D01*
X129200026Y-91093991D01*
X129191686Y-91216590D01*
X129164486Y-91307582D01*
X129114170Y-91373674D01*
X129036482Y-91421572D01*
X128978329Y-91443300D01*
X128909281Y-91466994D01*
X128872402Y-91485737D01*
X128860177Y-91504905D01*
X128863523Y-91525431D01*
X128874545Y-91571669D01*
X128884954Y-91636133D01*
X128887281Y-91655133D01*
X128884564Y-91729392D01*
X128854495Y-91789647D01*
X128792262Y-91842319D01*
X128716425Y-91883153D01*
X128627198Y-91925095D01*
X128629085Y-92063566D01*
X128626640Y-92149959D01*
X128618375Y-92233063D01*
X128608651Y-92284040D01*
X128594357Y-92358460D01*
X128586391Y-92442238D01*
X128585840Y-92463418D01*
X128585351Y-92560795D01*
X128354721Y-92560481D01*
X128259587Y-92558899D01*
X128178390Y-92554852D01*
X128120636Y-92548981D01*
X128097120Y-92543064D01*
X128063423Y-92506449D01*
X128031947Y-92449789D01*
X128013060Y-92393224D01*
X128011339Y-92376458D01*
X127999526Y-92331635D01*
X127961575Y-92311160D01*
X127893723Y-92313670D01*
X127857518Y-92320771D01*
X127792829Y-92339187D01*
X127742934Y-92360176D01*
X127727995Y-92370335D01*
X127689457Y-92393309D01*
X127671211Y-92396792D01*
X127636944Y-92407169D01*
X127584831Y-92433379D01*
X127560003Y-92448250D01*
X127418329Y-92533072D01*
X127296386Y-92594309D01*
X127183480Y-92635857D01*
X127068914Y-92661614D01*
X126941992Y-92675476D01*
X126935068Y-92675930D01*
X126853209Y-92677001D01*
X126786141Y-92664822D01*
X126711545Y-92634854D01*
X126695659Y-92627250D01*
X126592529Y-92570124D01*
X126516667Y-92507921D01*
X126455157Y-92427975D01*
X126409656Y-92346764D01*
X126356470Y-92209815D01*
X126332605Y-92070271D01*
X126338869Y-91938170D01*
X126368881Y-91838357D01*
X126393848Y-91779896D01*
X126409550Y-91736103D01*
X126412308Y-91723065D01*
X126421337Y-91693777D01*
X126442914Y-91645873D01*
X126468774Y-91596061D01*
X126490650Y-91561049D01*
X126494811Y-91556291D01*
X126509637Y-91533647D01*
X126536104Y-91486594D01*
X126556277Y-91448648D01*
X126587186Y-91394359D01*
X126612368Y-91359010D01*
X126622402Y-91351271D01*
X126636481Y-91334818D01*
X126637812Y-91323596D01*
X126649155Y-91291972D01*
X126678082Y-91242040D01*
X126699314Y-91211022D01*
X126734290Y-91161243D01*
X126756569Y-91126663D01*
X126760815Y-91117754D01*
X126771207Y-91097596D01*
X126797745Y-91054277D01*
X126833471Y-90998510D01*
X126871426Y-90941007D01*
X126904654Y-90892479D01*
X126924831Y-90865252D01*
X126943400Y-90830859D01*
X126945318Y-90819839D01*
X126957681Y-90792688D01*
X126988694Y-90749252D01*
X127003060Y-90731847D01*
X127051993Y-90668804D01*
X127100359Y-90597599D01*
X127109605Y-90582506D01*
X127141431Y-90531468D01*
X127165623Y-90496984D01*
X127171782Y-90490254D01*
X127187926Y-90469873D01*
X127221234Y-90422673D01*
X127266483Y-90356183D01*
X127307291Y-90294889D01*
X127362514Y-90211567D01*
X127413900Y-90134695D01*
X127454478Y-90074671D01*
X127472269Y-90048885D01*
X127499423Y-90009079D01*
X127543266Y-89943446D01*
X127598130Y-89860525D01*
X127658344Y-89768855D01*
X127669212Y-89752240D01*
X127756635Y-89620944D01*
X127828699Y-89519565D01*
X127890548Y-89442509D01*
X127947321Y-89384186D01*
X128004163Y-89339003D01*
X128066216Y-89301368D01*
X128099580Y-89284235D01*
X128190689Y-89243126D01*
X128258443Y-89224305D01*
X128313661Y-89227404D01*
X128367157Y-89252054D01*
X128398912Y-89274028D01*
X128513097Y-89373956D01*
X128593791Y-89477397D01*
X128639556Y-89580869D01*
X128648949Y-89680890D01*
X128620532Y-89773977D01*
X128611853Y-89788837D01*
X128552009Y-89866099D01*
X128469400Y-89949272D01*
X128377535Y-90025152D01*
X128350532Y-90044287D01*
X128197605Y-90152148D01*
X128079736Y-90244685D01*
X127994803Y-90323853D01*
X127940681Y-90391610D01*
X127916647Y-90444128D01*
X127901227Y-90479968D01*
X127888548Y-90490254D01*
X127874393Y-90508153D01*
X127857261Y-90553270D01*
X127850494Y-90577381D01*
X127825349Y-90655327D01*
X127792258Y-90734244D01*
X127786559Y-90745719D01*
X127761150Y-90798825D01*
X127746364Y-90836790D01*
X127744834Y-90844464D01*
X127733153Y-90870495D01*
X127704332Y-90914958D01*
X127667709Y-90964976D01*
X127632620Y-91007674D01*
X127611698Y-91028076D01*
X127577185Y-91039403D01*
X127533875Y-91043451D01*
X127478077Y-91055932D01*
X127419872Y-91085837D01*
X127415998Y-91088621D01*
X127380541Y-91119344D01*
X127362338Y-91153352D01*
X127355742Y-91205364D01*
X127355013Y-91247499D01*
X127351927Y-91328547D01*
X127339663Y-91377575D01*
X127312881Y-91403383D01*
X127266241Y-91414772D01*
X127252645Y-91416230D01*
X127181073Y-91423023D01*
X127175063Y-91617776D01*
X127172993Y-91733876D01*
X127175943Y-91814873D01*
X127185101Y-91866483D01*
X127201653Y-91894426D01*
X127226788Y-91904418D01*
X127234685Y-91904782D01*
X127280920Y-91898923D01*
X127346739Y-91884005D01*
X127418237Y-91864016D01*
X127481504Y-91842944D01*
X127522633Y-91824778D01*
X127528555Y-91820511D01*
X127565971Y-91803064D01*
X127574465Y-91802280D01*
X127606926Y-91790050D01*
X127663137Y-91756901D01*
X127735334Y-91708148D01*
X127815755Y-91649104D01*
X127896639Y-91585082D01*
X127918859Y-91566525D01*
X127982700Y-91510668D01*
X128051199Y-91447808D01*
X128117581Y-91384552D01*
X128175069Y-91327509D01*
X128216887Y-91283285D01*
X128236259Y-91258488D01*
X128236844Y-91256463D01*
X128249309Y-91235039D01*
X128281519Y-91192471D01*
X128325693Y-91138002D01*
X128374052Y-91080877D01*
X128418816Y-91030340D01*
X128452206Y-90995636D01*
X128464729Y-90985681D01*
X128481293Y-90962130D01*
X128482849Y-90949805D01*
X128493712Y-90923627D01*
X128501968Y-90920763D01*
X128523627Y-90904053D01*
X128532933Y-90884887D01*
X128552638Y-90851803D01*
X128592202Y-90801270D01*
X128636817Y-90751033D01*
X128684188Y-90696731D01*
X128717410Y-90651251D01*
X128728854Y-90626083D01*
X128742946Y-90593606D01*
X128772365Y-90560058D01*
X128806756Y-90522452D01*
X128852335Y-90464024D01*
X128891797Y-90408253D01*
X128968566Y-90294893D01*
X129027597Y-90209529D01*
X129073530Y-90145797D01*
X129111004Y-90097337D01*
X129144655Y-90057785D01*
X129158018Y-90043105D01*
X129196264Y-89996860D01*
X129218818Y-89960080D01*
X129221339Y-89950853D01*
X129234471Y-89922932D01*
X129267652Y-89877548D01*
X129295879Y-89844492D01*
X129349241Y-89781174D01*
X129398736Y-89715660D01*
X129415570Y-89690738D01*
X129459792Y-89631872D01*
X129525510Y-89557483D01*
X129605206Y-89474785D01*
X129691361Y-89390994D01*
X129776455Y-89313325D01*
X129852971Y-89248992D01*
X129913388Y-89205210D01*
X129932880Y-89194342D01*
X129992781Y-89169361D01*
X130038129Y-89162933D01*
X130089940Y-89173218D01*
G37*
G36*
X145137502Y-88272108D02*
G01*
X145237846Y-88294661D01*
X145324959Y-88325887D01*
X145370056Y-88351577D01*
X145414201Y-88391355D01*
X145433128Y-88434492D01*
X145436682Y-88488408D01*
X145431532Y-88548110D01*
X145418667Y-88591313D01*
X145413466Y-88598733D01*
X145399149Y-88629011D01*
X145382190Y-88688246D01*
X145365806Y-88764817D01*
X145362705Y-88782212D01*
X145349558Y-88855850D01*
X145336026Y-88907331D01*
X145315473Y-88947208D01*
X145281267Y-88986034D01*
X145226774Y-89034363D01*
X145178988Y-89074485D01*
X145060568Y-89147465D01*
X144922814Y-89184837D01*
X144767511Y-89186133D01*
X144755941Y-89184850D01*
X144680225Y-89158673D01*
X144602715Y-89103905D01*
X144534350Y-89030930D01*
X144486073Y-88950129D01*
X144474885Y-88918125D01*
X144460448Y-88789684D01*
X144486936Y-88663629D01*
X144554342Y-88539981D01*
X144637438Y-88443096D01*
X144722698Y-88375119D01*
X144828760Y-88314812D01*
X144935556Y-88273103D01*
X144961744Y-88266485D01*
X145040084Y-88261594D01*
X145137502Y-88272108D01*
G37*
D13*
%TO.C,J1*%
X128000000Y-102911600D02*
G75*
G02*
X126000000Y-102911600I-1000000J0D01*
G01*
X133460000Y-143671600D02*
X133460000Y-102911600D01*
X133460000Y-102911600D02*
X128000000Y-102911600D01*
X126000000Y-102911600D02*
X120540000Y-102911600D01*
X120540000Y-143671600D02*
X133460000Y-143671600D01*
X120540000Y-102911600D02*
X120540000Y-143671600D01*
%TO.C,J3*%
X76880000Y-78150000D02*
X75500000Y-78150000D01*
X76880000Y-76770000D02*
X76880000Y-78150000D01*
X76880000Y-75500000D02*
X76880000Y-55070000D01*
X76880000Y-75500000D02*
X74120000Y-75500000D01*
X76880000Y-55070000D02*
X74120000Y-55070000D01*
X74120000Y-75500000D02*
X74120000Y-55070000D01*
%TO.C,U8*%
X154615000Y-115760000D02*
X154615000Y-116160000D01*
X154615000Y-136730000D02*
X154615000Y-136330000D01*
X160425000Y-115760000D02*
X154615000Y-115760000D01*
X160425000Y-115760000D02*
X166235000Y-115760000D01*
X160425000Y-136730000D02*
X154615000Y-136730000D01*
X160425000Y-136730000D02*
X166235000Y-136730000D01*
X166235000Y-115760000D02*
X166235000Y-116160000D01*
X166235000Y-136730000D02*
X166235000Y-136330000D01*
X153800000Y-116160000D02*
X153460000Y-115690000D01*
X154140000Y-115690000D01*
X153800000Y-116160000D01*
G36*
X153800000Y-116160000D02*
G01*
X153460000Y-115690000D01*
X154140000Y-115690000D01*
X153800000Y-116160000D01*
G37*
%TO.C,C19*%
X101185000Y-91995000D02*
X101185000Y-92620000D01*
X101497500Y-92307500D02*
X100872500Y-92307500D01*
X101195563Y-92860000D02*
X100560000Y-92860000D01*
X101195563Y-92860000D02*
X102260000Y-93924437D01*
X97804437Y-92860000D02*
X98440000Y-92860000D01*
X97804437Y-92860000D02*
X96740000Y-93924437D01*
X102260000Y-93924437D02*
X102260000Y-98380000D01*
X96740000Y-93924437D02*
X96740000Y-98380000D01*
X102260000Y-98380000D02*
X100560000Y-98380000D01*
X96740000Y-98380000D02*
X98440000Y-98380000D01*
%TO.C,Q2*%
X105937500Y-86610000D02*
X105287500Y-86610000D01*
X105937500Y-86610000D02*
X106587500Y-86610000D01*
X105937500Y-89730000D02*
X105287500Y-89730000D01*
X105937500Y-89730000D02*
X106587500Y-89730000D01*
X104775000Y-86660000D02*
X104535000Y-86330000D01*
X105015000Y-86330000D01*
X104775000Y-86660000D01*
G36*
X104775000Y-86660000D02*
G01*
X104535000Y-86330000D01*
X105015000Y-86330000D01*
X104775000Y-86660000D01*
G37*
%TO.C,C8*%
X187273752Y-44110000D02*
X185851248Y-44110000D01*
X187273752Y-42290000D02*
X185851248Y-42290000D01*
%TO.C,U7*%
X177277500Y-115790000D02*
X177277500Y-116190000D01*
X177277500Y-136760000D02*
X177277500Y-136360000D01*
X183087500Y-115790000D02*
X177277500Y-115790000D01*
X183087500Y-115790000D02*
X188897500Y-115790000D01*
X183087500Y-136760000D02*
X177277500Y-136760000D01*
X183087500Y-136760000D02*
X188897500Y-136760000D01*
X188897500Y-115790000D02*
X188897500Y-116190000D01*
X188897500Y-136760000D02*
X188897500Y-136360000D01*
X176462500Y-116190000D02*
X176122500Y-115720000D01*
X176802500Y-115720000D01*
X176462500Y-116190000D01*
G36*
X176462500Y-116190000D02*
G01*
X176122500Y-115720000D01*
X176802500Y-115720000D01*
X176462500Y-116190000D01*
G37*
%TO.C,U3*%
X109680000Y-43090000D02*
X109680000Y-83850000D01*
X109680000Y-83850000D02*
X122600000Y-83850000D01*
X115140000Y-43090000D02*
X109680000Y-43090000D01*
X122600000Y-43090000D02*
X117140000Y-43090000D01*
X122600000Y-83850000D02*
X122600000Y-43090000D01*
X107190000Y-43030000D02*
X125090000Y-43030000D01*
X125090000Y-83910000D01*
X107190000Y-83910000D01*
X107190000Y-43030000D01*
X117140000Y-43090000D02*
G75*
G02*
X115140000Y-43090000I-1000000J0D01*
G01*
%TO.C,C12*%
X167611252Y-90460000D02*
X166188748Y-90460000D01*
X167611252Y-88640000D02*
X166188748Y-88640000D01*
%TO.C,RN4*%
X146850000Y-118130000D02*
X145850000Y-118130000D01*
X146850000Y-122370000D02*
X145850000Y-122370000D01*
%TO.C,R6*%
X181310000Y-58422936D02*
X181310000Y-59877064D01*
X179490000Y-58422936D02*
X179490000Y-59877064D01*
%TO.C,R4*%
X185310000Y-51697936D02*
X185310000Y-53152064D01*
X183490000Y-51697936D02*
X183490000Y-53152064D01*
%TO.C,C13*%
X166688748Y-113140000D02*
X168111252Y-113140000D01*
X166688748Y-114960000D02*
X168111252Y-114960000D01*
%TO.C,C5*%
X127660000Y-44726248D02*
X127660000Y-46148752D01*
X125840000Y-44726248D02*
X125840000Y-46148752D01*
%TO.C,C2*%
X129910000Y-104746248D02*
X129910000Y-106168752D01*
X128090000Y-104746248D02*
X128090000Y-106168752D01*
%TO.C,U6*%
X174275000Y-56315000D02*
X172325000Y-56315000D01*
X174275000Y-56315000D02*
X176225000Y-56315000D01*
X174275000Y-65185000D02*
X172325000Y-65185000D01*
X174275000Y-65185000D02*
X176225000Y-65185000D01*
X171575000Y-56380000D02*
X171335000Y-56050000D01*
X171815000Y-56050000D01*
X171575000Y-56380000D01*
G36*
X171575000Y-56380000D02*
G01*
X171335000Y-56050000D01*
X171815000Y-56050000D01*
X171575000Y-56380000D01*
G37*
%TO.C,C10*%
X107935000Y-91925000D02*
X107935000Y-92550000D01*
X108247500Y-92237500D02*
X107622500Y-92237500D01*
X107945563Y-92790000D02*
X107310000Y-92790000D01*
X107945563Y-92790000D02*
X109010000Y-93854437D01*
X104554437Y-92790000D02*
X105190000Y-92790000D01*
X104554437Y-92790000D02*
X103490000Y-93854437D01*
X109010000Y-93854437D02*
X109010000Y-98310000D01*
X103490000Y-93854437D02*
X103490000Y-98310000D01*
X109010000Y-98310000D02*
X107310000Y-98310000D01*
X103490000Y-98310000D02*
X105190000Y-98310000D01*
%TO.C,C16*%
X94910000Y-88746248D02*
X94910000Y-90168752D01*
X93090000Y-88746248D02*
X93090000Y-90168752D01*
%TO.C,C3*%
X191368000Y-56070952D02*
X191368000Y-54648448D01*
X193188000Y-56070952D02*
X193188000Y-54648448D01*
%TO.C,C1*%
X111090000Y-100293752D02*
X111090000Y-98871248D01*
X112910000Y-100293752D02*
X112910000Y-98871248D01*
%TO.C,RN3*%
X146850000Y-130630000D02*
X145850000Y-130630000D01*
X146850000Y-134870000D02*
X145850000Y-134870000D01*
%TO.C,RN5*%
X142872000Y-144126000D02*
X143872000Y-144126000D01*
X142872000Y-139886000D02*
X143872000Y-139886000D01*
%TO.C,RN2*%
X147100000Y-104630000D02*
X146100000Y-104630000D01*
X147100000Y-108870000D02*
X146100000Y-108870000D01*
%TO.C,RN1*%
X117100000Y-90400000D02*
X116100000Y-90400000D01*
X117100000Y-94640000D02*
X116100000Y-94640000D01*
%TO.C,U10*%
X154365000Y-91200000D02*
X154365000Y-91600000D01*
X154365000Y-112170000D02*
X154365000Y-111770000D01*
X160175000Y-91200000D02*
X154365000Y-91200000D01*
X160175000Y-91200000D02*
X165985000Y-91200000D01*
X160175000Y-112170000D02*
X154365000Y-112170000D01*
X160175000Y-112170000D02*
X165985000Y-112170000D01*
X165985000Y-91200000D02*
X165985000Y-91600000D01*
X165985000Y-112170000D02*
X165985000Y-111770000D01*
X153550000Y-91600000D02*
X153210000Y-91130000D01*
X153890000Y-91130000D01*
X153550000Y-91600000D01*
G36*
X153550000Y-91600000D02*
G01*
X153210000Y-91130000D01*
X153890000Y-91130000D01*
X153550000Y-91600000D01*
G37*
%TO.C,U9*%
X177277500Y-91090000D02*
X177277500Y-91490000D01*
X177277500Y-112060000D02*
X177277500Y-111660000D01*
X183087500Y-91090000D02*
X177277500Y-91090000D01*
X183087500Y-91090000D02*
X188897500Y-91090000D01*
X183087500Y-112060000D02*
X177277500Y-112060000D01*
X183087500Y-112060000D02*
X188897500Y-112060000D01*
X188897500Y-91090000D02*
X188897500Y-91490000D01*
X188897500Y-112060000D02*
X188897500Y-111660000D01*
X176462500Y-91490000D02*
X176122500Y-91020000D01*
X176802500Y-91020000D01*
X176462500Y-91490000D01*
G36*
X176462500Y-91490000D02*
G01*
X176122500Y-91020000D01*
X176802500Y-91020000D01*
X176462500Y-91490000D01*
G37*
%TO.C,F1*%
X88910436Y-94610000D02*
X90114564Y-94610000D01*
X88910436Y-96430000D02*
X90114564Y-96430000D01*
%TO.C,C17*%
X177976248Y-53030000D02*
X179398752Y-53030000D01*
X177976248Y-54850000D02*
X179398752Y-54850000D01*
%TO.C,R3*%
X185847936Y-46480000D02*
X187302064Y-46480000D01*
X185847936Y-48300000D02*
X187302064Y-48300000D01*
%TO.C,C11*%
X183425752Y-72284000D02*
X182003248Y-72284000D01*
X183425752Y-70464000D02*
X182003248Y-70464000D01*
%TO.C,R7*%
X101410000Y-87842936D02*
X101410000Y-89297064D01*
X99590000Y-87842936D02*
X99590000Y-89297064D01*
%TO.C,C14*%
X190861252Y-89960000D02*
X189438748Y-89960000D01*
X190861252Y-88140000D02*
X189438748Y-88140000D01*
%TO.C,JP4*%
X187210000Y-74341000D02*
X187210000Y-73741000D01*
X187860000Y-73041000D02*
X190660000Y-73041000D01*
X190660000Y-75041000D02*
X187860000Y-75041000D01*
X191310000Y-73741000D02*
X191310000Y-74341000D01*
X187210000Y-73741000D02*
G75*
G02*
X187910000Y-73041000I699999J1D01*
G01*
X187910000Y-75041000D02*
G75*
G02*
X187210000Y-74341000I-1J699999D01*
G01*
X190610000Y-73041000D02*
G75*
G02*
X191310000Y-73741000I0J-700000D01*
G01*
X191310000Y-74341000D02*
G75*
G02*
X190610000Y-75041000I-700000J0D01*
G01*
%TO.C,C15*%
X190030552Y-114956000D02*
X188608048Y-114956000D01*
X190030552Y-113136000D02*
X188608048Y-113136000D01*
%TO.C,JP5*%
X187210000Y-71341000D02*
X187210000Y-70741000D01*
X187860000Y-70041000D02*
X190660000Y-70041000D01*
X190660000Y-72041000D02*
X187860000Y-72041000D01*
X191310000Y-70741000D02*
X191310000Y-71341000D01*
X187210000Y-70741000D02*
G75*
G02*
X187910000Y-70041000I699999J1D01*
G01*
X187910000Y-72041000D02*
G75*
G02*
X187210000Y-71341000I-1J699999D01*
G01*
X190610000Y-70041000D02*
G75*
G02*
X191310000Y-70741000I0J-700000D01*
G01*
X191310000Y-71341000D02*
G75*
G02*
X190610000Y-72041000I-700000J0D01*
G01*
%TO.C,Q1*%
X189024500Y-51040000D02*
X188374500Y-51040000D01*
X189024500Y-51040000D02*
X189674500Y-51040000D01*
X189024500Y-54160000D02*
X188374500Y-54160000D01*
X189024500Y-54160000D02*
X189674500Y-54160000D01*
X187862000Y-51090000D02*
X187622000Y-50760000D01*
X188102000Y-50760000D01*
X187862000Y-51090000D01*
G36*
X187862000Y-51090000D02*
G01*
X187622000Y-50760000D01*
X188102000Y-50760000D01*
X187862000Y-51090000D01*
G37*
%TO.C,U2*%
X88420000Y-43090000D02*
X88420000Y-83850000D01*
X88420000Y-83850000D02*
X101340000Y-83850000D01*
X93880000Y-43090000D02*
X88420000Y-43090000D01*
X101340000Y-43090000D02*
X95880000Y-43090000D01*
X101340000Y-83850000D02*
X101340000Y-43090000D01*
X85930000Y-43030000D02*
X103830000Y-43030000D01*
X103830000Y-83910000D01*
X85930000Y-83910000D01*
X85930000Y-43030000D01*
X95880000Y-43090000D02*
G75*
G02*
X93880000Y-43090000I-1000000J0D01*
G01*
%TO.C,J2*%
X100220000Y-102911600D02*
X100220000Y-143671600D01*
X100220000Y-143671600D02*
X113140000Y-143671600D01*
X105680000Y-102911600D02*
X100220000Y-102911600D01*
X113140000Y-102911600D02*
X107680000Y-102911600D01*
X113140000Y-143671600D02*
X113140000Y-102911600D01*
X107680000Y-102911600D02*
G75*
G02*
X105680000Y-102911600I-1000000J0D01*
G01*
%TO.C,C18*%
X108590000Y-88668752D02*
X108590000Y-87246248D01*
X110410000Y-88668752D02*
X110410000Y-87246248D01*
%TO.C,C4*%
X106410000Y-44726248D02*
X106410000Y-46148752D01*
X104590000Y-44726248D02*
X104590000Y-46148752D01*
%TO.C,J5*%
X80510000Y-82140000D02*
X72690000Y-82140000D01*
X78910000Y-82140000D02*
X78910000Y-83060000D01*
X72690000Y-82140000D02*
X72690000Y-88260000D01*
X76550000Y-82900000D02*
X74950000Y-82900000D01*
X74950000Y-82900000D02*
X74950000Y-83900000D01*
X80510000Y-83060000D02*
X80510000Y-82140000D01*
X78910000Y-83060000D02*
X80510000Y-83060000D01*
X78910000Y-83340000D02*
X78910000Y-83060000D01*
X78910000Y-83340000D02*
X80125000Y-83340000D01*
X74950000Y-83400000D02*
X72690000Y-83400000D01*
X76550000Y-83900000D02*
X76550000Y-82900000D01*
X74950000Y-83900000D02*
X76550000Y-83900000D01*
X74950000Y-83900000D02*
X72690000Y-83900000D01*
X77050000Y-84700000D02*
X77050000Y-85700000D01*
X72690000Y-84700000D02*
X77050000Y-84700000D01*
X77050000Y-85700000D02*
X72690000Y-85700000D01*
X76550000Y-86500000D02*
X76550000Y-87500000D01*
X74950000Y-86500000D02*
X76550000Y-86500000D01*
X80510000Y-87340000D02*
X78910000Y-87340000D01*
X78910000Y-87340000D02*
X78910000Y-87060000D01*
X76550000Y-87500000D02*
X74950000Y-87500000D01*
X74950000Y-87500000D02*
X74950000Y-86500000D01*
X80510000Y-88260000D02*
X80510000Y-87340000D01*
X78910000Y-88260000D02*
X78910000Y-87340000D01*
X72690000Y-88260000D02*
X80510000Y-88260000D01*
%TO.C,C9*%
X103780000Y-105333748D02*
X103780000Y-106756252D01*
X101960000Y-105333748D02*
X101960000Y-106756252D01*
%TO.C,R2*%
X137930936Y-108818000D02*
X139385064Y-108818000D01*
X137930936Y-110638000D02*
X139385064Y-110638000D01*
%TO.C,RN6*%
X172280000Y-70850000D02*
X172280000Y-71650000D01*
X175720000Y-70850000D02*
X175720000Y-71650000D01*
%TO.C,R5*%
X182051936Y-67289000D02*
X183506064Y-67289000D01*
X182051936Y-69109000D02*
X183506064Y-69109000D01*
%TO.C,U11*%
X180075000Y-76610000D02*
X179835000Y-76280000D01*
X180315000Y-76280000D01*
X180075000Y-76610000D01*
G36*
X180075000Y-76610000D02*
G01*
X179835000Y-76280000D01*
X180315000Y-76280000D01*
X180075000Y-76610000D01*
G37*
X182775000Y-86675000D02*
X184725000Y-86675000D01*
X182775000Y-86675000D02*
X180825000Y-86675000D01*
X182775000Y-76555000D02*
X184725000Y-76555000D01*
X182775000Y-76555000D02*
X180825000Y-76555000D01*
%TO.C,R1*%
X130128000Y-98517064D02*
X130128000Y-97062936D01*
X131948000Y-98517064D02*
X131948000Y-97062936D01*
%TO.C,C7*%
X169910000Y-44726248D02*
X169910000Y-46148752D01*
X168090000Y-44726248D02*
X168090000Y-46148752D01*
%TO.C,C6*%
X148660000Y-44726248D02*
X148660000Y-46148752D01*
X146840000Y-44726248D02*
X146840000Y-46148752D01*
%TO.C,U1*%
X186475000Y-56355000D02*
X184525000Y-56355000D01*
X186475000Y-56355000D02*
X188425000Y-56355000D01*
X186475000Y-65225000D02*
X184525000Y-65225000D01*
X186475000Y-65225000D02*
X188425000Y-65225000D01*
X183775000Y-56420000D02*
X183535000Y-56090000D01*
X184015000Y-56090000D01*
X183775000Y-56420000D01*
G36*
X183775000Y-56420000D02*
G01*
X183535000Y-56090000D01*
X184015000Y-56090000D01*
X183775000Y-56420000D01*
G37*
%TO.C,J6*%
X191916000Y-72017000D02*
X191916000Y-73017000D01*
X191916000Y-73017000D02*
X192916000Y-72517000D01*
X192916000Y-72517000D02*
X191916000Y-72017000D01*
X193306000Y-67307000D02*
X202426000Y-67307000D01*
X193306000Y-90787000D02*
X194616000Y-90787000D01*
X193306000Y-118367000D02*
X193306000Y-67307000D01*
X194616000Y-68607000D02*
X201116000Y-68607000D01*
X194616000Y-90787000D02*
X194616000Y-68607000D01*
X194616000Y-94887000D02*
X193306000Y-94887000D01*
X194616000Y-94887000D02*
X194616000Y-94887000D01*
X194616000Y-117067000D02*
X194616000Y-94887000D01*
X201116000Y-68607000D02*
X201116000Y-117067000D01*
X201116000Y-117067000D02*
X194616000Y-117067000D01*
X202426000Y-67307000D02*
X202426000Y-118367000D01*
X202426000Y-118367000D02*
X193306000Y-118367000D01*
%TO.C,JP6*%
X187210000Y-68444000D02*
X187210000Y-67844000D01*
X187860000Y-67144000D02*
X190660000Y-67144000D01*
X190660000Y-69144000D02*
X187860000Y-69144000D01*
X191310000Y-67844000D02*
X191310000Y-68444000D01*
X187210000Y-67844000D02*
G75*
G02*
X187910000Y-67144000I699999J1D01*
G01*
X187910000Y-69144000D02*
G75*
G02*
X187210000Y-68444000I-1J699999D01*
G01*
X190610000Y-67144000D02*
G75*
G02*
X191310000Y-67844000I0J-700000D01*
G01*
X191310000Y-68444000D02*
G75*
G02*
X190610000Y-69144000I-700000J0D01*
G01*
%TO.C,U5*%
X151920000Y-43090000D02*
X151920000Y-83850000D01*
X151920000Y-83850000D02*
X164840000Y-83850000D01*
X157380000Y-43090000D02*
X151920000Y-43090000D01*
X164840000Y-43090000D02*
X159380000Y-43090000D01*
X164840000Y-83850000D02*
X164840000Y-43090000D01*
X149430000Y-43030000D02*
X167330000Y-43030000D01*
X167330000Y-83910000D01*
X149430000Y-83910000D01*
X149430000Y-43030000D01*
X159380000Y-43090000D02*
G75*
G02*
X157380000Y-43090000I-1000000J0D01*
G01*
%TO.C,U4*%
X130680000Y-43090000D02*
X130680000Y-83850000D01*
X130680000Y-83850000D02*
X143600000Y-83850000D01*
X136140000Y-43090000D02*
X130680000Y-43090000D01*
X143600000Y-43090000D02*
X138140000Y-43090000D01*
X143600000Y-83850000D02*
X143600000Y-43090000D01*
X128190000Y-43030000D02*
X146090000Y-43030000D01*
X146090000Y-83910000D01*
X128190000Y-83910000D01*
X128190000Y-43030000D01*
X138140000Y-43090000D02*
G75*
G02*
X136140000Y-43090000I-1000000J0D01*
G01*
%TD*%
M02*
