%TF.GenerationSoftware,KiCad,Pcbnew,9.0.2*%
%TF.CreationDate,2026-02-08T20:36:04+01:00*%
%TF.ProjectId,turbokit_replica,74757262-6f6b-4697-945f-7265706c6963,0.1*%
%TF.SameCoordinates,Original*%
%TF.FileFunction,Soldermask,Top*%
%TF.FilePolarity,Negative*%
%FSLAX46Y46*%
G04 Gerber Fmt 4.6, Leading zero omitted, Abs format (unit mm)*
G04 Created by KiCad (PCBNEW 9.0.2) date 2026-02-08 20:36:04*
%MOMM*%
%LPD*%
G01*
G04 APERTURE LIST*
G04 Aperture macros list*
%AMRoundRect*
0 Rectangle with rounded corners*
0 $1 Rounding radius*
0 $2 $3 $4 $5 $6 $7 $8 $9 X,Y pos of 4 corners*
0 Add a 4 corners polygon primitive as box body*
4,1,4,$2,$3,$4,$5,$6,$7,$8,$9,$2,$3,0*
0 Add four circle primitives for the rounded corners*
1,1,$1+$1,$2,$3*
1,1,$1+$1,$4,$5*
1,1,$1+$1,$6,$7*
1,1,$1+$1,$8,$9*
0 Add four rect primitives between the rounded corners*
20,1,$1+$1,$2,$3,$4,$5,0*
20,1,$1+$1,$4,$5,$6,$7,0*
20,1,$1+$1,$6,$7,$8,$9,0*
20,1,$1+$1,$8,$9,$2,$3,0*%
%AMFreePoly0*
4,1,23,0.550000,-0.750000,0.000000,-0.750000,0.000000,-0.745722,-0.065263,-0.745722,-0.191342,-0.711940,-0.304381,-0.646677,-0.396677,-0.554381,-0.461940,-0.441342,-0.495722,-0.315263,-0.495722,-0.250000,-0.500000,-0.250000,-0.500000,0.250000,-0.495722,0.250000,-0.495722,0.315263,-0.461940,0.441342,-0.396677,0.554381,-0.304381,0.646677,-0.191342,0.711940,-0.065263,0.745722,0.000000,0.745722,
0.000000,0.750000,0.550000,0.750000,0.550000,-0.750000,0.550000,-0.750000,$1*%
%AMFreePoly1*
4,1,23,0.000000,0.745722,0.065263,0.745722,0.191342,0.711940,0.304381,0.646677,0.396677,0.554381,0.461940,0.441342,0.495722,0.315263,0.495722,0.250000,0.500000,0.250000,0.500000,-0.250000,0.495722,-0.250000,0.495722,-0.315263,0.461940,-0.441342,0.396677,-0.554381,0.304381,-0.646677,0.191342,-0.711940,0.065263,-0.745722,0.000000,-0.745722,0.000000,-0.750000,-0.550000,-0.750000,
-0.550000,0.750000,0.000000,0.750000,0.000000,0.745722,0.000000,0.745722,$1*%
G04 Aperture macros list end*
%ADD10RoundRect,0.250000X-0.550000X-0.550000X0.550000X-0.550000X0.550000X0.550000X-0.550000X0.550000X0*%
%ADD11C,1.600000*%
%ADD12RoundRect,0.150000X-0.775000X-0.150000X0.775000X-0.150000X0.775000X0.150000X-0.775000X0.150000X0*%
%ADD13RoundRect,0.250000X-0.550000X1.250000X-0.550000X-1.250000X0.550000X-1.250000X0.550000X1.250000X0*%
%ADD14RoundRect,0.150000X-0.587500X-0.150000X0.587500X-0.150000X0.587500X0.150000X-0.587500X0.150000X0*%
%ADD15RoundRect,0.250000X0.412500X0.650000X-0.412500X0.650000X-0.412500X-0.650000X0.412500X-0.650000X0*%
%ADD16RoundRect,0.250001X-0.949999X0.949999X-0.949999X-0.949999X0.949999X-0.949999X0.949999X0.949999X0*%
%ADD17C,2.400000*%
%ADD18R,0.800000X0.300000*%
%ADD19RoundRect,0.250001X0.949999X-0.949999X0.949999X0.949999X-0.949999X0.949999X-0.949999X-0.949999X0*%
%ADD20RoundRect,0.250000X-0.625000X0.400000X-0.625000X-0.400000X0.625000X-0.400000X0.625000X0.400000X0*%
%ADD21RoundRect,0.250000X0.625000X-0.400000X0.625000X0.400000X-0.625000X0.400000X-0.625000X-0.400000X0*%
%ADD22RoundRect,0.250000X-0.412500X-0.650000X0.412500X-0.650000X0.412500X0.650000X-0.412500X0.650000X0*%
%ADD23RoundRect,0.250000X-0.650000X0.412500X-0.650000X-0.412500X0.650000X-0.412500X0.650000X0.412500X0*%
%ADD24C,5.600000*%
%ADD25RoundRect,0.150000X-0.825000X-0.150000X0.825000X-0.150000X0.825000X0.150000X-0.825000X0.150000X0*%
%ADD26RoundRect,0.250000X0.650000X-0.412500X0.650000X0.412500X-0.650000X0.412500X-0.650000X-0.412500X0*%
%ADD27RoundRect,0.250001X-0.462499X-0.624999X0.462499X-0.624999X0.462499X0.624999X-0.462499X0.624999X0*%
%ADD28RoundRect,0.250000X-0.400000X-0.625000X0.400000X-0.625000X0.400000X0.625000X-0.400000X0.625000X0*%
%ADD29FreePoly0,0.000000*%
%ADD30R,1.000000X1.500000*%
%ADD31FreePoly1,0.000000*%
%ADD32RoundRect,0.250000X-0.625000X0.350000X-0.625000X-0.350000X0.625000X-0.350000X0.625000X0.350000X0*%
%ADD33O,1.750000X1.200000*%
%ADD34R,0.400000X0.900000*%
%ADD35RoundRect,0.250000X-0.600000X-0.600000X0.600000X-0.600000X0.600000X0.600000X-0.600000X0.600000X0*%
%ADD36C,1.700000*%
G04 APERTURE END LIST*
%TO.C,JP4*%
G36*
X197250000Y-73600000D02*
G01*
X198750000Y-73600000D01*
X198750000Y-75100000D01*
X197250000Y-75100000D01*
X197250000Y-73600000D01*
G37*
%TO.C,JP5*%
G36*
X197250000Y-70600000D02*
G01*
X198750000Y-70600000D01*
X198750000Y-72100000D01*
X197250000Y-72100000D01*
X197250000Y-70600000D01*
G37*
%TO.C,JP6*%
G36*
X197250000Y-67650000D02*
G01*
X198750000Y-67650000D01*
X198750000Y-69150000D01*
X197250000Y-69150000D01*
X197250000Y-67650000D01*
G37*
%TD*%
D10*
%TO.C,U5*%
X150760000Y-44420000D03*
D11*
X150760000Y-46960000D03*
X150760000Y-49500000D03*
X150760000Y-52040000D03*
X150760000Y-54580000D03*
X150760000Y-57120000D03*
X150760000Y-59660000D03*
X150760000Y-62200000D03*
X150760000Y-64740000D03*
X150760000Y-67280000D03*
X150760000Y-69820000D03*
X150760000Y-72360000D03*
X150760000Y-74900000D03*
X150760000Y-77440000D03*
X150760000Y-79980000D03*
X150760000Y-82520000D03*
X166000000Y-82520000D03*
X166000000Y-79980000D03*
X166000000Y-77440000D03*
X166000000Y-74900000D03*
X166000000Y-72360000D03*
X166000000Y-69820000D03*
X166000000Y-67280000D03*
X166000000Y-64740000D03*
X166000000Y-62200000D03*
X166000000Y-59660000D03*
X166000000Y-57120000D03*
X166000000Y-54580000D03*
X166000000Y-52040000D03*
X166000000Y-49500000D03*
X166000000Y-46960000D03*
X166000000Y-44420000D03*
%TD*%
D12*
%TO.C,U8*%
X153800000Y-116720000D03*
X153800000Y-117990000D03*
X153800000Y-119260000D03*
X153800000Y-120530000D03*
X153800000Y-121800000D03*
X153800000Y-123070000D03*
X153800000Y-124340000D03*
X153800000Y-125610000D03*
X153800000Y-126880000D03*
X153800000Y-128150000D03*
X153800000Y-129420000D03*
X153800000Y-130690000D03*
X153800000Y-131960000D03*
X153800000Y-133230000D03*
X153800000Y-134500000D03*
X153800000Y-135770000D03*
X167050000Y-135770000D03*
X167050000Y-134500000D03*
X167050000Y-133230000D03*
X167050000Y-131960000D03*
X167050000Y-130690000D03*
X167050000Y-129420000D03*
X167050000Y-128150000D03*
X167050000Y-126880000D03*
X167050000Y-125610000D03*
X167050000Y-124340000D03*
X167050000Y-123070000D03*
X167050000Y-121800000D03*
X167050000Y-120530000D03*
X167050000Y-119260000D03*
X167050000Y-117990000D03*
X167050000Y-116720000D03*
%TD*%
D13*
%TO.C,C19*%
X99500000Y-93420000D03*
X99500000Y-97820000D03*
%TD*%
D14*
%TO.C,Q2*%
X105000000Y-87220000D03*
X105000000Y-89120000D03*
X106875000Y-88170000D03*
%TD*%
D10*
%TO.C,J1*%
X96260000Y-103985000D03*
D11*
X96260000Y-106525000D03*
X96260000Y-109065000D03*
X96260000Y-111605000D03*
X96260000Y-114145000D03*
X96260000Y-116685000D03*
X96260000Y-119225000D03*
X96260000Y-121765000D03*
X96260000Y-124305000D03*
X96260000Y-126845000D03*
X96260000Y-129385000D03*
X96260000Y-131925000D03*
X96260000Y-134465000D03*
X96260000Y-137005000D03*
X96260000Y-139545000D03*
X96260000Y-142085000D03*
X111500000Y-142085000D03*
X111500000Y-139545000D03*
X111500000Y-137005000D03*
X111500000Y-134465000D03*
X111500000Y-131925000D03*
X111500000Y-129385000D03*
X111500000Y-126845000D03*
X111500000Y-124305000D03*
X111500000Y-121765000D03*
X111500000Y-119225000D03*
X111500000Y-116685000D03*
X111500000Y-114145000D03*
X111500000Y-111605000D03*
X111500000Y-109065000D03*
X111500000Y-106525000D03*
X111500000Y-103985000D03*
%TD*%
D15*
%TO.C,C8*%
X188125000Y-43200000D03*
X185000000Y-43200000D03*
%TD*%
D12*
%TO.C,U7*%
X176462500Y-116750000D03*
X176462500Y-118020000D03*
X176462500Y-119290000D03*
X176462500Y-120560000D03*
X176462500Y-121830000D03*
X176462500Y-123100000D03*
X176462500Y-124370000D03*
X176462500Y-125640000D03*
X176462500Y-126910000D03*
X176462500Y-128180000D03*
X176462500Y-129450000D03*
X176462500Y-130720000D03*
X176462500Y-131990000D03*
X176462500Y-133260000D03*
X176462500Y-134530000D03*
X176462500Y-135800000D03*
X189712500Y-135800000D03*
X189712500Y-134530000D03*
X189712500Y-133260000D03*
X189712500Y-131990000D03*
X189712500Y-130720000D03*
X189712500Y-129450000D03*
X189712500Y-128180000D03*
X189712500Y-126910000D03*
X189712500Y-125640000D03*
X189712500Y-124370000D03*
X189712500Y-123100000D03*
X189712500Y-121830000D03*
X189712500Y-120560000D03*
X189712500Y-119290000D03*
X189712500Y-118020000D03*
X189712500Y-116750000D03*
%TD*%
D10*
%TO.C,U3*%
X108520000Y-44420000D03*
D11*
X108520000Y-46960000D03*
X108520000Y-49500000D03*
X108520000Y-52040000D03*
X108520000Y-54580000D03*
X108520000Y-57120000D03*
X108520000Y-59660000D03*
X108520000Y-62200000D03*
X108520000Y-64740000D03*
X108520000Y-67280000D03*
X108520000Y-69820000D03*
X108520000Y-72360000D03*
X108520000Y-74900000D03*
X108520000Y-77440000D03*
X108520000Y-79980000D03*
X108520000Y-82520000D03*
X123760000Y-82520000D03*
X123760000Y-79980000D03*
X123760000Y-77440000D03*
X123760000Y-74900000D03*
X123760000Y-72360000D03*
X123760000Y-69820000D03*
X123760000Y-67280000D03*
X123760000Y-64740000D03*
X123760000Y-62200000D03*
X123760000Y-59660000D03*
X123760000Y-57120000D03*
X123760000Y-54580000D03*
X123760000Y-52040000D03*
X123760000Y-49500000D03*
X123760000Y-46960000D03*
X123760000Y-44420000D03*
%TD*%
D16*
%TO.C,J4*%
X198200000Y-44000000D03*
D17*
X198200000Y-47960000D03*
X198200000Y-51920000D03*
X198200000Y-55880000D03*
X198200000Y-59840000D03*
X198200000Y-63800000D03*
%TD*%
D15*
%TO.C,C12*%
X168462500Y-89550000D03*
X165337500Y-89550000D03*
%TD*%
D18*
%TO.C,RN4*%
X145450000Y-118500000D03*
X145450000Y-119000000D03*
X145450000Y-119500000D03*
X145450000Y-120000000D03*
X145450000Y-120500000D03*
X145450000Y-121000000D03*
X145450000Y-121500000D03*
X145450000Y-122000000D03*
X147250000Y-122000000D03*
X147250000Y-121500000D03*
X147250000Y-121000000D03*
X147250000Y-120500000D03*
X147250000Y-120000000D03*
X147250000Y-119500000D03*
X147250000Y-119000000D03*
X147250000Y-118500000D03*
%TD*%
D19*
%TO.C,J3*%
X75500000Y-76770000D03*
D17*
X75500000Y-72810000D03*
X75500000Y-68850000D03*
X75500000Y-64890000D03*
X75500000Y-60930000D03*
X75500000Y-56970000D03*
X75500000Y-53010000D03*
X75500000Y-49050000D03*
X75500000Y-45090000D03*
%TD*%
D20*
%TO.C,R6*%
X180400000Y-57600000D03*
X180400000Y-60700000D03*
%TD*%
D10*
%TO.C,U4*%
X129520000Y-44420000D03*
D11*
X129520000Y-46960000D03*
X129520000Y-49500000D03*
X129520000Y-52040000D03*
X129520000Y-54580000D03*
X129520000Y-57120000D03*
X129520000Y-59660000D03*
X129520000Y-62200000D03*
X129520000Y-64740000D03*
X129520000Y-67280000D03*
X129520000Y-69820000D03*
X129520000Y-72360000D03*
X129520000Y-74900000D03*
X129520000Y-77440000D03*
X129520000Y-79980000D03*
X129520000Y-82520000D03*
X144760000Y-82520000D03*
X144760000Y-79980000D03*
X144760000Y-77440000D03*
X144760000Y-74900000D03*
X144760000Y-72360000D03*
X144760000Y-69820000D03*
X144760000Y-67280000D03*
X144760000Y-64740000D03*
X144760000Y-62200000D03*
X144760000Y-59660000D03*
X144760000Y-57120000D03*
X144760000Y-54580000D03*
X144760000Y-52040000D03*
X144760000Y-49500000D03*
X144760000Y-46960000D03*
X144760000Y-44420000D03*
%TD*%
D21*
%TO.C,R4*%
X184400000Y-54000000D03*
X184400000Y-50900000D03*
%TD*%
D22*
%TO.C,C13*%
X165837500Y-114050000D03*
X168962500Y-114050000D03*
%TD*%
D23*
%TO.C,C5*%
X126750000Y-43875000D03*
X126750000Y-47000000D03*
%TD*%
D24*
%TO.C,H3*%
X189800000Y-145200000D03*
%TD*%
D23*
%TO.C,C2*%
X129000000Y-103895000D03*
X129000000Y-107020000D03*
%TD*%
D25*
%TO.C,U6*%
X171800000Y-56940000D03*
X171800000Y-58210000D03*
X171800000Y-59480000D03*
X171800000Y-60750000D03*
X171800000Y-62020000D03*
X171800000Y-63290000D03*
X171800000Y-64560000D03*
X176750000Y-64560000D03*
X176750000Y-63290000D03*
X176750000Y-62020000D03*
X176750000Y-60750000D03*
X176750000Y-59480000D03*
X176750000Y-58210000D03*
X176750000Y-56940000D03*
%TD*%
D13*
%TO.C,C10*%
X106250000Y-93350000D03*
X106250000Y-97750000D03*
%TD*%
D23*
%TO.C,C16*%
X94000000Y-87895000D03*
X94000000Y-91020000D03*
%TD*%
%TO.C,C3*%
X180600000Y-63075000D03*
X180600000Y-66200000D03*
%TD*%
D26*
%TO.C,C1*%
X112000000Y-101145000D03*
X112000000Y-98020000D03*
%TD*%
D24*
%TO.C,H2*%
X177400000Y-46400000D03*
%TD*%
D18*
%TO.C,RN3*%
X145450000Y-131000000D03*
X145450000Y-131500000D03*
X145450000Y-132000000D03*
X145450000Y-132500000D03*
X145450000Y-133000000D03*
X145450000Y-133500000D03*
X145450000Y-134000000D03*
X145450000Y-134500000D03*
X147250000Y-134500000D03*
X147250000Y-134000000D03*
X147250000Y-133500000D03*
X147250000Y-133000000D03*
X147250000Y-132500000D03*
X147250000Y-132000000D03*
X147250000Y-131500000D03*
X147250000Y-131000000D03*
%TD*%
%TO.C,RN5*%
X123400000Y-142600000D03*
X123400000Y-142100000D03*
X123400000Y-141600000D03*
X123400000Y-141100000D03*
X123400000Y-140600000D03*
X123400000Y-140100000D03*
X123400000Y-139600000D03*
X123400000Y-139100000D03*
X121600000Y-139100000D03*
X121600000Y-139600000D03*
X121600000Y-140100000D03*
X121600000Y-140600000D03*
X121600000Y-141100000D03*
X121600000Y-141600000D03*
X121600000Y-142100000D03*
X121600000Y-142600000D03*
%TD*%
%TO.C,RN2*%
X145700000Y-105000000D03*
X145700000Y-105500000D03*
X145700000Y-106000000D03*
X145700000Y-106500000D03*
X145700000Y-107000000D03*
X145700000Y-107500000D03*
X145700000Y-108000000D03*
X145700000Y-108500000D03*
X147500000Y-108500000D03*
X147500000Y-108000000D03*
X147500000Y-107500000D03*
X147500000Y-107000000D03*
X147500000Y-106500000D03*
X147500000Y-106000000D03*
X147500000Y-105500000D03*
X147500000Y-105000000D03*
%TD*%
%TO.C,RN1*%
X115700000Y-90770000D03*
X115700000Y-91270000D03*
X115700000Y-91770000D03*
X115700000Y-92270000D03*
X115700000Y-92770000D03*
X115700000Y-93270000D03*
X115700000Y-93770000D03*
X115700000Y-94270000D03*
X117500000Y-94270000D03*
X117500000Y-93770000D03*
X117500000Y-93270000D03*
X117500000Y-92770000D03*
X117500000Y-92270000D03*
X117500000Y-91770000D03*
X117500000Y-91270000D03*
X117500000Y-90770000D03*
%TD*%
D12*
%TO.C,U10*%
X153550000Y-92160000D03*
X153550000Y-93430000D03*
X153550000Y-94700000D03*
X153550000Y-95970000D03*
X153550000Y-97240000D03*
X153550000Y-98510000D03*
X153550000Y-99780000D03*
X153550000Y-101050000D03*
X153550000Y-102320000D03*
X153550000Y-103590000D03*
X153550000Y-104860000D03*
X153550000Y-106130000D03*
X153550000Y-107400000D03*
X153550000Y-108670000D03*
X153550000Y-109940000D03*
X153550000Y-111210000D03*
X166800000Y-111210000D03*
X166800000Y-109940000D03*
X166800000Y-108670000D03*
X166800000Y-107400000D03*
X166800000Y-106130000D03*
X166800000Y-104860000D03*
X166800000Y-103590000D03*
X166800000Y-102320000D03*
X166800000Y-101050000D03*
X166800000Y-99780000D03*
X166800000Y-98510000D03*
X166800000Y-97240000D03*
X166800000Y-95970000D03*
X166800000Y-94700000D03*
X166800000Y-93430000D03*
X166800000Y-92160000D03*
%TD*%
%TO.C,U9*%
X176462500Y-92050000D03*
X176462500Y-93320000D03*
X176462500Y-94590000D03*
X176462500Y-95860000D03*
X176462500Y-97130000D03*
X176462500Y-98400000D03*
X176462500Y-99670000D03*
X176462500Y-100940000D03*
X176462500Y-102210000D03*
X176462500Y-103480000D03*
X176462500Y-104750000D03*
X176462500Y-106020000D03*
X176462500Y-107290000D03*
X176462500Y-108560000D03*
X176462500Y-109830000D03*
X176462500Y-111100000D03*
X189712500Y-111100000D03*
X189712500Y-109830000D03*
X189712500Y-108560000D03*
X189712500Y-107290000D03*
X189712500Y-106020000D03*
X189712500Y-104750000D03*
X189712500Y-103480000D03*
X189712500Y-102210000D03*
X189712500Y-100940000D03*
X189712500Y-99670000D03*
X189712500Y-98400000D03*
X189712500Y-97130000D03*
X189712500Y-95860000D03*
X189712500Y-94590000D03*
X189712500Y-93320000D03*
X189712500Y-92050000D03*
%TD*%
D27*
%TO.C,F1*%
X88025000Y-95520000D03*
X91000000Y-95520000D03*
%TD*%
D22*
%TO.C,C17*%
X177125000Y-53940000D03*
X180250000Y-53940000D03*
%TD*%
D28*
%TO.C,R3*%
X185025000Y-47390000D03*
X188125000Y-47390000D03*
%TD*%
D15*
%TO.C,C11*%
X186125000Y-73750000D03*
X183000000Y-73750000D03*
%TD*%
D21*
%TO.C,R7*%
X100500000Y-90120000D03*
X100500000Y-87020000D03*
%TD*%
D24*
%TO.C,H5*%
X76000000Y-93000000D03*
%TD*%
D15*
%TO.C,C14*%
X191712500Y-89050000D03*
X188587500Y-89050000D03*
%TD*%
D29*
%TO.C,JP4*%
X196700000Y-74350000D03*
D30*
X198000000Y-74350000D03*
D31*
X199300000Y-74350000D03*
%TD*%
D15*
%TO.C,C15*%
X191212500Y-114050000D03*
X188087500Y-114050000D03*
%TD*%
D29*
%TO.C,JP5*%
X196700000Y-71350000D03*
D30*
X198000000Y-71350000D03*
D31*
X199300000Y-71350000D03*
%TD*%
D24*
%TO.C,H1*%
X82600000Y-46400000D03*
%TD*%
D14*
%TO.C,Q1*%
X188462500Y-51650000D03*
X188462500Y-53550000D03*
X190337500Y-52600000D03*
%TD*%
D10*
%TO.C,U2*%
X87260000Y-44420000D03*
D11*
X87260000Y-46960000D03*
X87260000Y-49500000D03*
X87260000Y-52040000D03*
X87260000Y-54580000D03*
X87260000Y-57120000D03*
X87260000Y-59660000D03*
X87260000Y-62200000D03*
X87260000Y-64740000D03*
X87260000Y-67280000D03*
X87260000Y-69820000D03*
X87260000Y-72360000D03*
X87260000Y-74900000D03*
X87260000Y-77440000D03*
X87260000Y-79980000D03*
X87260000Y-82520000D03*
X102500000Y-82520000D03*
X102500000Y-79980000D03*
X102500000Y-77440000D03*
X102500000Y-74900000D03*
X102500000Y-72360000D03*
X102500000Y-69820000D03*
X102500000Y-67280000D03*
X102500000Y-64740000D03*
X102500000Y-62200000D03*
X102500000Y-59660000D03*
X102500000Y-57120000D03*
X102500000Y-54580000D03*
X102500000Y-52040000D03*
X102500000Y-49500000D03*
X102500000Y-46960000D03*
X102500000Y-44420000D03*
%TD*%
D10*
%TO.C,J2*%
X117200000Y-104005000D03*
D11*
X117200000Y-106545000D03*
X117200000Y-109085000D03*
X117200000Y-111625000D03*
X117200000Y-114165000D03*
X117200000Y-116705000D03*
X117200000Y-119245000D03*
X117200000Y-121785000D03*
X117200000Y-124325000D03*
X117200000Y-126865000D03*
X117200000Y-129405000D03*
X117200000Y-131945000D03*
X117200000Y-134485000D03*
X117200000Y-137025000D03*
X117200000Y-139565000D03*
X117200000Y-142105000D03*
X132440000Y-142105000D03*
X132440000Y-139565000D03*
X132440000Y-137025000D03*
X132440000Y-134485000D03*
X132440000Y-131945000D03*
X132440000Y-129405000D03*
X132440000Y-126865000D03*
X132440000Y-124325000D03*
X132440000Y-121785000D03*
X132440000Y-119245000D03*
X132440000Y-116705000D03*
X132440000Y-114165000D03*
X132440000Y-111625000D03*
X132440000Y-109085000D03*
X132440000Y-106545000D03*
X132440000Y-104005000D03*
%TD*%
D26*
%TO.C,C18*%
X109500000Y-89520000D03*
X109500000Y-86395000D03*
%TD*%
D23*
%TO.C,C4*%
X105500000Y-43875000D03*
X105500000Y-47000000D03*
%TD*%
D32*
%TO.C,J5*%
X79050000Y-84200000D03*
D33*
X79050000Y-86200000D03*
%TD*%
D24*
%TO.C,H4*%
X89000000Y-145000000D03*
%TD*%
D22*
%TO.C,C9*%
X91875000Y-100020000D03*
X95000000Y-100020000D03*
%TD*%
D21*
%TO.C,R2*%
X128000000Y-122020000D03*
X128000000Y-118920000D03*
%TD*%
D34*
%TO.C,RN6*%
X172800000Y-72100000D03*
X173600000Y-72100000D03*
X174400000Y-72100000D03*
X175200000Y-72100000D03*
X175200000Y-70400000D03*
X174400000Y-70400000D03*
X173600000Y-70400000D03*
X172800000Y-70400000D03*
%TD*%
D28*
%TO.C,R5*%
X184800000Y-68200000D03*
X187900000Y-68200000D03*
%TD*%
D25*
%TO.C,U11*%
X180300000Y-77170000D03*
X180300000Y-78440000D03*
X180300000Y-79710000D03*
X180300000Y-80980000D03*
X180300000Y-82250000D03*
X180300000Y-83520000D03*
X180300000Y-84790000D03*
X180300000Y-86060000D03*
X185250000Y-86060000D03*
X185250000Y-84790000D03*
X185250000Y-83520000D03*
X185250000Y-82250000D03*
X185250000Y-80980000D03*
X185250000Y-79710000D03*
X185250000Y-78440000D03*
X185250000Y-77170000D03*
%TD*%
D20*
%TO.C,R1*%
X108000000Y-123620000D03*
X108000000Y-126720000D03*
%TD*%
D23*
%TO.C,C7*%
X169000000Y-43875000D03*
X169000000Y-47000000D03*
%TD*%
%TO.C,C6*%
X147750000Y-43875000D03*
X147750000Y-47000000D03*
%TD*%
D25*
%TO.C,U1*%
X184000000Y-56980000D03*
X184000000Y-58250000D03*
X184000000Y-59520000D03*
X184000000Y-60790000D03*
X184000000Y-62060000D03*
X184000000Y-63330000D03*
X184000000Y-64600000D03*
X188950000Y-64600000D03*
X188950000Y-63330000D03*
X188950000Y-62060000D03*
X188950000Y-60790000D03*
X188950000Y-59520000D03*
X188950000Y-58250000D03*
X188950000Y-56980000D03*
%TD*%
D35*
%TO.C,J6*%
X196872500Y-81350000D03*
D36*
X199412500Y-81350000D03*
X196872500Y-83890000D03*
X199412500Y-83890000D03*
X196872500Y-86430000D03*
X199412500Y-86430000D03*
X196872500Y-88970000D03*
X199412500Y-88970000D03*
X196872500Y-91510000D03*
X199412500Y-91510000D03*
X196872500Y-94050000D03*
X199412500Y-94050000D03*
X196872500Y-96590000D03*
X199412500Y-96590000D03*
X196872500Y-99130000D03*
X199412500Y-99130000D03*
X196872500Y-101670000D03*
X199412500Y-101670000D03*
X196872500Y-104210000D03*
X199412500Y-104210000D03*
X196872500Y-106750000D03*
X199412500Y-106750000D03*
X196872500Y-109290000D03*
X199412500Y-109290000D03*
X196872500Y-111830000D03*
X199412500Y-111830000D03*
X196872500Y-114370000D03*
X199412500Y-114370000D03*
X196872500Y-116910000D03*
X199412500Y-116910000D03*
X196872500Y-119450000D03*
X199412500Y-119450000D03*
X196872500Y-121990000D03*
X199412500Y-121990000D03*
%TD*%
D29*
%TO.C,JP6*%
X196700000Y-68400000D03*
D30*
X198000000Y-68400000D03*
D31*
X199300000Y-68400000D03*
%TD*%
M02*
