M48
; DRILL file {KiCad 9.0.2} date 2026-02-14T11:32:18+0100
; FORMAT={-:-/ absolute / metric / decimal}
; #@! TF.CreationDate,2026-02-14T11:32:18+01:00
; #@! TF.GenerationSoftware,Kicad,Pcbnew,9.0.2
; #@! TF.FileFunction,Plated,1,4,PTH
FMAT,2
METRIC
; #@! TA.AperFunction,Plated,PTH,ViaDrill
T1C0.300
; #@! TA.AperFunction,Plated,PTH,ComponentDrill
T2C0.750
; #@! TA.AperFunction,Plated,PTH,ComponentDrill
T3C0.800
; #@! TA.AperFunction,Plated,PTH,ComponentDrill
T4C1.000
; #@! TA.AperFunction,Plated,PTH,ComponentDrill
T5C1.800
; #@! TA.AperFunction,Plated,PTH,ComponentDrill
T6C3.200
%
G90
G05
T1
X72.085Y-41.783
X72.314Y-58.979
X72.415Y-71.12
X72.619Y-48.425
X73.457Y-51.918
X77.089Y-81.559
X78.562Y-51.283
X79.299Y-75.946
X79.426Y-96.926
X80.264Y-42.012
X81.331Y-57.912
X81.94Y-44.653
X82.525Y-41.402
X83.541Y-97.866
X83.668Y-85.903
X84.836Y-70.104
X84.938Y-61.417
X85.7Y-88.316
X86.385Y-138.455
X87.579Y-98.679
X89.0Y-88.52
X89.459Y-46.736
X89.56Y-93.091
X89.713Y-63.805
X89.764Y-55.88
X90.119Y-86.766
X90.937Y-91.088
X91.008Y-45.085
X91.211Y-83.414
X91.75Y-67.025
X93.091Y-99.898
X94.336Y-143.053
X94.564Y-137.719
X94.691Y-62.179
X94.742Y-56.642
X95.402Y-69.342
X95.758Y-148.057
X96.164Y-41.402
X97.307Y-90.221
X97.99Y-86.995
X98.12Y-45.009
X99.263Y-101.397
X99.974Y-46.634
X100.076Y-67.107
X100.432Y-72.187
X101.18Y-96.45
X101.244Y-141.732
X101.543Y-106.794
X102.464Y-86.411
X102.819Y-92.608
X103.81Y-90.221
X104.419Y-146.431
X104.897Y-96.45
X105.5Y-45.249
X105.74Y-83.871
X105.969Y-142.545
X106.172Y-140.672
X106.731Y-148.133
X107.493Y-121.717
X107.594Y-107.493
X107.594Y-111.506
X107.594Y-133.909
X107.696Y-145.517
X108.102Y-100.686
X108.61Y-104.14
X108.919Y-96.741
X109.728Y-140.963
X109.931Y-42.012
X110.084Y-114.376
X110.388Y-72.619
X110.642Y-142.291
X110.693Y-105.664
X111.587Y-87.88
X111.76Y-47.65
X111.76Y-112.979
X112.37Y-43.967
X112.784Y-86.58
X113.257Y-92.831
X113.668Y-94.496
X113.744Y-91.426
X113.944Y-99.517
X114.561Y-93.321
X114.82Y-90.321
X115.389Y-95.469
X115.824Y-109.728
X115.891Y-88.67
X116.129Y-49.327
X116.205Y-145.704
X116.281Y-75.032
X116.281Y-142.545
X116.535Y-67.208
X116.637Y-61.062
X116.916Y-71.577
X117.043Y-135.077
X117.246Y-148.209
X117.307Y-53.186
X117.5Y-83.007
X118.212Y-101.041
X118.663Y-92.27
X118.787Y-90.516
X119.201Y-96.204
X119.406Y-94.003
X119.408Y-65.569
X119.532Y-51.308
X120.371Y-44.323
X120.371Y-92.024
X120.853Y-47.854
X120.979Y-90.475
X121.031Y-50.602
X121.412Y-133.147
X121.564Y-142.646
X121.615Y-72.619
X121.641Y-41.377
X122.098Y-134.645
X122.479Y-85.827
X122.733Y-109.118
X123.596Y-124.333
X124.072Y-94.622
X124.587Y-137.033
X125.324Y-105.562
X125.476Y-96.317
X125.73Y-64.668
X126.022Y-71.671
X126.111Y-82.728
X126.34Y-134.112
X126.543Y-50.292
X126.644Y-142.57
X126.75Y-45.229
X126.949Y-58.064
X126.975Y-126.619
X127.025Y-148.311
X127.125Y-138.699
X127.172Y-98.634
X127.33Y-128.279
X127.406Y-130.302
X129.337Y-94.59
X129.438Y-137.363
X129.54Y-101.346
X129.642Y-131.775
X129.819Y-85.852
X130.759Y-111.128
X130.939Y-136.461
X131.013Y-92.862
X131.115Y-84.684
X131.125Y-139.8
X131.216Y-64.719
X131.216Y-115.113
X131.248Y-106.634
X131.318Y-75.235
X131.42Y-108.814
X131.521Y-142.545
X131.775Y-41.91
X131.877Y-46.787
X131.928Y-94.132
X132.232Y-50.241
X132.334Y-129.103
X132.866Y-134.727
X132.994Y-52.781
X132.994Y-96.571
X133.045Y-75.235
X133.096Y-57.252
X133.458Y-120.916
X133.604Y-84.734
X133.731Y-144.561
X133.858Y-86.614
X134.061Y-78.08
X134.112Y-43.866
X134.112Y-64.719
X135.585Y-99.314
X135.926Y-122.013
X136.246Y-128.25
X136.55Y-107.391
X136.703Y-105.308
X136.754Y-100.533
X136.83Y-116.23
X136.906Y-141.605
X137.16Y-112.522
X137.287Y-144.399
X137.312Y-64.719
X137.514Y-91.437
X137.668Y-74.574
X137.719Y-84.988
X137.719Y-94.336
X137.82Y-82.347
X137.851Y-122.285
X137.947Y-148.133
X138.057Y-89.914
X138.176Y-79.959
X138.328Y-60.452
X138.354Y-145.517
X138.379Y-140.157
X138.532Y-105.054
X138.608Y-137.135
X138.822Y-132.363
X139.319Y-105.74
X139.429Y-122.08
X139.81Y-118.365
X140.03Y-106.578
X140.104Y-141.714
X140.135Y-119.168
X140.157Y-145.491
X140.31Y-139.446
X140.38Y-140.963
X140.634Y-103.884
X140.932Y-69.355
X140.995Y-75.184
X141.095Y-112.994
X141.132Y-135.839
X141.148Y-106.6
X141.224Y-144.145
X141.249Y-44.069
X141.427Y-108.56
X141.539Y-98.268
X141.63Y-107.484
X141.971Y-110.951
X142.037Y-59.03
X142.138Y-42.012
X142.164Y-69.901
X142.24Y-81.102
X142.283Y-109.641
X142.443Y-47.193
X142.545Y-53.899
X142.545Y-65.227
X142.577Y-132.457
X142.606Y-118.967
X142.619Y-138.906
X142.621Y-76.17
X142.93Y-71.425
X142.972Y-72.821
X143.174Y-145.334
X143.474Y-132.87
X144.351Y-133.001
X144.431Y-123.515
X144.52Y-116.459
X145.185Y-145.905
X145.19Y-140.438
X145.732Y-130.275
X145.999Y-137.566
X146.126Y-127.203
X146.761Y-139.159
X146.761Y-143.197
X146.836Y-109.77
X146.977Y-141.837
X147.023Y-129.506
X147.218Y-136.296
X147.321Y-99.312
X147.377Y-140.858
X147.397Y-117.844
X147.48Y-109.28
X147.75Y-43.875
X147.796Y-45.088
X147.828Y-145.618
X147.94Y-124.9
X147.98Y-96.595
X148.164Y-120.385
X148.285Y-113.741
X148.346Y-121.604
X148.56Y-59.66
X148.586Y-135.027
X148.642Y-137.932
X148.713Y-106.228
X148.795Y-107.633
X148.802Y-143.652
X148.844Y-41.25
X148.949Y-134.314
X149.047Y-121.133
X149.073Y-122.248
X149.327Y-118.872
X149.338Y-104.499
X149.684Y-132.094
X150.048Y-93.995
X150.114Y-117.602
X150.302Y-107.764
X150.478Y-139.118
X150.554Y-102.751
X150.571Y-135.941
X150.622Y-95.398
X151.03Y-100.695
X151.551Y-101.7
X151.564Y-103.889
X151.577Y-129.673
X151.76Y-119.095
X151.83Y-95.255
X151.884Y-106.287
X152.007Y-133.598
X152.044Y-110.72
X152.056Y-109.874
X152.248Y-113.792
X152.603Y-84.988
X152.654Y-137.363
X152.959Y-139.09
X153.21Y-74.68
X153.416Y-50.089
X153.467Y-42.113
X153.878Y-87.503
X153.934Y-91.252
X154.432Y-145.593
X154.838Y-44.12
X155.236Y-131.864
X155.239Y-118.126
X155.249Y-95.173
X155.27Y-115.646
X155.288Y-127.546
X155.289Y-119.198
X155.294Y-124.438
X155.397Y-140.919
X155.439Y-107.493
X155.651Y-64.922
X155.658Y-109.542
X155.796Y-97.908
X155.956Y-136.042
X156.032Y-105.102
X156.251Y-108.979
X156.273Y-133.22
X156.55Y-114.656
X156.552Y-122.289
X156.956Y-129.514
X157.124Y-54.356
X157.14Y-93.771
X157.17Y-105.1
X157.328Y-106.782
X158.242Y-121.247
X158.445Y-113.182
X158.445Y-132.537
X158.852Y-136.042
X159.055Y-69.748
X159.055Y-79.604
X159.055Y-85.446
X159.106Y-59.639
X159.156Y-91.999
X159.5Y-95.28
X160.071Y-101.448
X160.274Y-106.832
X160.613Y-138.918
X160.687Y-96.257
X161.239Y-133.68
X161.239Y-136.296
X161.586Y-110.807
X161.586Y-126.843
X162.052Y-101.674
X162.306Y-44.247
X162.408Y-91.948
X162.509Y-82.194
X162.56Y-89.154
X162.992Y-113.817
X163.246Y-135.135
X163.297Y-145.745
X163.322Y-74.066
X163.373Y-41.326
X163.424Y-54.559
X163.728Y-46.482
X163.881Y-62.078
X164.333Y-98.543
X164.341Y-111.725
X164.342Y-106.044
X164.422Y-107.369
X164.477Y-110.373
X164.533Y-120.32
X164.592Y-131.674
X164.668Y-102.972
X165.124Y-97.192
X165.266Y-99.41
X165.353Y-93.65
X165.506Y-84.988
X166.458Y-91.252
X166.822Y-89.051
X167.388Y-69.684
X167.398Y-88.202
X167.462Y-114.275
X167.556Y-137.088
X168.01Y-64.951
X168.271Y-108.67
X168.375Y-99.433
X168.387Y-94.483
X168.387Y-100.437
X168.479Y-97.306
X168.512Y-133.013
X168.522Y-119.007
X168.526Y-131.596
X168.552Y-105.257
X168.826Y-121.622
X169.0Y-45.75
X169.117Y-108.369
X169.164Y-59.487
X169.195Y-128.36
X169.214Y-72.42
X169.291Y-51.537
X169.494Y-90.932
X169.545Y-93.421
X169.57Y-81.077
X169.596Y-74.447
X169.698Y-103.639
X169.755Y-139.87
X169.824Y-61.163
X169.948Y-99.075
X169.977Y-42.164
X170.032Y-122.403
X170.126Y-97.192
X170.129Y-133.731
X170.161Y-79.002
X170.19Y-62.733
X170.264Y-87.521
X170.282Y-85.395
X170.541Y-72.018
X170.586Y-94.691
X170.743Y-117.606
X170.78Y-123.637
X170.845Y-126.676
X170.942Y-76.759
X170.942Y-89.738
X170.952Y-91.821
X171.25Y-68.5
X171.292Y-106.8
X171.37Y-65.682
X171.376Y-66.572
X171.907Y-49.022
X171.933Y-138.43
X172.326Y-129.339
X172.56Y-107.837
X172.568Y-82.296
X172.727Y-112.261
X172.91Y-117.525
X172.955Y-66.044
X173.206Y-111.605
X173.26Y-101.919
X173.37Y-131.269
X173.38Y-77.546
X173.533Y-53.365
X173.713Y-121.09
X173.937Y-68.678
X174.0Y-135.475
X174.041Y-118.411
X174.068Y-102.946
X174.073Y-126.977
X174.142Y-85.75
X174.165Y-105.784
X174.165Y-108.173
X174.165Y-110.141
X174.177Y-128.816
X174.193Y-115.57
X174.212Y-95.896
X174.363Y-100.891
X174.43Y-123.1
X174.432Y-133.061
X174.55Y-120.746
X174.605Y-92.869
X174.701Y-94.64
X174.843Y-118.311
X175.158Y-62.332
X175.229Y-68.397
X175.4Y-58.8
X175.588Y-112.599
X175.92Y-140.919
X176.022Y-83.363
X176.022Y-144.628
X176.124Y-87.63
X176.395Y-77.265
X176.51Y-137.103
X176.911Y-51.308
X177.648Y-69.444
X177.8Y-81.28
X177.896Y-96.166
X177.927Y-114.63
X177.976Y-103.72
X178.041Y-97.908
X178.054Y-73.457
X178.064Y-78.369
X178.161Y-110.706
X178.301Y-122.81
X178.359Y-143.053
X178.375Y-105.14
X178.41Y-89.052
X178.458Y-64.114
X178.49Y-94.626
X178.493Y-109.75
X178.534Y-63.029
X178.536Y-84.623
X178.699Y-130.689
X178.714Y-91.796
X178.795Y-53.565
X179.0Y-59.6
X179.45Y-128.298
X179.451Y-71.247
X179.495Y-68.397
X179.505Y-118.459
X179.517Y-64.237
X179.629Y-49.53
X179.68Y-113.741
X179.73Y-133.35
X179.776Y-95.82
X180.042Y-97.909
X180.746Y-89.535
X180.8Y-136.825
X180.852Y-87.491
X180.899Y-62.992
X180.924Y-140.157
X181.407Y-93.269
X181.458Y-109.728
X181.532Y-74.413
X181.709Y-81.501
X181.762Y-99.746
X181.763Y-119.353
X181.789Y-104.948
X181.915Y-60.757
X181.915Y-82.595
X181.945Y-83.631
X182.0Y-134.725
X182.095Y-59.095
X182.24Y-78.789
X182.397Y-42.875
X182.474Y-85.496
X182.55Y-46.838
X182.737Y-66.025
X183.083Y-91.338
X183.236Y-44.704
X183.337Y-108.53
X183.337Y-115.265
X183.388Y-110.49
X183.896Y-130.861
X183.947Y-89.103
X184.277Y-71.374
X184.424Y-92.029
X184.592Y-118.54
X184.658Y-148.107
X184.81Y-136.601
X185.187Y-87.019
X185.318Y-94.64
X185.487Y-100.58
X185.615Y-114.262
X185.674Y-127.152
X185.776Y-92.532
X185.877Y-75.438
X185.917Y-125.64
X185.966Y-64.38
X186.029Y-130.268
X186.112Y-59.498
X186.174Y-56.532
X186.436Y-51.816
X186.675Y-134.025
X187.031Y-120.166
X187.18Y-74.933
X187.198Y-139.294
X187.265Y-118.148
X187.319Y-81.556
X187.466Y-61.726
X187.527Y-108.934
X187.558Y-102.092
X187.67Y-133.915
X187.816Y-84.322
X187.833Y-66.421
X187.901Y-120.584
X188.057Y-131.254
X188.106Y-132.846
X188.417Y-77.826
X188.874Y-80.772
X189.078Y-76.225
X189.338Y-72.319
X189.361Y-84.553
X189.83Y-113.03
X189.955Y-86.018
X189.992Y-66.675
X189.992Y-115.498
X190.246Y-55.042
X190.497Y-89.159
X190.935Y-82.68
X191.262Y-93.472
X191.389Y-45.593
X191.412Y-129.718
X191.622Y-111.093
X191.782Y-116.146
X191.884Y-92.007
X191.892Y-134.268
X191.893Y-124.961
X191.897Y-71.247
X191.897Y-99.212
X191.904Y-119.152
X191.922Y-75.54
X191.962Y-66.04
X192.089Y-127.15
X192.126Y-132.385
X192.285Y-86.893
X192.329Y-105.08
X192.4Y-61.0
X192.405Y-59.498
X192.487Y-68.507
X192.49Y-107.183
X192.49Y-106.121
X192.625Y-109.83
X192.862Y-42.037
X192.913Y-51.943
X193.142Y-130.581
X193.226Y-113.259
X193.226Y-114.986
X193.751Y-47.447
X193.751Y-49.479
X193.86Y-70.511
X194.005Y-75.565
X194.097Y-102.006
X194.097Y-103.363
X194.107Y-105.207
X194.193Y-110.252
X194.335Y-99.441
X194.488Y-115.087
X194.564Y-81.991
X194.666Y-91.796
X195.212Y-107.383
X196.291Y-67.183
X196.494Y-116.484
X197.764Y-70.002
X199.466Y-117.094
X200.355Y-91.643
X200.711Y-84.074
X200.736Y-69.952
X200.863Y-111.15
X201.27Y-46.99
X201.27Y-62.281
X201.32Y-55.372
X201.447Y-115.545
X201.574Y-74.574
X201.574Y-101.752
X201.651Y-104.724
T2
X79.05Y-84.2
X79.05Y-86.2
T3
X87.26Y-44.42
X87.26Y-46.96
X87.26Y-49.5
X87.26Y-52.04
X87.26Y-54.58
X87.26Y-57.12
X87.26Y-59.66
X87.26Y-62.2
X87.26Y-64.74
X87.26Y-67.28
X87.26Y-69.82
X87.26Y-72.36
X87.26Y-74.9
X87.26Y-77.44
X87.26Y-79.98
X87.26Y-82.52
X99.06Y-104.242
X99.06Y-106.782
X99.06Y-109.322
X99.06Y-111.862
X99.06Y-114.402
X99.06Y-116.942
X99.06Y-119.482
X99.06Y-122.022
X99.06Y-124.562
X99.06Y-127.102
X99.06Y-129.642
X99.06Y-132.182
X99.06Y-134.722
X99.06Y-137.262
X99.06Y-139.802
X99.06Y-142.342
X102.5Y-44.42
X102.5Y-46.96
X102.5Y-49.5
X102.5Y-52.04
X102.5Y-54.58
X102.5Y-57.12
X102.5Y-59.66
X102.5Y-62.2
X102.5Y-64.74
X102.5Y-67.28
X102.5Y-69.82
X102.5Y-72.36
X102.5Y-74.9
X102.5Y-77.44
X102.5Y-79.98
X102.5Y-82.52
X108.52Y-44.42
X108.52Y-46.96
X108.52Y-49.5
X108.52Y-52.04
X108.52Y-54.58
X108.52Y-57.12
X108.52Y-59.66
X108.52Y-62.2
X108.52Y-64.74
X108.52Y-67.28
X108.52Y-69.82
X108.52Y-72.36
X108.52Y-74.9
X108.52Y-77.44
X108.52Y-79.98
X108.52Y-82.52
X114.3Y-104.242
X114.3Y-106.782
X114.3Y-109.322
X114.3Y-111.862
X114.3Y-114.402
X114.3Y-116.942
X114.3Y-119.482
X114.3Y-122.022
X114.3Y-124.562
X114.3Y-127.102
X114.3Y-129.642
X114.3Y-132.182
X114.3Y-134.722
X114.3Y-137.262
X114.3Y-139.802
X114.3Y-142.342
X119.38Y-104.242
X119.38Y-106.782
X119.38Y-109.322
X119.38Y-111.862
X119.38Y-114.402
X119.38Y-116.942
X119.38Y-119.482
X119.38Y-122.022
X119.38Y-124.562
X119.38Y-127.102
X119.38Y-129.642
X119.38Y-132.182
X119.38Y-134.722
X119.38Y-137.262
X119.38Y-139.802
X119.38Y-142.342
X123.76Y-44.42
X123.76Y-46.96
X123.76Y-49.5
X123.76Y-52.04
X123.76Y-54.58
X123.76Y-57.12
X123.76Y-59.66
X123.76Y-62.2
X123.76Y-64.74
X123.76Y-67.28
X123.76Y-69.82
X123.76Y-72.36
X123.76Y-74.9
X123.76Y-77.44
X123.76Y-79.98
X123.76Y-82.52
X129.52Y-44.42
X129.52Y-46.96
X129.52Y-49.5
X129.52Y-52.04
X129.52Y-54.58
X129.52Y-57.12
X129.52Y-59.66
X129.52Y-62.2
X129.52Y-64.74
X129.52Y-67.28
X129.52Y-69.82
X129.52Y-72.36
X129.52Y-74.9
X129.52Y-77.44
X129.52Y-79.98
X129.52Y-82.52
X134.62Y-104.242
X134.62Y-106.782
X134.62Y-109.322
X134.62Y-111.862
X134.62Y-114.402
X134.62Y-116.942
X134.62Y-119.482
X134.62Y-122.022
X134.62Y-124.562
X134.62Y-127.102
X134.62Y-129.642
X134.62Y-132.182
X134.62Y-134.722
X134.62Y-137.262
X134.62Y-139.802
X134.62Y-142.342
X144.76Y-44.42
X144.76Y-46.96
X144.76Y-49.5
X144.76Y-52.04
X144.76Y-54.58
X144.76Y-57.12
X144.76Y-59.66
X144.76Y-62.2
X144.76Y-64.74
X144.76Y-67.28
X144.76Y-69.82
X144.76Y-72.36
X144.76Y-74.9
X144.76Y-77.44
X144.76Y-79.98
X144.76Y-82.52
X150.76Y-44.42
X150.76Y-46.96
X150.76Y-49.5
X150.76Y-52.04
X150.76Y-54.58
X150.76Y-57.12
X150.76Y-59.66
X150.76Y-62.2
X150.76Y-64.74
X150.76Y-67.28
X150.76Y-69.82
X150.76Y-72.36
X150.76Y-74.9
X150.76Y-77.44
X150.76Y-79.98
X150.76Y-82.52
X166.0Y-44.42
X166.0Y-46.96
X166.0Y-49.5
X166.0Y-52.04
X166.0Y-54.58
X166.0Y-57.12
X166.0Y-59.66
X166.0Y-62.2
X166.0Y-64.74
X166.0Y-67.28
X166.0Y-69.82
X166.0Y-72.36
X166.0Y-74.9
X166.0Y-77.44
X166.0Y-79.98
X166.0Y-82.52
T4
X75.5Y-56.45
X75.5Y-58.99
X75.5Y-61.53
X75.5Y-64.07
X75.5Y-66.61
X75.5Y-69.15
X75.5Y-71.69
X75.5Y-74.23
X75.5Y-76.77
X196.596Y-72.517
X196.596Y-75.057
X196.596Y-77.597
X196.596Y-80.137
X196.596Y-82.677
X196.596Y-85.217
X196.596Y-87.757
X196.596Y-90.297
X196.596Y-92.837
X196.596Y-95.377
X196.596Y-97.917
X196.596Y-100.457
X196.596Y-102.997
X196.596Y-105.537
X196.596Y-108.077
X196.596Y-110.617
X196.596Y-113.157
X199.136Y-72.517
X199.136Y-75.057
X199.136Y-77.597
X199.136Y-80.137
X199.136Y-82.677
X199.136Y-85.217
X199.136Y-87.757
X199.136Y-90.297
X199.136Y-92.837
X199.136Y-95.377
X199.136Y-97.917
X199.136Y-100.457
X199.136Y-102.997
X199.136Y-105.537
X199.136Y-108.077
X199.136Y-110.617
X199.136Y-113.157
T5
X198.2Y-44.0
X198.2Y-47.96
X198.2Y-51.92
X198.2Y-55.88
X198.2Y-59.84
X198.2Y-63.8
T6
X76.0Y-46.0
X76.0Y-93.0
X89.0Y-145.0
X176.0Y-46.0
X189.0Y-145.0
M30
