%TF.GenerationSoftware,KiCad,Pcbnew,9.0.2*%
%TF.CreationDate,2026-02-14T11:32:14+01:00*%
%TF.ProjectId,turbokit_replica,74757262-6f6b-4697-945f-7265706c6963,0.1*%
%TF.SameCoordinates,Original*%
%TF.FileFunction,Paste,Top*%
%TF.FilePolarity,Positive*%
%FSLAX46Y46*%
G04 Gerber Fmt 4.6, Leading zero omitted, Abs format (unit mm)*
G04 Created by KiCad (PCBNEW 9.0.2) date 2026-02-14 11:32:14*
%MOMM*%
%LPD*%
G01*
G04 APERTURE LIST*
G04 Aperture macros list*
%AMRoundRect*
0 Rectangle with rounded corners*
0 $1 Rounding radius*
0 $2 $3 $4 $5 $6 $7 $8 $9 X,Y pos of 4 corners*
0 Add a 4 corners polygon primitive as box body*
4,1,4,$2,$3,$4,$5,$6,$7,$8,$9,$2,$3,0*
0 Add four circle primitives for the rounded corners*
1,1,$1+$1,$2,$3*
1,1,$1+$1,$4,$5*
1,1,$1+$1,$6,$7*
1,1,$1+$1,$8,$9*
0 Add four rect primitives between the rounded corners*
20,1,$1+$1,$2,$3,$4,$5,0*
20,1,$1+$1,$4,$5,$6,$7,0*
20,1,$1+$1,$6,$7,$8,$9,0*
20,1,$1+$1,$8,$9,$2,$3,0*%
G04 Aperture macros list end*
%ADD10RoundRect,0.150000X-0.775000X-0.150000X0.775000X-0.150000X0.775000X0.150000X-0.775000X0.150000X0*%
%ADD11RoundRect,0.250000X-0.550000X1.250000X-0.550000X-1.250000X0.550000X-1.250000X0.550000X1.250000X0*%
%ADD12RoundRect,0.150000X-0.587500X-0.150000X0.587500X-0.150000X0.587500X0.150000X-0.587500X0.150000X0*%
%ADD13RoundRect,0.250000X0.412500X0.650000X-0.412500X0.650000X-0.412500X-0.650000X0.412500X-0.650000X0*%
%ADD14R,0.800000X0.300000*%
%ADD15RoundRect,0.250000X-0.625000X0.400000X-0.625000X-0.400000X0.625000X-0.400000X0.625000X0.400000X0*%
%ADD16RoundRect,0.250000X-0.412500X-0.650000X0.412500X-0.650000X0.412500X0.650000X-0.412500X0.650000X0*%
%ADD17RoundRect,0.250000X-0.650000X0.412500X-0.650000X-0.412500X0.650000X-0.412500X0.650000X0.412500X0*%
%ADD18RoundRect,0.150000X-0.825000X-0.150000X0.825000X-0.150000X0.825000X0.150000X-0.825000X0.150000X0*%
%ADD19RoundRect,0.250000X0.650000X-0.412500X0.650000X0.412500X-0.650000X0.412500X-0.650000X-0.412500X0*%
%ADD20RoundRect,0.250001X-0.462499X-0.624999X0.462499X-0.624999X0.462499X0.624999X-0.462499X0.624999X0*%
%ADD21RoundRect,0.250000X-0.400000X-0.625000X0.400000X-0.625000X0.400000X0.625000X-0.400000X0.625000X0*%
%ADD22R,0.400000X0.900000*%
%ADD23RoundRect,0.250000X0.625000X-0.400000X0.625000X0.400000X-0.625000X0.400000X-0.625000X-0.400000X0*%
G04 APERTURE END LIST*
D10*
%TO.C,U8*%
X153800000Y-116720000D03*
X153800000Y-117990000D03*
X153800000Y-119260000D03*
X153800000Y-120530000D03*
X153800000Y-121800000D03*
X153800000Y-123070000D03*
X153800000Y-124340000D03*
X153800000Y-125610000D03*
X153800000Y-126880000D03*
X153800000Y-128150000D03*
X153800000Y-129420000D03*
X153800000Y-130690000D03*
X153800000Y-131960000D03*
X153800000Y-133230000D03*
X153800000Y-134500000D03*
X153800000Y-135770000D03*
X167050000Y-135770000D03*
X167050000Y-134500000D03*
X167050000Y-133230000D03*
X167050000Y-131960000D03*
X167050000Y-130690000D03*
X167050000Y-129420000D03*
X167050000Y-128150000D03*
X167050000Y-126880000D03*
X167050000Y-125610000D03*
X167050000Y-124340000D03*
X167050000Y-123070000D03*
X167050000Y-121800000D03*
X167050000Y-120530000D03*
X167050000Y-119260000D03*
X167050000Y-117990000D03*
X167050000Y-116720000D03*
%TD*%
D11*
%TO.C,C19*%
X99500000Y-93420000D03*
X99500000Y-97820000D03*
%TD*%
D12*
%TO.C,Q2*%
X105000000Y-87220000D03*
X105000000Y-89120000D03*
X106875000Y-88170000D03*
%TD*%
D13*
%TO.C,C8*%
X188125000Y-43200000D03*
X185000000Y-43200000D03*
%TD*%
D10*
%TO.C,U7*%
X176462500Y-116750000D03*
X176462500Y-118020000D03*
X176462500Y-119290000D03*
X176462500Y-120560000D03*
X176462500Y-121830000D03*
X176462500Y-123100000D03*
X176462500Y-124370000D03*
X176462500Y-125640000D03*
X176462500Y-126910000D03*
X176462500Y-128180000D03*
X176462500Y-129450000D03*
X176462500Y-130720000D03*
X176462500Y-131990000D03*
X176462500Y-133260000D03*
X176462500Y-134530000D03*
X176462500Y-135800000D03*
X189712500Y-135800000D03*
X189712500Y-134530000D03*
X189712500Y-133260000D03*
X189712500Y-131990000D03*
X189712500Y-130720000D03*
X189712500Y-129450000D03*
X189712500Y-128180000D03*
X189712500Y-126910000D03*
X189712500Y-125640000D03*
X189712500Y-124370000D03*
X189712500Y-123100000D03*
X189712500Y-121830000D03*
X189712500Y-120560000D03*
X189712500Y-119290000D03*
X189712500Y-118020000D03*
X189712500Y-116750000D03*
%TD*%
D13*
%TO.C,C12*%
X168462500Y-89550000D03*
X165337500Y-89550000D03*
%TD*%
D14*
%TO.C,RN4*%
X145450000Y-118500000D03*
X145450000Y-119000000D03*
X145450000Y-119500000D03*
X145450000Y-120000000D03*
X145450000Y-120500000D03*
X145450000Y-121000000D03*
X145450000Y-121500000D03*
X145450000Y-122000000D03*
X147250000Y-122000000D03*
X147250000Y-121500000D03*
X147250000Y-121000000D03*
X147250000Y-120500000D03*
X147250000Y-120000000D03*
X147250000Y-119500000D03*
X147250000Y-119000000D03*
X147250000Y-118500000D03*
%TD*%
D15*
%TO.C,R6*%
X180400000Y-57600000D03*
X180400000Y-60700000D03*
%TD*%
%TO.C,R4*%
X184400000Y-50875000D03*
X184400000Y-53975000D03*
%TD*%
D16*
%TO.C,C13*%
X165837500Y-114050000D03*
X168962500Y-114050000D03*
%TD*%
D17*
%TO.C,C5*%
X126750000Y-43875000D03*
X126750000Y-47000000D03*
%TD*%
%TO.C,C2*%
X129000000Y-103895000D03*
X129000000Y-107020000D03*
%TD*%
D18*
%TO.C,U6*%
X171800000Y-56940000D03*
X171800000Y-58210000D03*
X171800000Y-59480000D03*
X171800000Y-60750000D03*
X171800000Y-62020000D03*
X171800000Y-63290000D03*
X171800000Y-64560000D03*
X176750000Y-64560000D03*
X176750000Y-63290000D03*
X176750000Y-62020000D03*
X176750000Y-60750000D03*
X176750000Y-59480000D03*
X176750000Y-58210000D03*
X176750000Y-56940000D03*
%TD*%
D11*
%TO.C,C10*%
X106250000Y-93350000D03*
X106250000Y-97750000D03*
%TD*%
D17*
%TO.C,C16*%
X94000000Y-87895000D03*
X94000000Y-91020000D03*
%TD*%
D19*
%TO.C,C3*%
X192278000Y-56922200D03*
X192278000Y-53797200D03*
%TD*%
%TO.C,C1*%
X112000000Y-101145000D03*
X112000000Y-98020000D03*
%TD*%
D14*
%TO.C,RN3*%
X145450000Y-131000000D03*
X145450000Y-131500000D03*
X145450000Y-132000000D03*
X145450000Y-132500000D03*
X145450000Y-133000000D03*
X145450000Y-133500000D03*
X145450000Y-134000000D03*
X145450000Y-134500000D03*
X147250000Y-134500000D03*
X147250000Y-134000000D03*
X147250000Y-133500000D03*
X147250000Y-133000000D03*
X147250000Y-132500000D03*
X147250000Y-132000000D03*
X147250000Y-131500000D03*
X147250000Y-131000000D03*
%TD*%
%TO.C,RN5*%
X144272000Y-143756000D03*
X144272000Y-143256000D03*
X144272000Y-142756000D03*
X144272000Y-142256000D03*
X144272000Y-141756000D03*
X144272000Y-141256000D03*
X144272000Y-140756000D03*
X144272000Y-140256000D03*
X142472000Y-140256000D03*
X142472000Y-140756000D03*
X142472000Y-141256000D03*
X142472000Y-141756000D03*
X142472000Y-142256000D03*
X142472000Y-142756000D03*
X142472000Y-143256000D03*
X142472000Y-143756000D03*
%TD*%
%TO.C,RN2*%
X145700000Y-105000000D03*
X145700000Y-105500000D03*
X145700000Y-106000000D03*
X145700000Y-106500000D03*
X145700000Y-107000000D03*
X145700000Y-107500000D03*
X145700000Y-108000000D03*
X145700000Y-108500000D03*
X147500000Y-108500000D03*
X147500000Y-108000000D03*
X147500000Y-107500000D03*
X147500000Y-107000000D03*
X147500000Y-106500000D03*
X147500000Y-106000000D03*
X147500000Y-105500000D03*
X147500000Y-105000000D03*
%TD*%
%TO.C,RN1*%
X115700000Y-90770000D03*
X115700000Y-91270000D03*
X115700000Y-91770000D03*
X115700000Y-92270000D03*
X115700000Y-92770000D03*
X115700000Y-93270000D03*
X115700000Y-93770000D03*
X115700000Y-94270000D03*
X117500000Y-94270000D03*
X117500000Y-93770000D03*
X117500000Y-93270000D03*
X117500000Y-92770000D03*
X117500000Y-92270000D03*
X117500000Y-91770000D03*
X117500000Y-91270000D03*
X117500000Y-90770000D03*
%TD*%
D10*
%TO.C,U10*%
X153550000Y-92160000D03*
X153550000Y-93430000D03*
X153550000Y-94700000D03*
X153550000Y-95970000D03*
X153550000Y-97240000D03*
X153550000Y-98510000D03*
X153550000Y-99780000D03*
X153550000Y-101050000D03*
X153550000Y-102320000D03*
X153550000Y-103590000D03*
X153550000Y-104860000D03*
X153550000Y-106130000D03*
X153550000Y-107400000D03*
X153550000Y-108670000D03*
X153550000Y-109940000D03*
X153550000Y-111210000D03*
X166800000Y-111210000D03*
X166800000Y-109940000D03*
X166800000Y-108670000D03*
X166800000Y-107400000D03*
X166800000Y-106130000D03*
X166800000Y-104860000D03*
X166800000Y-103590000D03*
X166800000Y-102320000D03*
X166800000Y-101050000D03*
X166800000Y-99780000D03*
X166800000Y-98510000D03*
X166800000Y-97240000D03*
X166800000Y-95970000D03*
X166800000Y-94700000D03*
X166800000Y-93430000D03*
X166800000Y-92160000D03*
%TD*%
%TO.C,U9*%
X176462500Y-92050000D03*
X176462500Y-93320000D03*
X176462500Y-94590000D03*
X176462500Y-95860000D03*
X176462500Y-97130000D03*
X176462500Y-98400000D03*
X176462500Y-99670000D03*
X176462500Y-100940000D03*
X176462500Y-102210000D03*
X176462500Y-103480000D03*
X176462500Y-104750000D03*
X176462500Y-106020000D03*
X176462500Y-107290000D03*
X176462500Y-108560000D03*
X176462500Y-109830000D03*
X176462500Y-111100000D03*
X189712500Y-111100000D03*
X189712500Y-109830000D03*
X189712500Y-108560000D03*
X189712500Y-107290000D03*
X189712500Y-106020000D03*
X189712500Y-104750000D03*
X189712500Y-103480000D03*
X189712500Y-102210000D03*
X189712500Y-100940000D03*
X189712500Y-99670000D03*
X189712500Y-98400000D03*
X189712500Y-97130000D03*
X189712500Y-95860000D03*
X189712500Y-94590000D03*
X189712500Y-93320000D03*
X189712500Y-92050000D03*
%TD*%
D20*
%TO.C,F1*%
X88025000Y-95520000D03*
X91000000Y-95520000D03*
%TD*%
D16*
%TO.C,C17*%
X177125000Y-53940000D03*
X180250000Y-53940000D03*
%TD*%
D21*
%TO.C,R3*%
X185025000Y-47390000D03*
X188125000Y-47390000D03*
%TD*%
D13*
%TO.C,C11*%
X184277000Y-71374000D03*
X181152000Y-71374000D03*
%TD*%
D15*
%TO.C,R7*%
X100500000Y-87020000D03*
X100500000Y-90120000D03*
%TD*%
D13*
%TO.C,C14*%
X191712500Y-89050000D03*
X188587500Y-89050000D03*
%TD*%
%TO.C,C15*%
X190881800Y-114046000D03*
X187756800Y-114046000D03*
%TD*%
D12*
%TO.C,Q1*%
X188087000Y-51650000D03*
X188087000Y-53550000D03*
X189962000Y-52600000D03*
%TD*%
D19*
%TO.C,C18*%
X109500000Y-89520000D03*
X109500000Y-86395000D03*
%TD*%
D17*
%TO.C,C4*%
X105500000Y-43875000D03*
X105500000Y-47000000D03*
%TD*%
%TO.C,C9*%
X102870000Y-104482500D03*
X102870000Y-107607500D03*
%TD*%
D21*
%TO.C,R2*%
X137108000Y-109728000D03*
X140208000Y-109728000D03*
%TD*%
D22*
%TO.C,RN6*%
X172800000Y-72100000D03*
X173600000Y-72100000D03*
X174400000Y-72100000D03*
X175200000Y-72100000D03*
X175200000Y-70400000D03*
X174400000Y-70400000D03*
X173600000Y-70400000D03*
X172800000Y-70400000D03*
%TD*%
D21*
%TO.C,R5*%
X181229000Y-68199000D03*
X184329000Y-68199000D03*
%TD*%
D18*
%TO.C,U11*%
X185250000Y-77170000D03*
X185250000Y-78440000D03*
X185250000Y-79710000D03*
X185250000Y-80980000D03*
X185250000Y-82250000D03*
X185250000Y-83520000D03*
X185250000Y-84790000D03*
X185250000Y-86060000D03*
X180300000Y-86060000D03*
X180300000Y-84790000D03*
X180300000Y-83520000D03*
X180300000Y-82250000D03*
X180300000Y-80980000D03*
X180300000Y-79710000D03*
X180300000Y-78440000D03*
X180300000Y-77170000D03*
%TD*%
D23*
%TO.C,R1*%
X131038000Y-99340000D03*
X131038000Y-96240000D03*
%TD*%
D17*
%TO.C,C7*%
X169000000Y-43875000D03*
X169000000Y-47000000D03*
%TD*%
%TO.C,C6*%
X147750000Y-43875000D03*
X147750000Y-47000000D03*
%TD*%
D18*
%TO.C,U1*%
X184000000Y-56980000D03*
X184000000Y-58250000D03*
X184000000Y-59520000D03*
X184000000Y-60790000D03*
X184000000Y-62060000D03*
X184000000Y-63330000D03*
X184000000Y-64600000D03*
X188950000Y-64600000D03*
X188950000Y-63330000D03*
X188950000Y-62060000D03*
X188950000Y-60790000D03*
X188950000Y-59520000D03*
X188950000Y-58250000D03*
X188950000Y-56980000D03*
%TD*%
M02*
