M48
; DRILL file {KiCad 9.0.2} date 2026-02-08T21:42:12+0100
; FORMAT={-:-/ absolute / metric / decimal}
; #@! TF.CreationDate,2026-02-08T21:42:12+01:00
; #@! TF.GenerationSoftware,Kicad,Pcbnew,9.0.2
; #@! TF.FileFunction,Plated,1,4,PTH
FMAT,2
METRIC
; #@! TA.AperFunction,Plated,PTH,ViaDrill
T1C0.300
; #@! TA.AperFunction,Plated,PTH,ComponentDrill
T2C0.750
; #@! TA.AperFunction,Plated,PTH,ComponentDrill
T3C0.800
; #@! TA.AperFunction,Plated,PTH,ComponentDrill
T4C1.000
; #@! TA.AperFunction,Plated,PTH,ComponentDrill
T5C1.400
; #@! TA.AperFunction,Plated,PTH,ComponentDrill
T6C3.200
%
G90
G05
T1
X87.637Y-84.204
X89.0Y-88.52
X91.33Y-90.49
X92.66Y-66.812
X93.59Y-99.418
X94.85Y-97.25
X95.641Y-45.712
X95.641Y-145.277
X97.99Y-94.43
X98.622Y-69.542
X98.9Y-142.25
X99.6Y-144.0
X101.18Y-96.45
X102.5Y-131.75
X102.75Y-138.0
X104.897Y-96.45
X105.25Y-134.25
X105.5Y-45.249
X106.301Y-87.24
X108.919Y-96.741
X109.951Y-126.857
X110.284Y-100.611
X111.515Y-83.848
X111.587Y-87.88
X112.518Y-130.832
X112.784Y-86.58
X113.257Y-92.831
X113.398Y-123.602
X113.4Y-138.8
X113.668Y-94.496
X113.744Y-91.426
X114.079Y-87.152
X114.4Y-143.817
X114.561Y-93.321
X114.82Y-90.321
X115.389Y-95.469
X115.6Y-138.2
X115.891Y-88.67
X117.307Y-53.186
X118.663Y-92.27
X118.754Y-140.502
X118.755Y-142.744
X118.787Y-90.516
X119.201Y-96.204
X119.406Y-94.003
X119.408Y-64.864
X119.97Y-140.109
X120.0Y-138.8
X120.03Y-91.023
X120.052Y-141.42
X120.661Y-90.397
X120.664Y-143.065
X121.998Y-52.105
X122.251Y-102.768
X122.65Y-143.394
X123.014Y-94.43
X124.623Y-141.715
X125.035Y-138.648
X125.224Y-142.6
X125.593Y-121.817
X125.593Y-126.945
X126.022Y-71.671
X126.75Y-45.229
X126.896Y-106.196
X127.6Y-142.2
X129.228Y-142.674
X131.483Y-123.432
X131.554Y-93.034
X132.127Y-92.461
X133.829Y-117.251
X135.182Y-121.838
X135.732Y-118.046
X136.659Y-124.164
X137.471Y-143.187
X137.514Y-91.437
X137.514Y-138.011
X137.999Y-122.232
X138.057Y-89.914
X138.275Y-120.996
X138.399Y-144.203
X138.848Y-140.397
X139.429Y-122.08
X140.135Y-119.168
X140.494Y-70.0
X140.634Y-103.884
X141.095Y-112.994
X141.331Y-93.47
X141.539Y-98.268
X141.944Y-144.744
X142.4Y-81.047
X142.577Y-132.457
X142.606Y-118.967
X142.972Y-72.821
X143.474Y-71.679
X143.474Y-132.87
X143.692Y-75.77
X143.835Y-126.88
X144.247Y-143.229
X144.351Y-133.001
X144.431Y-123.515
X144.448Y-134.24
X144.52Y-117.611
X146.836Y-109.77
X146.872Y-124.359
X147.321Y-99.312
X147.397Y-117.844
X147.48Y-109.28
X147.796Y-45.088
X147.98Y-96.595
X148.164Y-120.385
X148.346Y-121.604
X148.586Y-135.027
X148.713Y-106.228
X148.795Y-107.633
X148.949Y-134.314
X149.338Y-103.404
X149.647Y-127.792
X149.684Y-132.094
X150.048Y-93.995
X150.302Y-107.764
X150.554Y-102.751
X150.765Y-136.581
X151.03Y-100.695
X151.461Y-103.992
X151.551Y-101.7
X151.577Y-129.673
X151.76Y-119.095
X151.83Y-95.255
X151.884Y-106.287
X151.936Y-110.72
X152.007Y-133.598
X152.056Y-109.874
X153.934Y-91.252
X155.236Y-131.864
X155.239Y-118.126
X155.249Y-95.173
X155.288Y-127.546
X155.289Y-119.198
X155.294Y-124.438
X155.316Y-113.799
X155.439Y-107.493
X155.617Y-68.397
X155.658Y-109.542
X155.796Y-97.908
X155.917Y-136.622
X156.032Y-105.102
X156.164Y-93.771
X156.251Y-108.979
X156.273Y-133.22
X156.552Y-117.355
X156.552Y-122.289
X156.956Y-129.514
X158.403Y-105.018
X160.45Y-101.494
X160.687Y-96.257
X161.31Y-95.68
X161.586Y-101.872
X161.586Y-110.807
X161.586Y-121.247
X161.586Y-126.843
X163.246Y-135.135
X164.333Y-98.543
X164.342Y-106.044
X164.422Y-107.369
X164.477Y-110.373
X164.533Y-120.32
X164.853Y-102.678
X165.124Y-97.192
X165.266Y-99.41
X165.353Y-93.65
X166.374Y-112.33
X166.458Y-91.252
X166.822Y-89.051
X167.402Y-113.839
X167.556Y-137.088
X168.01Y-64.951
X168.237Y-91.861
X168.271Y-108.67
X168.375Y-99.433
X168.387Y-94.483
X168.387Y-100.437
X168.479Y-97.306
X168.512Y-133.013
X168.522Y-119.007
X168.526Y-131.596
X168.552Y-105.257
X168.631Y-106.088
X169.0Y-45.75
X169.117Y-108.369
X169.195Y-128.36
X169.25Y-69.25
X169.698Y-103.639
X169.948Y-99.075
X170.094Y-107.461
X170.161Y-79.002
X170.19Y-62.733
X170.364Y-89.312
X170.541Y-72.018
X170.743Y-117.606
X170.78Y-123.637
X170.845Y-126.676
X171.25Y-68.5
X171.292Y-110.113
X171.37Y-65.682
X171.376Y-66.572
X172.134Y-106.072
X172.326Y-129.339
X172.56Y-107.837
X172.727Y-112.261
X172.91Y-117.525
X172.955Y-66.044
X173.206Y-111.605
X173.26Y-101.919
X173.37Y-131.269
X173.713Y-121.09
X173.937Y-68.678
X173.97Y-134.249
X174.041Y-118.411
X174.068Y-102.946
X174.073Y-126.977
X174.165Y-105.784
X174.165Y-108.173
X174.165Y-110.141
X174.177Y-128.816
X174.212Y-95.896
X174.368Y-101.069
X174.432Y-133.061
X174.55Y-120.746
X174.601Y-123.439
X174.605Y-92.869
X174.843Y-118.311
X174.849Y-81.584
X175.229Y-68.397
X175.4Y-58.8
X175.588Y-112.599
X176.391Y-77.261
X176.51Y-50.641
X176.51Y-137.103
X176.51Y-145.052
X177.896Y-96.166
X177.976Y-103.72
X178.041Y-97.908
X178.161Y-110.706
X178.223Y-105.138
X178.301Y-122.81
X178.458Y-64.114
X178.49Y-94.626
X178.493Y-109.75
X178.534Y-63.029
X178.536Y-84.623
X178.699Y-130.689
X178.795Y-53.565
X179.0Y-59.6
X179.45Y-128.298
X179.495Y-68.397
X179.505Y-118.459
X179.517Y-64.237
X179.776Y-95.82
X180.042Y-97.909
X180.852Y-87.491
X181.072Y-143.962
X181.532Y-74.413
X181.709Y-81.501
X181.763Y-119.353
X181.915Y-82.595
X181.945Y-83.631
X182.095Y-59.095
X182.24Y-78.789
X182.448Y-71.344
X182.737Y-66.025
X184.592Y-118.54
X184.6Y-141.6
X185.187Y-87.019
X185.396Y-92.572
X185.487Y-100.58
X185.615Y-114.262
X185.917Y-125.64
X185.966Y-64.38
X186.029Y-130.268
X186.112Y-59.498
X186.174Y-56.532
X186.31Y-43.569
X187.031Y-120.166
X187.265Y-118.148
X187.319Y-81.556
X187.466Y-61.726
X187.527Y-108.934
X187.558Y-102.092
X187.67Y-133.915
X187.816Y-84.322
X187.901Y-120.584
X188.057Y-131.254
X188.106Y-132.846
X188.253Y-83.188
X188.423Y-79.345
X189.361Y-84.553
X189.4Y-68.8
X189.792Y-76.472
X189.992Y-115.498
X190.496Y-90.052
X190.497Y-89.159
X190.935Y-82.68
X191.235Y-53.974
X191.332Y-100.208
X191.412Y-129.718
X191.622Y-111.093
X191.782Y-116.146
X191.884Y-92.007
X191.892Y-134.268
X191.893Y-124.961
X191.962Y-62.464
X191.986Y-106.745
X192.006Y-119.05
X192.089Y-127.15
X192.4Y-61.0
X192.53Y-117.118
X192.625Y-109.83
X192.8Y-69.442
X192.825Y-107.671
X193.676Y-74.087
X193.794Y-117.756
X194.109Y-113.122
X194.419Y-59.498
X194.807Y-68.091
X194.944Y-74.439
X195.215Y-101.026
X195.647Y-110.207
X197.956Y-105.874
X198.498Y-76.25
X199.512Y-77.815
X199.598Y-73.027
X201.2Y-72.8
X202.0Y-68.6
T2
X79.05Y-84.2
X79.05Y-86.2
T3
X87.26Y-44.42
X87.26Y-46.96
X87.26Y-49.5
X87.26Y-52.04
X87.26Y-54.58
X87.26Y-57.12
X87.26Y-59.66
X87.26Y-62.2
X87.26Y-64.74
X87.26Y-67.28
X87.26Y-69.82
X87.26Y-72.36
X87.26Y-74.9
X87.26Y-77.44
X87.26Y-79.98
X87.26Y-82.52
X96.26Y-103.985
X96.26Y-106.525
X96.26Y-109.065
X96.26Y-111.605
X96.26Y-114.145
X96.26Y-116.685
X96.26Y-119.225
X96.26Y-121.765
X96.26Y-124.305
X96.26Y-126.845
X96.26Y-129.385
X96.26Y-131.925
X96.26Y-134.465
X96.26Y-137.005
X96.26Y-139.545
X96.26Y-142.085
X102.5Y-44.42
X102.5Y-46.96
X102.5Y-49.5
X102.5Y-52.04
X102.5Y-54.58
X102.5Y-57.12
X102.5Y-59.66
X102.5Y-62.2
X102.5Y-64.74
X102.5Y-67.28
X102.5Y-69.82
X102.5Y-72.36
X102.5Y-74.9
X102.5Y-77.44
X102.5Y-79.98
X102.5Y-82.52
X108.52Y-44.42
X108.52Y-46.96
X108.52Y-49.5
X108.52Y-52.04
X108.52Y-54.58
X108.52Y-57.12
X108.52Y-59.66
X108.52Y-62.2
X108.52Y-64.74
X108.52Y-67.28
X108.52Y-69.82
X108.52Y-72.36
X108.52Y-74.9
X108.52Y-77.44
X108.52Y-79.98
X108.52Y-82.52
X111.5Y-103.985
X111.5Y-106.525
X111.5Y-109.065
X111.5Y-111.605
X111.5Y-114.145
X111.5Y-116.685
X111.5Y-119.225
X111.5Y-121.765
X111.5Y-124.305
X111.5Y-126.845
X111.5Y-129.385
X111.5Y-131.925
X111.5Y-134.465
X111.5Y-137.005
X111.5Y-139.545
X111.5Y-142.085
X117.2Y-104.005
X117.2Y-106.545
X117.2Y-109.085
X117.2Y-111.625
X117.2Y-114.165
X117.2Y-116.705
X117.2Y-119.245
X117.2Y-121.785
X117.2Y-124.325
X117.2Y-126.865
X117.2Y-129.405
X117.2Y-131.945
X117.2Y-134.485
X117.2Y-137.025
X117.2Y-139.565
X117.2Y-142.105
X123.76Y-44.42
X123.76Y-46.96
X123.76Y-49.5
X123.76Y-52.04
X123.76Y-54.58
X123.76Y-57.12
X123.76Y-59.66
X123.76Y-62.2
X123.76Y-64.74
X123.76Y-67.28
X123.76Y-69.82
X123.76Y-72.36
X123.76Y-74.9
X123.76Y-77.44
X123.76Y-79.98
X123.76Y-82.52
X129.52Y-44.42
X129.52Y-46.96
X129.52Y-49.5
X129.52Y-52.04
X129.52Y-54.58
X129.52Y-57.12
X129.52Y-59.66
X129.52Y-62.2
X129.52Y-64.74
X129.52Y-67.28
X129.52Y-69.82
X129.52Y-72.36
X129.52Y-74.9
X129.52Y-77.44
X129.52Y-79.98
X129.52Y-82.52
X132.44Y-104.005
X132.44Y-106.545
X132.44Y-109.085
X132.44Y-111.625
X132.44Y-114.165
X132.44Y-116.705
X132.44Y-119.245
X132.44Y-121.785
X132.44Y-124.325
X132.44Y-126.865
X132.44Y-129.405
X132.44Y-131.945
X132.44Y-134.485
X132.44Y-137.025
X132.44Y-139.565
X132.44Y-142.105
X144.76Y-44.42
X144.76Y-46.96
X144.76Y-49.5
X144.76Y-52.04
X144.76Y-54.58
X144.76Y-57.12
X144.76Y-59.66
X144.76Y-62.2
X144.76Y-64.74
X144.76Y-67.28
X144.76Y-69.82
X144.76Y-72.36
X144.76Y-74.9
X144.76Y-77.44
X144.76Y-79.98
X144.76Y-82.52
X150.76Y-44.42
X150.76Y-46.96
X150.76Y-49.5
X150.76Y-52.04
X150.76Y-54.58
X150.76Y-57.12
X150.76Y-59.66
X150.76Y-62.2
X150.76Y-64.74
X150.76Y-67.28
X150.76Y-69.82
X150.76Y-72.36
X150.76Y-74.9
X150.76Y-77.44
X150.76Y-79.98
X150.76Y-82.52
X166.0Y-44.42
X166.0Y-46.96
X166.0Y-49.5
X166.0Y-52.04
X166.0Y-54.58
X166.0Y-57.12
X166.0Y-59.66
X166.0Y-62.2
X166.0Y-64.74
X166.0Y-67.28
X166.0Y-69.82
X166.0Y-72.36
X166.0Y-74.9
X166.0Y-77.44
X166.0Y-79.98
X166.0Y-82.52
T4
X196.873Y-81.35
X196.873Y-83.89
X196.873Y-86.43
X196.873Y-88.97
X196.873Y-91.51
X196.873Y-94.05
X196.873Y-96.59
X196.873Y-99.13
X196.873Y-101.67
X196.873Y-104.21
X196.873Y-106.75
X196.873Y-109.29
X196.873Y-111.83
X196.873Y-114.37
X196.873Y-116.91
X196.873Y-119.45
X196.873Y-121.99
X199.412Y-81.35
X199.412Y-83.89
X199.412Y-86.43
X199.412Y-88.97
X199.412Y-91.51
X199.412Y-94.05
X199.412Y-96.59
X199.412Y-99.13
X199.412Y-101.67
X199.412Y-104.21
X199.412Y-106.75
X199.412Y-109.29
X199.412Y-111.83
X199.412Y-114.37
X199.412Y-116.91
X199.412Y-119.45
X199.412Y-121.99
T5
X75.5Y-45.09
X75.5Y-49.05
X75.5Y-53.01
X75.5Y-56.97
X75.5Y-60.93
X75.5Y-64.89
X75.5Y-68.85
X75.5Y-72.81
X75.5Y-76.77
X198.2Y-44.0
X198.2Y-47.96
X198.2Y-51.92
X198.2Y-55.88
X198.2Y-59.84
X198.2Y-63.8
T6
X76.0Y-93.0
X82.6Y-46.4
X89.0Y-145.0
X177.4Y-46.4
X189.8Y-145.2
M30
